<?xml version="1.0" standalone="no"?>
<!DOCTYPE svg PUBLIC "-//W3C//DTD SVG 1.1//EN" "http://www.w3.org/Graphics/SVG/1.1/DTD/svg11.dtd" >
<svg>
<metadata>
Created by FontForge 20110222 at Tue Apr 30 03:27:46 2013
 By Orthosie Webmaster
Copyright (C) 2002, 2011 Hoefler &#38; Frere-Jones. http://www.typography.com
</metadata>
<defs>
<font id="IdlewildLight" horiz-adv-x="1294" >
  <font-face 
    font-family="IdlewildLight"
    font-weight="300"
    font-stretch="normal"
    units-per-em="1000"
    panose-1="0 0 0 0 0 0 0 0 0 0"
    ascent="800"
    descent="-200"
    x-height="700"
    cap-height="700"
    bbox="-138 -303 3253 1085"
    underline-thickness="50"
    underline-position="-50"
    unicode-range="U+0020-FB04"
  />
<missing-glyph horiz-adv-x="500" 
d="M0 -200v1000h500v-1000h-500zM71 750l179 -390l179 390h-358zM50 -76l172 376l-172 376v-752zM450 676l-172 -376l172 -376v752zM250 240l-179 -390h358z" />
    <glyph glyph-name=".notdef" horiz-adv-x="500" 
d="M0 -200v1000h500v-1000h-500zM71 750l179 -390l179 390h-358zM50 -76l172 376l-172 376v-752zM450 676l-172 -376l172 -376v752zM250 240l-179 -390h358z" />
    <glyph glyph-name=".null" horiz-adv-x="0" 
 />
    <glyph glyph-name="nonmarkingreturn" horiz-adv-x="333" 
 />
    <glyph glyph-name="space" unicode=" " horiz-adv-x="450" 
 />
    <glyph glyph-name="exclam" unicode="!" horiz-adv-x="431" 
d="M193 212l-11 489h71l-11 -489h-49zM259 0h-87v77h87v-77z" />
    <glyph glyph-name="quotedbl" unicode="&#x22;" horiz-adv-x="552" 
d="M146 374h-42l46 342h61zM379 374h-42l46 342h61z" />
    <glyph glyph-name="numbersign" unicode="#" horiz-adv-x="1165" 
d="M1059 243v-45h-288l-66 -198h-52l65 198h-375l-66 -198h-52l65 198h-227v45h242l71 215h-273v45h288l65 196h55l-66 -196h374l65 196h55l-66 -196h226v-45h-241l-72 -215h273zM430 458l-72 -215h375l71 215h-374z" />
    <glyph glyph-name="dollar" unicode="$" horiz-adv-x="1147" 
d="M435 -157h-58l62 187q-213 17 -337 68v56q86 -34 220.5 -57t270.5 -23q299 0 366 67q28 28 28 69q0 38 -23 61q-26 26 -107.5 39t-282.5 22q-206 9 -294 26t-121 51q-35 35 -35 90q0 62 39 101q78 78 396 78q10 0 29.5 -0.5t28.5 -0.5l55 167h57l-55 -170
q194 -12 317 -56v-56q-194 66 -432 66q-291 0 -351 -62q-24 -23 -24 -62q0 -37 20 -57q26 -25 105.5 -39t276.5 -23q215 -10 302 -25.5t122 -50.5t35 -94q0 -65 -40 -105q-86 -86 -412 -86q-34 0 -98 2z" />
    <glyph glyph-name="percent" unicode="%" horiz-adv-x="1578" 
d="M96 532q0 76 45 121q61 61 241 61t241 -61q45 -45 45 -121t-45 -122q-64 -62 -241 -62q-179 0 -241 62q-45 45 -45 122zM615 532q0 57 -34 91q-45 47 -199 47q-153 0 -199 -46q-34 -36 -34 -92q0 -59 34 -93q46 -46 199 -46t199 46q34 34 34 93zM1288 700l-926 -700h-72
l927 700h71zM1482 168q0 -76 -45 -122q-64 -62 -241 -62q-178 0 -242 62q-45 46 -45 122q0 75 45 121q62 62 242 62q179 0 241 -62q45 -46 45 -121zM962 168q0 -58 34 -92q47 -47 200 -47q152 0 198 46q35 35 35 93q0 57 -35 92q-46 46 -198 46q-153 0 -199 -46
q-35 -33 -35 -92z" />
    <glyph glyph-name="ampersand" unicode="&#x26;" horiz-adv-x="1362" 
d="M99 188q0 87 52 140q66 65 227 65q54 0 102 -9q-64 35 -90.5 72t-26.5 84q0 67 40 107q69 69 293 69q149 0 273 -27v-56q-137 30 -272 30q-192 0 -245 -53q-27 -27 -27 -72q0 -40 30 -72t99 -66l322 -159q231 152 319 228v-66q-101 -83 -262 -191l426 -209v-3h-104
l-371 180l-44 -29q-136 -84 -242 -125t-221 -41q-160 0 -226 66q-52 52 -52 137zM778 178l48 30l-143 70q-85 41 -144.5 55t-152.5 14q-133 0 -183 -50q-38 -38 -38 -106q0 -63 38 -103q47 -47 178 -47q104 0 196.5 34.5t200.5 102.5z" />
    <glyph glyph-name="quotesingle" unicode="'" horiz-adv-x="319" 
d="M146 374h-42l46 342h61z" />
    <glyph glyph-name="parenleft" unicode="(" horiz-adv-x="591" 
d="M202 349q0 -99 44 -185t108.5 -144.5t156.5 -114.5v-5h-74q-295 174 -295 449t295 449h74v-5q-92 -56 -156.5 -114.5t-108.5 -144.5t-44 -185z" />
    <glyph glyph-name="parenright" unicode=")" horiz-adv-x="591" 
d="M388 349q0 144 -82.5 250.5t-225.5 193.5v5h74q294 -173 294 -449t-294 -449h-74v5q143 87 225.5 193.5t82.5 250.5z" />
    <glyph glyph-name="asterisk" unicode="*" horiz-adv-x="876" 
d="M608 700h58l-186 -221l340 3v-43l-341 3l187 -221h-58l-170 212l-169 -212h-59l187 221l-341 -3v43l340 -3l-186 221h59l169 -211z" />
    <glyph glyph-name="plus" unicode="+" horiz-adv-x="972" 
d="M511 41h-53v282h-354v52h354v282h53v-282h356v-52h-356v-282z" />
    <glyph glyph-name="comma" unicode="," horiz-adv-x="391" 
d="M43 -253h-64l234 331h75z" />
    <glyph glyph-name="hyphen" unicode="-" horiz-adv-x="783" 
d="M673 381v-55h-563v55h563z" />
    <glyph glyph-name="period" unicode="." horiz-adv-x="360" 
d="M223 0h-86v81h86v-81z" />
    <glyph glyph-name="slash" unicode="/" horiz-adv-x="764" 
d="M68 -99h-72l703 898h69z" />
    <glyph glyph-name="zero" unicode="0" horiz-adv-x="1250" 
d="M1157 350q0 -155 -92 -247q-58 -58 -159.5 -90.5t-281.5 -32.5q-179 0 -281 32.5t-160 90.5q-92 92 -92 247t92 247q58 58 159.5 90.5t281.5 32.5t281.5 -32.5t159.5 -90.5q92 -92 92 -247zM1094 350q0 73 -19 123.5t-63 94.5q-100 100 -388 100q-289 0 -388 -99
q-44 -44 -63 -95t-19 -124q0 -135 82 -218q100 -100 388 -100q289 0 388 99q44 44 63 95t19 124z" />
    <glyph glyph-name="one" unicode="1" horiz-adv-x="614" 
d="M59 478v61l293 162h75v-701h-62v644z" />
    <glyph glyph-name="two" unicode="2" horiz-adv-x="1126" 
d="M140 631q108 41 224 63.5t279 22.5q266 0 343 -79q41 -40 41 -113q0 -64 -43 -107q-34 -34 -118 -56.5t-285 -54.5q-272 -44 -357 -131q-52 -51 -54 -123h863v-53h-934q2 132 75 205q52 52 144 89.5t258 64.5q181 29 258 48.5t103 45.5q28 28 28 74q0 48 -27 75
q-63 63 -294 63q-279 0 -504 -92v58z" />
    <glyph glyph-name="three" unicode="3" horiz-adv-x="1113" 
d="M109 647q71 27 201 48t251 21q171 0 261 -21t131 -62q40 -40 40 -104q0 -61 -44 -105q-53 -53 -162 -64q122 -11 177 -66q41 -41 41 -106q0 -68 -47 -114q-49 -49 -141.5 -69.5t-254.5 -20.5q-123 0 -254 21t-202 49v56q81 -31 211 -52.5t247 -21.5q274 0 345 71
q33 33 33 82t-29 78q-39 40 -121 52.5t-199 12.5h-359v54h357q245 0 308 62q31 31 31 77q0 45 -28 74q-67 65 -341 65q-118 0 -247 -21.5t-205 -53.5v58z" />
    <glyph glyph-name="four" unicode="4" horiz-adv-x="1231" 
d="M840 700h102v-465h253v-52h-253v-183h-63v183h-822v24zM192 234h688v429z" />
    <glyph glyph-name="five" unicode="5" horiz-adv-x="1146" 
d="M203 646v-265q223 23 378 23q174 0 273 -15t142 -58q44 -45 44 -125q0 -77 -51 -126q-45 -45 -136.5 -70.5t-281.5 -25.5q-271 0 -441 54v58q73 -27 194.5 -43.5t246.5 -16.5q291 0 365 74q41 41 41 96q0 54 -33 87t-120.5 45t-243.5 12q-160 0 -433 -25v374h863v-53
h-807z" />
    <glyph glyph-name="six" unicode="6" horiz-adv-x="1182" 
d="M601 -20q-177 0 -275 24t-148 74q-74 74 -74 261q0 168 88 256q60 60 160.5 91t275.5 31q226 0 401 -66v-59q-177 73 -401 73q-281 0 -385 -102q-76 -76 -76 -219q0 -39 1 -56q9 23 30 44q49 53 147.5 76.5t268.5 23.5q335 0 424 -88q48 -48 48 -135q0 -84 -52 -136
q-48 -47 -147 -70t-286 -23zM601 32q165 0 254 18t131 60q37 39 37 99q0 62 -37 99q-72 72 -374 72q-308 0 -386 -78q-41 -43 -41 -95q0 -56 37 -93q84 -82 379 -82z" />
    <glyph glyph-name="seven" unicode="7" horiz-adv-x="1067" 
d="M44 647v53h1003v-24l-730 -676h-74l-6 1l701 646h-894z" />
    <glyph glyph-name="eight" unicode="8" horiz-adv-x="1178" 
d="M589 -20q-171 0 -279.5 19t-158.5 69q-42 42 -42 105t44 105q54 54 175 71q-111 17 -165 71q-44 44 -44 104q0 64 43 107q49 49 148.5 67t278.5 18q180 0 279 -18t148 -67q43 -42 43 -107q0 -62 -44 -104q-52 -54 -165 -71q122 -17 176 -71q43 -43 43 -105
q0 -63 -42 -105q-50 -51 -157.5 -69.5t-280.5 -18.5zM182 520q0 -46 32 -78q67 -67 283 -67h184q216 0 283 67q33 33 33 78q0 46 -32 78q-38 38 -127 52.5t-249 14.5t-249 -14.5t-126 -52.5q-32 -31 -32 -78zM172 177q0 -45 30 -74q41 -41 135.5 -56t251.5 -15t252 15
t136 56q30 30 30 74q0 46 -34 78q-32 32 -110.5 50t-181.5 18h-184q-103 0 -181.5 -18t-110.5 -50q-33 -31 -33 -78z" />
    <glyph glyph-name="nine" unicode="9" horiz-adv-x="1182" 
d="M582 717q177 0 275 -24t148 -74q74 -74 74 -259q0 -169 -88 -257q-61 -61 -161 -92t-275 -31q-245 0 -422 68v59q181 -75 422 -75q281 0 385 102q76 78 76 219q0 38 -1 56q-11 -24 -30 -44q-50 -53 -148 -76.5t-268 -23.5q-178 0 -278.5 21.5t-145.5 66.5q-48 50 -48 136
q0 81 52 135q48 47 147 70t286 23zM582 665q-165 0 -254 -18t-131 -60q-37 -39 -37 -99q0 -62 37 -99q71 -71 374 -71q308 0 385 77q42 42 42 96q0 53 -37 92q-84 82 -379 82z" />
    <glyph glyph-name="colon" unicode=":" horiz-adv-x="361" 
d="M223 0h-86v83h86v-83zM223 390h-86v82h86v-82z" />
    <glyph glyph-name="semicolon" unicode=";" horiz-adv-x="407" 
d="M281 390h-85v81h85v-81zM42 -253h-64l234 331h75z" />
    <glyph glyph-name="less" unicode="&#x3c;" horiz-adv-x="826" 
d="M720 98v-59l-615 278v63l615 278v-59l-568 -250z" />
    <glyph glyph-name="equal" unicode="=" horiz-adv-x="1016" 
d="M892 529v-51h-768v51h768zM892 242v-51h-768v51h768z" />
    <glyph glyph-name="greater" unicode="&#x3e;" horiz-adv-x="826" 
d="M105 98l567 250l-567 251v59l615 -278v-63l-615 -278v59z" />
    <glyph glyph-name="question" unicode="?" horiz-adv-x="1002" 
d="M398 209v173l115 4q160 4 234 18.5t103 43.5q27 29 27 73q0 49 -28 77q-64 64 -358 64q-223 0 -441 -46v55q187 43 441 43q325 0 408 -82q41 -41 41 -111q0 -67 -40 -107q-37 -37 -123.5 -56t-260.5 -24l-61 -3v-122h-57zM469 0h-87v77h87v-77z" />
    <glyph glyph-name="at" unicode="@" horiz-adv-x="1581" 
d="M799 716q419 0 576 -157q107 -109 107 -294q0 -144 -75 -219q-56 -56 -149 -56q-68 0 -112 29.5t-56 83.5q-46 -52 -138.5 -82.5t-211.5 -30.5q-201 0 -259 60q-35 35 -35 88q0 50 29 78q59 61 272 61h329v49q0 73 -54.5 98t-187.5 25q-161 0 -316 -38v45q168 37 317 37
q115 0 179.5 -20t88.5 -56.5t24 -99.5v-160q0 -62 35.5 -91.5t94.5 -29.5q71 0 116 45q57 59 57 184q0 168 -93 261q-144 144 -540 144q-189 0 -325 -41t-204 -108q-89 -90 -89 -254q0 -129 63 -267h-57q-60 142 -60 266q0 183 105 288q162 162 569 162zM522 192
q-21 -21 -21 -53q0 -36 22 -58q48 -48 222 -48q117 0 208.5 33.5t122.5 93.5v75h-328q-185 0 -226 -43z" />
    <glyph glyph-name="A" unicode="A" horiz-adv-x="1237" 
d="M661 704l522 -704h-72l-139 187h-711l-138 -187h-69l522 704h85zM617 667l-317 -427h633z" />
    <glyph glyph-name="B" unicode="B" horiz-adv-x="1224" 
d="M157 0v700h576q138 0 212.5 -15.5t116.5 -56.5q41 -41 41 -109q0 -132 -181 -164q195 -26 195 -168q0 -67 -45 -112q-42 -42 -124 -58.5t-215 -16.5h-576zM1024 271q-34 34 -104.5 45.5t-180.5 11.5h-521v-276h517q127 0 189.5 11.5t96.5 45.5q32 32 32 81q0 51 -29 81z
M1011 591q-33 33 -95 44.5t-188 11.5h-510v-267h520q123 0 182 13.5t90 44.5q30 32 30 75q0 49 -29 78z" />
    <glyph glyph-name="C" unicode="C" horiz-adv-x="1187" 
d="M637 -16q-324 0 -448 124q-90 90 -90 242t90 242q124 124 448 124q135 0 252 -25.5t191 -61.5v-61q-79 42 -198 68.5t-245 26.5q-295 0 -402 -107q-73 -73 -73 -206t73 -205q108 -108 402 -108q127 0 246 26t197 67v-59q-74 -36 -191 -61.5t-252 -25.5z" />
    <glyph glyph-name="D" unicode="D" horiz-adv-x="1241" 
d="M1142 350q0 -146 -92 -238q-114 -112 -429 -112h-464v700h464q315 0 429 -112q92 -92 92 -238zM219 53h401q289 0 384 95q75 77 75 202t-75 202q-95 95 -384 95h-401v-594z" />
    <glyph glyph-name="E" unicode="E" horiz-adv-x="1150" 
d="M219 380h814v-52h-814v-275h828v-53h-890v700h890v-53h-828v-267z" />
    <glyph glyph-name="F" unicode="F" horiz-adv-x="1123" 
d="M219 369h793v-53h-793v-316h-62v700h869v-53h-807v-278z" />
    <glyph glyph-name="G" unicode="G" horiz-adv-x="1270" 
d="M568 356h588v-49q0 -141 -72 -213q-109 -110 -429 -110q-330 0 -454 124q-90 88 -90 242q0 153 90 243q123 123 434 123q147 0 269 -23.5t194 -56.5v-61q-77 40 -199.5 64t-263.5 24q-158 0 -246 -27t-137 -76q-79 -81 -79 -210q0 -132 76 -208q108 -106 406 -106
q290 0 382 93q25 25 38.5 59.5t15.5 57t2 57.5h-525v53z" />
    <glyph glyph-name="H" unicode="H" horiz-adv-x="1283" 
d="M219 381h845v319h62v-700h-62v327h-845v-327h-62v700h62v-319z" />
    <glyph glyph-name="I" unicode="I" horiz-adv-x="413" 
d="M237 0h-61v700h61v-700z" />
    <glyph glyph-name="J" unicode="J" horiz-adv-x="926" 
d="M730 700h62v-359q0 -100 -13.5 -158t-57.5 -102q-92 -92 -288 -92q-188 0 -365 76v58q180 -81 367 -81q163 0 238 75q36 35 46.5 85.5t10.5 134.5v363z" />
    <glyph glyph-name="K" unicode="K" horiz-adv-x="1151" 
d="M168 700h61v-319h226l532 319h97v-1l-576 -345l586 -353v-1h-102l-540 327h-223v-327h-61v700z" />
    <glyph glyph-name="L" unicode="L" horiz-adv-x="1072" 
d="M219 54h788v-54h-850v700h62v-646z" />
    <glyph glyph-name="M" unicode="M" horiz-adv-x="1562" 
d="M1405 700v-700h-61v658l-523 -658h-81l-521 658v-658h-62v700h101l524 -662l524 662h99z" />
    <glyph glyph-name="N" unicode="N" 
d="M247 700l829 -646v646h61v-700h-87l-831 649v-649h-62v700h90z" />
    <glyph glyph-name="O" unicode="O" 
d="M647 720q335 0 458 -123q90 -90 90 -247q0 -155 -90 -246q-126 -124 -458 -124q-335 0 -458 123q-90 90 -90 247q0 156 90 246q124 124 458 124zM647 668q-301 0 -409 -106q-76 -76 -76 -212q0 -133 77 -212q106 -106 408 -106t408 106q77 77 77 212q0 136 -76 212
q-108 106 -409 106z" />
    <glyph glyph-name="P" unicode="P" horiz-adv-x="1176" 
d="M157 700h558q149 0 220.5 -18t111.5 -58q51 -51 51 -143t-51 -143q-40 -40 -112.5 -58.5t-219.5 -18.5h-496v-261h-62v700zM219 314h497q222 0 278 54q42 43 42 112q0 70 -42 113q-28 28 -90.5 41t-187.5 13h-497v-333z" />
    <glyph glyph-name="Q" unicode="Q" horiz-adv-x="1314" 
d="M647 720q335 0 458 -123q90 -90 90 -246q0 -148 -84 -238l137 -68v-58l-180 89q-133 -95 -421 -95q-335 0 -458 123q-90 90 -90 247q0 155 90 245q124 124 458 124zM647 668q-301 0 -409 -106q-76 -76 -76 -211q0 -133 77 -212q106 -106 408 -106q245 0 364 71l-302 151
v60l348 -175q75 75 75 211q0 135 -76 211q-108 106 -409 106z" />
    <glyph glyph-name="R" unicode="R" horiz-adv-x="1234" 
d="M157 700h565q148 0 216 -16.5t105 -52.5q54 -54 54 -146q0 -91 -54 -145q-36 -36 -104 -55.5t-203 -20.5l442 -261v-3h-97l-442 264h-420v-264h-62v700zM219 647v-331h502q122 0 184 15t92 45q38 38 38 108t-40 110q-29 29 -88.5 41t-184.5 12h-503z" />
    <glyph glyph-name="S" unicode="S" horiz-adv-x="1158" 
d="M605 37q289 0 357 68q32 32 32 84q0 51 -26 78q-24 24 -101.5 38.5t-279.5 23.5q-202 10 -292.5 28.5t-124.5 52.5q-38 39 -38 104q0 73 44 117q83 83 387 83q249 0 438 -65v-56q-195 69 -438 69q-275 0 -339 -64q-29 -29 -29 -80q0 -46 26 -70q25 -25 106 -40t273 -24
q217 -11 300.5 -29t117.5 -52q38 -38 38 -110q0 -76 -44 -120q-39 -39 -128.5 -63t-280.5 -24q-299 0 -496 80v56q87 -36 224 -60.5t274 -24.5z" />
    <glyph glyph-name="T" unicode="T" horiz-adv-x="1155" 
d="M1098 700v-53h-490v-647h-62v647h-490v53h1042z" />
    <glyph glyph-name="U" unicode="U" horiz-adv-x="1238" 
d="M619 37q264 0 360 94q63 64 63 191v378h62v-390q0 -140 -77 -217q-111 -109 -408 -109q-299 0 -408 109q-77 77 -77 217v390h61v-378q0 -127 64 -191q96 -94 360 -94z" />
    <glyph glyph-name="V" unicode="V" horiz-adv-x="1208" 
d="M1154 700l-510 -704h-80l-509 704h75l475 -662l476 662h73z" />
    <glyph glyph-name="W" unicode="W" horiz-adv-x="1808" 
d="M1265 -4l-364 642l-343 -642h-84l-414 704h71l386 -665l352 660h66l373 -660l372 665h68l-399 -704h-84z" />
    <glyph glyph-name="X" unicode="X" horiz-adv-x="1182" 
d="M1007 700h89v-1l-457 -346l465 -352v-1h-90l-424 323l-423 -323h-89v1l466 351l-458 347v1h91l415 -317z" />
    <glyph glyph-name="Y" unicode="Y" horiz-adv-x="1115" 
d="M119 700l440 -362l439 362h85v-1l-495 -408v-291h-61v291l-495 408v1h87z" />
    <glyph glyph-name="Z" unicode="Z" horiz-adv-x="1144" 
d="M117 647v53h949v-21l-853 -626h843v-53h-974v21l854 626h-819z" />
    <glyph glyph-name="bracketleft" unicode="[" horiz-adv-x="683" 
d="M186 -100v897h419v-50h-364v-796h364v-51h-419z" />
    <glyph glyph-name="backslash" unicode="\" horiz-adv-x="765" 
d="M769 -99h-72l-701 898h71z" />
    <glyph glyph-name="bracketright" unicode="]" horiz-adv-x="683" 
d="M497 797v-897h-420v50h365v796h-365v51h420z" />
    <glyph glyph-name="asciicircum" unicode="^" horiz-adv-x="797" 
d="M350 700h80l255 -437v-1h-67l-227 398l-212 -398h-67v1z" />
    <glyph glyph-name="underscore" unicode="_" horiz-adv-x="1179" 
d="M1184 -22v-54h-1189v54h1189z" />
    <glyph glyph-name="grave" unicode="`" horiz-adv-x="555" 
d="M460 796v-2h-69l-307 135v3h111z" />
    <glyph glyph-name="a" unicode="a" horiz-adv-x="1237" 
d="M661 704l522 -704h-72l-139 187h-711l-138 -187h-69l522 704h85zM617 667l-317 -427h633z" />
    <glyph glyph-name="b" unicode="b" horiz-adv-x="1224" 
d="M157 0v700h576q138 0 212.5 -15.5t116.5 -56.5q41 -41 41 -109q0 -132 -181 -164q195 -26 195 -168q0 -67 -45 -112q-42 -42 -124 -58.5t-215 -16.5h-576zM1024 271q-34 34 -104.5 45.5t-180.5 11.5h-521v-276h517q127 0 189.5 11.5t96.5 45.5q32 32 32 81q0 51 -29 81z
M1011 591q-33 33 -95 44.5t-188 11.5h-510v-267h520q123 0 182 13.5t90 44.5q30 32 30 75q0 49 -29 78z" />
    <glyph glyph-name="c" unicode="c" horiz-adv-x="1187" 
d="M637 -16q-324 0 -448 124q-90 90 -90 242t90 242q124 124 448 124q135 0 252 -25.5t191 -61.5v-61q-79 42 -198 68.5t-245 26.5q-295 0 -402 -107q-73 -73 -73 -206t73 -205q108 -108 402 -108q127 0 246 26t197 67v-59q-74 -36 -191 -61.5t-252 -25.5z" />
    <glyph glyph-name="d" unicode="d" horiz-adv-x="1241" 
d="M1142 350q0 -146 -92 -238q-114 -112 -429 -112h-464v700h464q315 0 429 -112q92 -92 92 -238zM219 53h401q289 0 384 95q75 77 75 202t-75 202q-95 95 -384 95h-401v-594z" />
    <glyph glyph-name="e" unicode="e" horiz-adv-x="1150" 
d="M219 380h814v-52h-814v-275h828v-53h-890v700h890v-53h-828v-267z" />
    <glyph glyph-name="f" unicode="f" horiz-adv-x="1123" 
d="M219 369h793v-53h-793v-316h-62v700h869v-53h-807v-278z" />
    <glyph glyph-name="g" unicode="g" horiz-adv-x="1270" 
d="M568 356h588v-49q0 -141 -72 -213q-109 -110 -429 -110q-330 0 -454 124q-90 88 -90 242q0 153 90 243q123 123 434 123q147 0 269 -23.5t194 -56.5v-61q-77 40 -199.5 64t-263.5 24q-158 0 -246 -27t-137 -76q-79 -81 -79 -210q0 -132 76 -208q108 -106 406 -106
q290 0 382 93q25 25 38.5 59.5t15.5 57t2 57.5h-525v53z" />
    <glyph glyph-name="h" unicode="h" horiz-adv-x="1283" 
d="M219 381h845v319h62v-700h-62v327h-845v-327h-62v700h62v-319z" />
    <glyph glyph-name="i" unicode="i" horiz-adv-x="413" 
d="M237 0h-61v700h61v-700z" />
    <glyph glyph-name="j" unicode="j" horiz-adv-x="926" 
d="M730 700h62v-359q0 -100 -13.5 -158t-57.5 -102q-92 -92 -288 -92q-188 0 -365 76v58q180 -81 367 -81q163 0 238 75q36 35 46.5 85.5t10.5 134.5v363z" />
    <glyph glyph-name="k" unicode="k" horiz-adv-x="1151" 
d="M168 700h61v-319h226l532 319h97v-1l-576 -345l586 -353v-1h-102l-540 327h-223v-327h-61v700z" />
    <glyph glyph-name="l" unicode="l" horiz-adv-x="1072" 
d="M219 54h788v-54h-850v700h62v-646z" />
    <glyph glyph-name="m" unicode="m" horiz-adv-x="1562" 
d="M1405 700v-700h-61v658l-523 -658h-81l-521 658v-658h-62v700h101l524 -662l524 662h99z" />
    <glyph glyph-name="n" unicode="n" 
d="M247 700l829 -646v646h61v-700h-87l-831 649v-649h-62v700h90z" />
    <glyph glyph-name="o" unicode="o" 
d="M647 720q335 0 458 -123q90 -90 90 -247q0 -155 -90 -246q-126 -124 -458 -124q-335 0 -458 123q-90 90 -90 247q0 156 90 246q124 124 458 124zM647 668q-301 0 -409 -106q-76 -76 -76 -212q0 -133 77 -212q106 -106 408 -106t408 106q77 77 77 212q0 136 -76 212
q-108 106 -409 106z" />
    <glyph glyph-name="p" unicode="p" horiz-adv-x="1176" 
d="M157 700h558q149 0 220.5 -18t111.5 -58q51 -51 51 -143t-51 -143q-40 -40 -112.5 -58.5t-219.5 -18.5h-496v-261h-62v700zM219 314h497q222 0 278 54q42 43 42 112q0 70 -42 113q-28 28 -90.5 41t-187.5 13h-497v-333z" />
    <glyph glyph-name="q" unicode="q" horiz-adv-x="1314" 
d="M647 720q335 0 458 -123q90 -90 90 -246q0 -148 -84 -238l137 -68v-58l-180 89q-133 -95 -421 -95q-335 0 -458 123q-90 90 -90 247q0 155 90 245q124 124 458 124zM647 668q-301 0 -409 -106q-76 -76 -76 -211q0 -133 77 -212q106 -106 408 -106q245 0 364 71l-302 151
v60l348 -175q75 75 75 211q0 135 -76 211q-108 106 -409 106z" />
    <glyph glyph-name="r" unicode="r" horiz-adv-x="1234" 
d="M157 700h565q148 0 216 -16.5t105 -52.5q54 -54 54 -146q0 -91 -54 -145q-36 -36 -104 -55.5t-203 -20.5l442 -261v-3h-97l-442 264h-420v-264h-62v700zM219 647v-331h502q122 0 184 15t92 45q38 38 38 108t-40 110q-29 29 -88.5 41t-184.5 12h-503z" />
    <glyph glyph-name="s" unicode="s" horiz-adv-x="1158" 
d="M605 37q289 0 357 68q32 32 32 84q0 51 -26 78q-24 24 -101.5 38.5t-279.5 23.5q-202 10 -292.5 28.5t-124.5 52.5q-38 39 -38 104q0 73 44 117q83 83 387 83q249 0 438 -65v-56q-195 69 -438 69q-275 0 -339 -64q-29 -29 -29 -80q0 -46 26 -70q25 -25 106 -40t273 -24
q217 -11 300.5 -29t117.5 -52q38 -38 38 -110q0 -76 -44 -120q-39 -39 -128.5 -63t-280.5 -24q-299 0 -496 80v56q87 -36 224 -60.5t274 -24.5z" />
    <glyph glyph-name="t" unicode="t" horiz-adv-x="1155" 
d="M1098 700v-53h-490v-647h-62v647h-490v53h1042z" />
    <glyph glyph-name="u" unicode="u" horiz-adv-x="1238" 
d="M619 37q264 0 360 94q63 64 63 191v378h62v-390q0 -140 -77 -217q-111 -109 -408 -109q-299 0 -408 109q-77 77 -77 217v390h61v-378q0 -127 64 -191q96 -94 360 -94z" />
    <glyph glyph-name="v" unicode="v" horiz-adv-x="1208" 
d="M1154 700l-510 -704h-80l-509 704h75l475 -662l476 662h73z" />
    <glyph glyph-name="w" unicode="w" horiz-adv-x="1808" 
d="M1265 -4l-364 642l-343 -642h-84l-414 704h71l386 -665l352 660h66l373 -660l372 665h68l-399 -704h-84z" />
    <glyph glyph-name="x" unicode="x" horiz-adv-x="1182" 
d="M1007 700h89v-1l-457 -346l465 -352v-1h-90l-424 323l-423 -323h-89v1l466 351l-458 347v1h91l415 -317z" />
    <glyph glyph-name="y" unicode="y" horiz-adv-x="1115" 
d="M119 700l440 -362l439 362h85v-1l-495 -408v-291h-61v291l-495 408v1h87z" />
    <glyph glyph-name="z" unicode="z" horiz-adv-x="1144" 
d="M117 647v53h949v-21l-853 -626h843v-53h-974v21l854 626h-819z" />
    <glyph glyph-name="braceleft" unicode="{" horiz-adv-x="868" 
d="M198 349q118 -13 158 -54.5t40 -124.5v-45q0 -61 6 -89.5t29 -51.5q45 -45 191 -45q112 0 196 13v-51q-86 -12 -190 -12q-105 0 -159.5 14t-86.5 46q-26 26 -33.5 61.5t-7.5 102.5v54q0 39 -8 64t-31.5 47t-70.5 33t-122 14l-59 4v40l59 4q75 3 122 14t70.5 32.5
t31.5 46.5t8 65v54q0 67 7.5 102.5t33.5 61.5q32 32 86.5 46t159.5 14q104 0 190 -12v-51q-84 13 -196 13q-146 0 -191 -45q-23 -23 -29 -51.5t-6 -89.5v-45q0 -84 -40 -124.5t-158 -54.5z" />
    <glyph glyph-name="bar" unicode="|" horiz-adv-x="619" 
d="M339 -125h-59v953h59v-953z" />
    <glyph glyph-name="braceright" unicode="}" horiz-adv-x="868" 
d="M670 349q-118 14 -158 54.5t-40 124.5v45q0 61 -6 89.5t-29 51.5q-45 45 -192 45q-111 0 -195 -13v51q86 12 189 12q105 0 159.5 -14t86.5 -46q27 -27 34.5 -62.5t7.5 -101.5v-54q0 -40 8 -65t31.5 -46.5t70.5 -32.5t122 -14l59 -4v-40l-59 -4q-75 -3 -122 -14t-70.5 -33
t-31.5 -47t-8 -64v-54q0 -66 -7.5 -101.5t-34.5 -62.5q-32 -32 -86.5 -46t-159.5 -14q-103 0 -189 12v51q84 -13 195 -13q147 0 192 45q23 23 29 51.5t6 89.5v45q0 83 40 124.5t158 54.5z" />
    <glyph glyph-name="asciitilde" unicode="~" horiz-adv-x="848" 
d="M100 384q70 84 161 84q52 0 119 -31l98 -46q64 -29 110 -29q43 0 79 20t79 68h4v-64q-71 -83 -162 -83q-55 0 -118 30l-99 46q-62 29 -110 29q-43 0 -78.5 -20t-79.5 -68h-3v64z" />
    <glyph glyph-name="uni00A0" unicode="&#xa0;" horiz-adv-x="450" 
 />
    <glyph glyph-name="exclamdown" unicode="&#xa1;" horiz-adv-x="431" 
d="M238 489l11 -489h-71l11 489h49zM172 701h87v-77h-87v77z" />
    <glyph glyph-name="cent" unicode="&#xa2;" horiz-adv-x="913" 
d="M382 -52h-56l51 162q-145 19 -203 77q-63 62 -63 162q0 101 65 165q81 81 313 81h11l49 156h56l-49 -159q127 -10 222 -39l1 -57q-134 48 -283 48q-212 0 -279 -66q-49 -50 -49 -129q0 -78 49 -127q35 -35 109.5 -51t153.5 -16q177 0 299 46l-1 -56q-130 -42 -289 -42
q-39 0 -58 1z" />
    <glyph glyph-name="sterling" unicode="&#xa3;" horiz-adv-x="1226" 
d="M93 369h189q0 98 12.5 154t56.5 100q51 51 139 72t233 21q198 0 376 -50v-58q-177 55 -378 55q-245 0 -321 -76q-36 -37 -46 -86.5t-10 -131.5h655v-49h-655v-266h785v-54h-1036v28l189 26v266h-189v49z" />
    <glyph glyph-name="yen" unicode="&#xa5;" horiz-adv-x="1178" 
d="M149 336h385l-469 363v1h85l442 -344l437 344h84v-1l-467 -363h384v-39h-409v-117h409v-38h-409v-142h-61v142h-411v38h411v117h-411v39z" />
    <glyph glyph-name="section" unicode="&#xa7;" horiz-adv-x="1364" 
d="M29 109q136 -38 285 -59l109 382q21 73 42 118t54 78q52 52 130 70.5t201 18.5q232 0 484 -70v-56q-145 40 -286 60l-108 -382q-40 -142 -96 -196q-52 -53 -129.5 -71t-201.5 -18q-232 0 -484 70v55zM479 413l-107 -370q80 -8 141 -8q109 0 176 16.5t109 57.5
q50 50 86 178l106 371q-80 8 -140 8q-110 0 -177 -17t-108 -58q-50 -50 -86 -178z" />
    <glyph glyph-name="dieresis" unicode="&#xa8;" horiz-adv-x="580" 
d="M179 871v-64h-89v64h89zM490 871v-64h-89v64h89z" />
    <glyph glyph-name="copyright" unicode="&#xa9;" horiz-adv-x="1403" 
d="M701 -94q-364 0 -499 135q-103 103 -103 307q0 203 104 307q136 136 498 136q364 0 500 -136q103 -103 103 -307q0 -202 -104 -306q-136 -136 -499 -136zM701 -58q344 0 470 124q92 92 92 282t-92 282q-124 124 -470 124t-468 -124q-93 -92 -93 -282t93 -282
q124 -124 468 -124zM397 349q0 91 52 143q70 70 263 70q142 0 261 -46v-50q-117 49 -262 49q-166 0 -222 -56q-40 -41 -40 -110q0 -70 40 -110q55 -55 222 -55q150 0 262 47v-49q-117 -46 -263 -46q-191 0 -261 70q-52 52 -52 143z" />
    <glyph glyph-name="ordfeminine" unicode="&#xaa;" horiz-adv-x="949" 
d="M438 706h72l353 -483h-62l-92 125h-471l-91 -125h-61zM473 671l-201 -276h403zM67 0v45h814v-45h-814z" />
    <glyph glyph-name="guillemotleft" unicode="&#xab;" horiz-adv-x="867" 
d="M142 358l303 -204h-76l-292 193v22l296 193h75zM483 358l303 -204h-76l-291 193v22l296 193h74z" />
    <glyph glyph-name="registered" unicode="&#xae;" horiz-adv-x="804" 
d="M734 490q0 -114 -60 -174q-81 -81 -272 -81t-272 81q-60 60 -60 173q0 114 60 174q81 81 272 81t272 -81q60 -60 60 -173zM101 489q0 -103 52 -155q70 -70 249 -70q177 0 249 70q52 52 52 155q0 104 -52 155q-71 71 -249 71q-180 0 -249 -71q-52 -51 -52 -155zM565 532
q0 -30 -18 -48q-23 -23 -82 -27l117 -75v-3h-52l-118 77h-120v-77h-37v226h182q85 0 112 -27q16 -16 16 -46zM527 531q0 17 -9 26q-15 15 -83 15h-143v-84h148q61 0 77 16q10 10 10 27z" />
    <glyph glyph-name="macron" unicode="&#xaf;" horiz-adv-x="770" 
d="M673 828h-576v44h576v-44z" />
    <glyph glyph-name="degree" unicode="&#xb0;" horiz-adv-x="788" 
d="M82 518q0 82 49 130q69 71 262 71q192 0 263 -71q48 -48 48 -130t-48 -131q-70 -70 -263 -70q-194 0 -262 70q-49 49 -49 131zM650 518q0 68 -38 104q-53 53 -219 53t-219 -53q-38 -38 -38 -104q0 -65 38 -105q52 -52 219 -52t219 52q38 38 38 105z" />
    <glyph glyph-name="plusminus" unicode="&#xb1;" horiz-adv-x="881" 
d="M110 483h302v213h50v-213h309v-49h-309v-224h-50v224h-302v49zM115 60h651v-49h-651v49z" />
    <glyph glyph-name="acute" unicode="&#xb4;" horiz-adv-x="555" 
d="M95 794v2l265 136h111v-3l-307 -135h-69z" />
    <glyph glyph-name="paragraph" unicode="&#xb6;" horiz-adv-x="1315" 
d="M1162 0h-57v648h-296v-648h-208q-295 0 -407 110q-90 90 -90 240q0 149 91 240q50 50 141.5 80t264.5 30h561v-700zM240 551q-73 -73 -73 -201t73 -201q47 -47 128 -71.5t232 -24.5h147v594h-147q-151 0 -232 -24.5t-128 -71.5z" />
    <glyph glyph-name="periodcentered" unicode="&#xb7;" horiz-adv-x="364" 
d="M227 321h-90v85h90v-85z" />
    <glyph glyph-name="cedilla" unicode="&#xb8;" horiz-adv-x="447" 
d="M278 15h56l-240 -208h-84z" />
    <glyph glyph-name="ordmasculine" unicode="&#xba;" horiz-adv-x="979" 
d="M113 0v45h754v-45h-754zM864 464q0 -102 -62 -164q-87 -87 -316 -87q-228 0 -315 87q-62 62 -62 164q0 101 62 163q88 88 315 88q228 0 316 -88q62 -62 62 -163zM809 464q0 80 -50 130q-70 72 -273 72q-202 0 -273 -71q-49 -51 -49 -131q0 -82 48 -130q73 -73 274 -73
q202 0 274 72q49 49 49 131z" />
    <glyph glyph-name="guillemotright" unicode="&#xbb;" horiz-adv-x="867" 
d="M385 358l-303 204h76l291 -192v-22l-295 -194h-75zM726 358l-303 204h76l292 -192v-22l-296 -194h-75z" />
    <glyph glyph-name="questiondown" unicode="&#xbf;" horiz-adv-x="1002" 
d="M604 503v-173l-115 -4q-160 -4 -234 -18.5t-103 -43.5q-27 -29 -27 -73q0 -49 28 -77q64 -64 358 -64q223 0 441 46v-55q-187 -43 -441 -43q-325 0 -408 82q-41 41 -41 111q0 67 40 107q37 37 124 56t261 24l60 3v122h57zM533 712h87v-78h-87v78z" />
    <glyph glyph-name="Agrave" unicode="&#xc0;" horiz-adv-x="1237" 
d="M576 704h85l522 -704h-72l-139 187h-711l-138 -187h-69zM617 667l-317 -427h633zM647 809v-2h-69l-307 135v3h111z" />
    <glyph glyph-name="Aacute" unicode="&#xc1;" horiz-adv-x="1237" 
d="M576 704h85l522 -704h-72l-139 187h-711l-138 -187h-69zM617 667l-317 -427h633zM591 807v2l265 136h111v-3l-307 -135h-69z" />
    <glyph glyph-name="Acircumflex" unicode="&#xc2;" horiz-adv-x="1237" 
d="M576 704h85l522 -704h-72l-139 187h-711l-138 -187h-69zM617 667l-317 -427h633zM348 804v3l228 142h85l227 -142v-3h-64l-206 112l-206 -112h-64z" />
    <glyph glyph-name="Atilde" unicode="&#xc3;" horiz-adv-x="1237" 
d="M661 704l522 -704h-72l-139 187h-711l-138 -187h-69l522 704h85zM617 667l-317 -427h633zM349 883q62 71 135 71q28 0 97 -24l81 -35q52 -22 89 -22t65 17t67 59h4v-53q-62 -71 -135 -71q-34 0 -96 23l-82 36q-52 22 -89 22t-65 -17t-67 -59h-4v53z" />
    <glyph glyph-name="Adieresis" unicode="&#xc4;" horiz-adv-x="1237" 
d="M661 704l522 -704h-72l-139 187h-711l-138 -187h-69l522 704h85zM617 667l-317 -427h633zM507 884v-64h-89v64h89zM818 884v-64h-89v64h89z" />
    <glyph glyph-name="Aring" unicode="&#xc5;" horiz-adv-x="1222" 
d="M610 894q162 0 215 -52q33 -34 33 -87q0 -55 -33 -88q-35 -35 -120 -46l463 -621h-75l-127 172h-714l-126 -172h-72l462 621q-85 11 -120 46q-34 34 -34 88q0 53 34 87q52 52 214 52zM580 617l-289 -392h636l-289 392h-58zM610 655q142 0 180 38q23 23 23 62q0 37 -23 60
q-39 40 -180 40q-140 0 -180 -40q-23 -25 -23 -60q0 -38 23 -62q39 -38 180 -38z" />
    <glyph glyph-name="AE" unicode="&#xc6;" horiz-adv-x="1816" 
d="M965 380h736v-52h-736v-275h750v-53h-807v177h-581l-213 -177h-84l845 700h840v-53h-750v-267zM390 230h518v430z" />
    <glyph glyph-name="Ccedilla" unicode="&#xc7;" horiz-adv-x="1187" 
d="M1080 71q-69 -33 -179 -58t-238 -28l-205 -178h-85l230 179q-298 6 -414 122q-90 90 -90 242t90 242q124 124 448 124q135 0 252 -25.5t191 -61.5v-61q-79 42 -198 68.5t-245 26.5q-295 0 -402 -107q-73 -73 -73 -206t73 -205q108 -108 402 -108q127 0 246 26t197 67v-59
z" />
    <glyph glyph-name="Egrave" unicode="&#xc8;" horiz-adv-x="1150" 
d="M219 380h814v-52h-814v-275h828v-53h-890v700h890v-53h-828v-267zM683 796v-2h-69l-307 135v3h111z" />
    <glyph glyph-name="Eacute" unicode="&#xc9;" horiz-adv-x="1150" 
d="M520 794v2l265 136h111v-3l-307 -135h-69zM219 380h814v-52h-814v-275h828v-53h-890v700h890v-53h-828v-267z" />
    <glyph glyph-name="Ecircumflex" unicode="&#xca;" horiz-adv-x="1150" 
d="M332 795v3l228 142h85l227 -142v-3h-64l-206 112l-206 -112h-64zM219 380h814v-52h-814v-275h828v-53h-890v700h890v-53h-828v-267z" />
    <glyph glyph-name="Edieresis" unicode="&#xcb;" horiz-adv-x="1150" 
d="M491 871v-64h-89v64h89zM802 871v-64h-89v64h89zM219 380h814v-52h-814v-275h828v-53h-890v700h890v-53h-828v-267z" />
    <glyph glyph-name="Igrave" unicode="&#xcc;" horiz-adv-x="413" 
d="M237 0h-61v700h61v-700zM238 796v-2h-69l-307 135v3h111z" />
    <glyph glyph-name="Iacute" unicode="&#xcd;" horiz-adv-x="413" 
d="M237 0h-61v700h61v-700zM175 794v2l265 136h111v-3l-307 -135h-69z" />
    <glyph glyph-name="Icircumflex" unicode="&#xce;" horiz-adv-x="413" 
d="M237 0h-61v700h61v-700zM-63 792v3l228 142h85l227 -142v-3h-64l-206 112l-206 -112h-64z" />
    <glyph glyph-name="Idieresis" unicode="&#xcf;" horiz-adv-x="413" 
d="M237 0h-61v700h61v-700zM97 871v-64h-89v64h89zM408 871v-64h-89v64h89z" />
    <glyph glyph-name="Eth" unicode="&#xd0;" horiz-adv-x="1300" 
d="M238 0v324h-170v48h170v328h465q295 0 406 -111q91 -93 91 -239t-91 -239q-111 -111 -406 -111h-465zM803 372v-48h-504v-271h402q266 0 362 96q74 74 74 201q0 129 -74 201q-96 96 -362 96h-402v-275h504z" />
    <glyph glyph-name="Ntilde" unicode="&#xd1;" 
d="M247 700l829 -646v646h61v-700h-87l-831 649v-649h-62v700h90zM411 842q62 71 135 71q28 0 97 -24l81 -35q52 -22 89 -22t65 17t67 59h4v-53q-62 -71 -135 -71q-34 0 -96 23l-82 36q-52 22 -89 22t-65 -17t-67 -59h-4v53z" />
    <glyph glyph-name="Ograve" unicode="&#xd2;" 
d="M647 720q335 0 458 -123q90 -90 90 -247q0 -155 -90 -246q-126 -124 -458 -124q-335 0 -458 123q-90 90 -90 247q0 156 90 246q124 124 458 124zM647 668q-301 0 -409 -106q-76 -76 -76 -212q0 -133 77 -212q106 -106 408 -106t408 106q77 77 77 212q0 136 -76 212
q-108 106 -409 106zM727 809v-2h-69l-307 135v3h111z" />
    <glyph glyph-name="Oacute" unicode="&#xd3;" 
d="M565 807v2l265 136h111v-3l-307 -135h-69zM647 720q335 0 458 -123q90 -90 90 -247q0 -155 -90 -246q-126 -124 -458 -124q-335 0 -458 123q-90 90 -90 247q0 156 90 246q124 124 458 124zM647 668q-301 0 -409 -106q-76 -76 -76 -212q0 -133 77 -212q106 -106 408 -106
t408 106q77 77 77 212q0 136 -76 212q-108 106 -409 106z" />
    <glyph glyph-name="Ocircumflex" unicode="&#xd4;" 
d="M377 808v3l228 142h85l227 -142v-3h-64l-206 112l-206 -112h-64zM647 720q335 0 458 -123q90 -90 90 -247q0 -155 -90 -246q-126 -124 -458 -124q-335 0 -458 123q-90 90 -90 247q0 156 90 246q124 124 458 124zM647 668q-301 0 -409 -106q-76 -76 -76 -212
q0 -133 77 -212q106 -106 408 -106t408 106q77 77 77 212q0 136 -76 212q-108 106 -409 106z" />
    <glyph glyph-name="Otilde" unicode="&#xd5;" 
d="M647 720q335 0 458 -123q90 -90 90 -247q0 -155 -90 -246q-126 -124 -458 -124q-335 0 -458 123q-90 90 -90 247q0 156 90 246q124 124 458 124zM647 668q-301 0 -409 -106q-76 -76 -76 -212q0 -133 77 -212q106 -106 408 -106t408 106q77 77 77 212q0 136 -76 212
q-108 106 -409 106zM377 883q62 71 135 71q28 0 97 -24l81 -35q52 -22 89 -22t65 17t67 59h4v-53q-62 -71 -135 -71q-34 0 -96 23l-82 36q-52 22 -89 22t-65 -17t-67 -59h-4v53z" />
    <glyph glyph-name="Odieresis" unicode="&#xd6;" 
d="M536 884v-64h-89v64h89zM847 884v-64h-89v64h89zM647 720q335 0 458 -123q90 -90 90 -247q0 -155 -90 -246q-126 -124 -458 -124q-335 0 -458 123q-90 90 -90 247q0 156 90 246q124 124 458 124zM647 668q-301 0 -409 -106q-76 -76 -76 -212q0 -133 77 -212
q106 -106 408 -106t408 106q77 77 77 212q0 136 -76 212q-108 106 -409 106z" />
    <glyph glyph-name="multiply" unicode="&#xd7;" horiz-adv-x="899" 
d="M152 110l-33 39l287 218l-287 217l34 41l296 -226l298 226l32 -40l-287 -218l287 -217l-33 -40l-297 225z" />
    <glyph glyph-name="Oslash" unicode="&#xd8;" horiz-adv-x="1264" 
d="M99 350q0 151 92 242q123 125 441 125t442 -124q91 -91 91 -243q0 -151 -91 -242q-127 -125 -442 -125q-318 0 -442 124q-91 91 -91 243zM1103 350q0 92 -39 156l-835 -353l15 -15q103 -103 388 -103q284 0 389 103q82 82 82 212zM162 350q0 -93 37 -155l836 351l-15 16
q-103 103 -388 103t-388 -103q-82 -82 -82 -212z" />
    <glyph glyph-name="Ugrave" unicode="&#xd9;" horiz-adv-x="1238" 
d="M619 37q264 0 360 94q63 64 63 191v378h62v-390q0 -140 -77 -217q-111 -109 -408 -109q-299 0 -408 109q-77 77 -77 217v390h61v-378q0 -127 64 -191q96 -94 360 -94zM704 766v-2h-69l-307 135v3h111z" />
    <glyph glyph-name="Uacute" unicode="&#xda;" horiz-adv-x="1238" 
d="M532 764v2l265 136h111v-3l-307 -135h-69zM619 37q264 0 360 94q63 64 63 191v378h62v-390q0 -140 -77 -217q-111 -109 -408 -109q-299 0 -408 109q-77 77 -77 217v390h61v-378q0 -127 64 -191q96 -94 360 -94z" />
    <glyph glyph-name="Ucircumflex" unicode="&#xdb;" horiz-adv-x="1238" 
d="M349 765v3l228 142h85l227 -142v-3h-64l-206 112l-206 -112h-64zM619 37q264 0 360 94q63 64 63 191v378h62v-390q0 -140 -77 -217q-111 -109 -408 -109q-299 0 -408 109q-77 77 -77 217v390h61v-378q0 -127 64 -191q96 -94 360 -94z" />
    <glyph glyph-name="Udieresis" unicode="&#xdc;" horiz-adv-x="1238" 
d="M508 841v-64h-89v64h89zM819 841v-64h-89v64h89zM619 37q264 0 360 94q63 64 63 191v378h62v-390q0 -140 -77 -217q-111 -109 -408 -109q-299 0 -408 109q-77 77 -77 217v390h61v-378q0 -127 64 -191q96 -94 360 -94z" />
    <glyph glyph-name="Yacute" unicode="&#xdd;" horiz-adv-x="1115" 
d="M119 700l440 -362l439 362h85v-1l-495 -408v-291h-61v291l-495 408v1h87zM473 764v2l265 136h111v-3l-307 -135h-69z" />
    <glyph glyph-name="Thorn" unicode="&#xde;" horiz-adv-x="1142" 
d="M220 0h-63v712h63v-134h472q149 0 220.5 -17t110.5 -56q50 -50 50 -139q0 -90 -51 -142q-39 -39 -111 -56t-220 -17h-471v-151zM691 525h-471v-321h471q225 0 279 54q38 38 38 107q0 67 -38 105q-53 55 -279 55z" />
    <glyph glyph-name="germandbls" unicode="&#xdf;" horiz-adv-x="2310" 
d="M605 37q289 0 357 68q32 32 32 84q0 51 -26 78q-24 24 -101.5 38.5t-279.5 23.5q-202 10 -292.5 28.5t-124.5 52.5q-38 39 -38 104q0 73 44 117q83 83 387 83q249 0 438 -65v-56q-195 69 -438 69q-275 0 -339 -64q-29 -29 -29 -80q0 -46 26 -70q25 -25 106 -40t273 -24
q217 -11 300.5 -29t117.5 -52q38 -38 38 -110q0 -76 -44 -120q-39 -39 -128.5 -63t-280.5 -24q-299 0 -496 80v56q87 -36 224 -60.5t274 -24.5zM1757 37q289 0 357 68q32 32 32 84q0 51 -26 78q-24 24 -101.5 38.5t-279.5 23.5q-202 10 -292.5 28.5t-124.5 52.5
q-38 39 -38 104q0 73 44 117q83 83 387 83q249 0 438 -65v-56q-195 69 -438 69q-275 0 -339 -64q-29 -29 -29 -80q0 -46 26 -70q25 -25 106 -40t273 -24q217 -11 300.5 -29t117.5 -52q38 -38 38 -110q0 -76 -44 -120q-39 -39 -128.5 -63t-280.5 -24q-299 0 -496 80v56
q87 -36 224 -60.5t274 -24.5z" />
    <glyph glyph-name="agrave" unicode="&#xe0;" horiz-adv-x="1252" 
d="M583 704h85l522 -704h-72l-139 187h-711l-138 -187h-69zM624 667l-317 -427h633zM655 809v-2h-69l-307 135v3h111z" />
    <glyph glyph-name="aacute" unicode="&#xe1;" horiz-adv-x="1237" 
d="M576 704h85l522 -704h-72l-139 187h-711l-138 -187h-69zM617 667l-317 -427h633zM591 807v2l265 136h111v-3l-307 -135h-69z" />
    <glyph glyph-name="acircumflex" unicode="&#xe2;" horiz-adv-x="1237" 
d="M576 704h85l522 -704h-72l-139 187h-711l-138 -187h-69zM617 667l-317 -427h633zM348 804v3l228 142h85l227 -142v-3h-64l-206 112l-206 -112h-64z" />
    <glyph glyph-name="atilde" unicode="&#xe3;" horiz-adv-x="1237" 
d="M661 704l522 -704h-72l-139 187h-711l-138 -187h-69l522 704h85zM617 667l-317 -427h633zM349 883q62 71 135 71q28 0 97 -24l81 -35q52 -22 89 -22t65 17t67 59h4v-53q-62 -71 -135 -71q-34 0 -96 23l-82 36q-52 22 -89 22t-65 -17t-67 -59h-4v53z" />
    <glyph glyph-name="adieresis" unicode="&#xe4;" horiz-adv-x="1237" 
d="M661 704l522 -704h-72l-139 187h-711l-138 -187h-69l522 704h85zM617 667l-317 -427h633zM507 884v-64h-89v64h89zM818 884v-64h-89v64h89z" />
    <glyph glyph-name="aring" unicode="&#xe5;" horiz-adv-x="1222" 
d="M610 894q162 0 215 -52q33 -34 33 -87q0 -55 -33 -88q-35 -35 -120 -46l463 -621h-75l-127 172h-714l-126 -172h-72l462 621q-85 11 -120 46q-34 34 -34 88q0 53 34 87q52 52 214 52zM580 617l-289 -392h636l-289 392h-58zM610 655q142 0 180 38q23 23 23 62q0 37 -23 60
q-39 40 -180 40q-140 0 -180 -40q-23 -25 -23 -60q0 -38 23 -62q39 -38 180 -38z" />
    <glyph glyph-name="ae" unicode="&#xe6;" horiz-adv-x="1816" 
d="M965 380h736v-52h-736v-275h750v-53h-807v177h-581l-213 -177h-84l845 700h840v-53h-750v-267zM390 230h518v430z" />
    <glyph glyph-name="ccedilla" unicode="&#xe7;" horiz-adv-x="1187" 
d="M1080 71q-69 -33 -179 -58t-238 -28l-205 -178h-85l230 179q-298 6 -414 122q-90 90 -90 242t90 242q124 124 448 124q135 0 252 -25.5t191 -61.5v-61q-79 42 -198 68.5t-245 26.5q-295 0 -402 -107q-73 -73 -73 -206t73 -205q108 -108 402 -108q127 0 246 26t197 67v-59
z" />
    <glyph glyph-name="egrave" unicode="&#xe8;" horiz-adv-x="1150" 
d="M219 380h814v-52h-814v-275h828v-53h-890v700h890v-53h-828v-267zM683 796v-2h-69l-307 135v3h111z" />
    <glyph glyph-name="eacute" unicode="&#xe9;" horiz-adv-x="1150" 
d="M520 794v2l265 136h111v-3l-307 -135h-69zM219 380h814v-52h-814v-275h828v-53h-890v700h890v-53h-828v-267z" />
    <glyph glyph-name="ecircumflex" unicode="&#xea;" horiz-adv-x="1150" 
d="M332 795v3l228 142h85l227 -142v-3h-64l-206 112l-206 -112h-64zM219 380h814v-52h-814v-275h828v-53h-890v700h890v-53h-828v-267z" />
    <glyph glyph-name="edieresis" unicode="&#xeb;" horiz-adv-x="1150" 
d="M491 871v-64h-89v64h89zM802 871v-64h-89v64h89zM219 380h814v-52h-814v-275h828v-53h-890v700h890v-53h-828v-267z" />
    <glyph glyph-name="igrave" unicode="&#xec;" horiz-adv-x="413" 
d="M237 0h-61v700h61v-700zM238 796v-2h-69l-307 135v3h111z" />
    <glyph glyph-name="iacute" unicode="&#xed;" horiz-adv-x="413" 
d="M237 0h-61v700h61v-700zM175 794v2l265 136h111v-3l-307 -135h-69z" />
    <glyph glyph-name="icircumflex" unicode="&#xee;" horiz-adv-x="413" 
d="M237 0h-61v700h61v-700zM-63 792v3l228 142h85l227 -142v-3h-64l-206 112l-206 -112h-64z" />
    <glyph glyph-name="idieresis" unicode="&#xef;" horiz-adv-x="413" 
d="M237 0h-61v700h61v-700zM97 871v-64h-89v64h89zM408 871v-64h-89v64h89z" />
    <glyph glyph-name="eth" unicode="&#xf0;" horiz-adv-x="1300" 
d="M238 0v324h-170v48h170v328h465q295 0 406 -111q91 -93 91 -239t-91 -239q-111 -111 -406 -111h-465zM803 372v-48h-504v-271h402q266 0 362 96q74 74 74 201q0 129 -74 201q-96 96 -362 96h-402v-275h504z" />
    <glyph glyph-name="ntilde" unicode="&#xf1;" 
d="M247 700l829 -646v646h61v-700h-87l-831 649v-649h-62v700h90zM411 842q62 71 135 71q28 0 97 -24l81 -35q52 -22 89 -22t65 17t67 59h4v-53q-62 -71 -135 -71q-34 0 -96 23l-82 36q-52 22 -89 22t-65 -17t-67 -59h-4v53z" />
    <glyph glyph-name="ograve" unicode="&#xf2;" 
d="M647 720q335 0 458 -123q90 -90 90 -247q0 -155 -90 -246q-126 -124 -458 -124q-335 0 -458 123q-90 90 -90 247q0 156 90 246q124 124 458 124zM647 668q-301 0 -409 -106q-76 -76 -76 -212q0 -133 77 -212q106 -106 408 -106t408 106q77 77 77 212q0 136 -76 212
q-108 106 -409 106zM727 809v-2h-69l-307 135v3h111z" />
    <glyph glyph-name="oacute" unicode="&#xf3;" 
d="M565 807v2l265 136h111v-3l-307 -135h-69zM647 720q335 0 458 -123q90 -90 90 -247q0 -155 -90 -246q-126 -124 -458 -124q-335 0 -458 123q-90 90 -90 247q0 156 90 246q124 124 458 124zM647 668q-301 0 -409 -106q-76 -76 -76 -212q0 -133 77 -212q106 -106 408 -106
t408 106q77 77 77 212q0 136 -76 212q-108 106 -409 106z" />
    <glyph glyph-name="ocircumflex" unicode="&#xf4;" 
d="M377 808v3l228 142h85l227 -142v-3h-64l-206 112l-206 -112h-64zM647 720q335 0 458 -123q90 -90 90 -247q0 -155 -90 -246q-126 -124 -458 -124q-335 0 -458 123q-90 90 -90 247q0 156 90 246q124 124 458 124zM647 668q-301 0 -409 -106q-76 -76 -76 -212
q0 -133 77 -212q106 -106 408 -106t408 106q77 77 77 212q0 136 -76 212q-108 106 -409 106z" />
    <glyph glyph-name="otilde" unicode="&#xf5;" 
d="M647 720q335 0 458 -123q90 -90 90 -247q0 -155 -90 -246q-126 -124 -458 -124q-335 0 -458 123q-90 90 -90 247q0 156 90 246q124 124 458 124zM647 668q-301 0 -409 -106q-76 -76 -76 -212q0 -133 77 -212q106 -106 408 -106t408 106q77 77 77 212q0 136 -76 212
q-108 106 -409 106zM377 883q62 71 135 71q28 0 97 -24l81 -35q52 -22 89 -22t65 17t67 59h4v-53q-62 -71 -135 -71q-34 0 -96 23l-82 36q-52 22 -89 22t-65 -17t-67 -59h-4v53z" />
    <glyph glyph-name="odieresis" unicode="&#xf6;" 
d="M536 884v-64h-89v64h89zM847 884v-64h-89v64h89zM647 720q335 0 458 -123q90 -90 90 -247q0 -155 -90 -246q-126 -124 -458 -124q-335 0 -458 123q-90 90 -90 247q0 156 90 246q124 124 458 124zM647 668q-301 0 -409 -106q-76 -76 -76 -212q0 -133 77 -212
q106 -106 408 -106t408 106q77 77 77 212q0 136 -76 212q-108 106 -409 106z" />
    <glyph glyph-name="divide" unicode="&#xf7;" horiz-adv-x="1017" 
d="M550 574h-83v77h83v-77zM910 376v-52h-803v52h803zM550 50h-83v77h83v-77z" />
    <glyph glyph-name="oslash" unicode="&#xf8;" horiz-adv-x="1264" 
d="M99 350q0 151 92 242q123 125 441 125t442 -124q91 -91 91 -243q0 -151 -91 -242q-127 -125 -442 -125q-318 0 -442 124q-91 91 -91 243zM1103 350q0 92 -39 156l-835 -353l15 -15q103 -103 388 -103q284 0 389 103q82 82 82 212zM162 350q0 -93 37 -155l836 351l-15 16
q-103 103 -388 103t-388 -103q-82 -82 -82 -212z" />
    <glyph glyph-name="ugrave" unicode="&#xf9;" horiz-adv-x="1238" 
d="M619 37q264 0 360 94q63 64 63 191v378h62v-390q0 -140 -77 -217q-111 -109 -408 -109q-299 0 -408 109q-77 77 -77 217v390h61v-378q0 -127 64 -191q96 -94 360 -94zM704 766v-2h-69l-307 135v3h111z" />
    <glyph glyph-name="uacute" unicode="&#xfa;" horiz-adv-x="1238" 
d="M532 764v2l265 136h111v-3l-307 -135h-69zM619 37q264 0 360 94q63 64 63 191v378h62v-390q0 -140 -77 -217q-111 -109 -408 -109q-299 0 -408 109q-77 77 -77 217v390h61v-378q0 -127 64 -191q96 -94 360 -94z" />
    <glyph glyph-name="ucircumflex" unicode="&#xfb;" horiz-adv-x="1238" 
d="M349 765v3l228 142h85l227 -142v-3h-64l-206 112l-206 -112h-64zM619 37q264 0 360 94q63 64 63 191v378h62v-390q0 -140 -77 -217q-111 -109 -408 -109q-299 0 -408 109q-77 77 -77 217v390h61v-378q0 -127 64 -191q96 -94 360 -94z" />
    <glyph glyph-name="udieresis" unicode="&#xfc;" horiz-adv-x="1238" 
d="M508 841v-64h-89v64h89zM819 841v-64h-89v64h89zM619 37q264 0 360 94q63 64 63 191v378h62v-390q0 -140 -77 -217q-111 -109 -408 -109q-299 0 -408 109q-77 77 -77 217v390h61v-378q0 -127 64 -191q96 -94 360 -94z" />
    <glyph glyph-name="yacute" unicode="&#xfd;" horiz-adv-x="1115" 
d="M119 700l440 -362l439 362h85v-1l-495 -408v-291h-61v291l-495 408v1h87zM473 764v2l265 136h111v-3l-307 -135h-69z" />
    <glyph glyph-name="thorn" unicode="&#xfe;" horiz-adv-x="1142" 
d="M220 0h-63v712h63v-134h472q149 0 220.5 -17t110.5 -56q50 -50 50 -139q0 -90 -51 -142q-39 -39 -111 -56t-220 -17h-471v-151zM691 525h-471v-321h471q225 0 279 54q38 38 38 107q0 67 -38 105q-53 55 -279 55z" />
    <glyph glyph-name="ydieresis" unicode="&#xff;" horiz-adv-x="1115" 
d="M119 700l440 -362l439 362h85v-1l-495 -408v-291h-61v291l-495 408v1h87zM447 841v-64h-89v64h89zM758 841v-64h-89v64h89z" />
    <glyph glyph-name="Amacron" unicode="&#x100;" horiz-adv-x="1237" 
d="M576 704h85l522 -704h-72l-139 187h-711l-138 -187h-69zM617 667l-317 -427h633zM906 841h-576v44h576v-44z" />
    <glyph glyph-name="amacron" unicode="&#x101;" horiz-adv-x="1237" 
d="M576 704h85l522 -704h-72l-139 187h-711l-138 -187h-69zM617 667l-317 -427h633zM906 841h-576v44h576v-44z" />
    <glyph glyph-name="Abreve" unicode="&#x102;" horiz-adv-x="1237" 
d="M661 704l522 -704h-72l-139 187h-711l-138 -187h-69l522 704h85zM617 667l-317 -427h633zM618 811q-80 0 -149.5 28.5t-108.5 63.5v47h5q43 -39 109 -65t144 -26q79 0 145 26t109 65h4v-47q-37 -36 -107 -64t-151 -28z" />
    <glyph glyph-name="abreve" unicode="&#x103;" horiz-adv-x="1237" 
d="M661 704l522 -704h-72l-139 187h-711l-138 -187h-69l522 704h85zM617 667l-317 -427h633zM618 811q-80 0 -149.5 28.5t-108.5 63.5v47h5q43 -39 109 -65t144 -26q79 0 145 26t109 65h4v-47q-37 -36 -107 -64t-151 -28z" />
    <glyph glyph-name="Aogonek" unicode="&#x104;" horiz-adv-x="1237" 
d="M661 704l522 -704h-38l-63 -23q-109 -41 -129 -61q-8 -7 -8 -20q0 -11 7 -17q23 -23 157 -23q89 0 170 16v-45q-85 -15 -172 -15q-161 0 -197 36q-15 15 -15 40t17 42q30 30 167 75l23 7l-130 175h-711l-138 -187h-69l522 704h85zM617 667l-317 -427h633z" />
    <glyph glyph-name="aogonek" unicode="&#x105;" horiz-adv-x="1237" 
d="M661 704l522 -704h-38l-63 -23q-109 -41 -129 -61q-8 -7 -8 -20q0 -11 7 -17q23 -23 157 -23q89 0 170 16v-45q-85 -15 -172 -15q-161 0 -197 36q-15 15 -15 40t17 42q30 30 167 75l23 7l-130 175h-711l-138 -187h-69l522 704h85zM617 667l-317 -427h633z" />
    <glyph glyph-name="Cacute" unicode="&#x106;" horiz-adv-x="1187" 
d="M552 807v2l265 136h111v-3l-307 -135h-69zM637 -16q-324 0 -448 124q-90 90 -90 242t90 242q124 124 448 124q135 0 252 -25.5t191 -61.5v-61q-79 42 -198 68.5t-245 26.5q-295 0 -402 -107q-73 -73 -73 -206t73 -205q108 -108 402 -108q127 0 246 26t197 67v-59
q-74 -36 -191 -61.5t-252 -25.5z" />
    <glyph glyph-name="cacute" unicode="&#x107;" horiz-adv-x="1187" 
d="M552 807v2l265 136h111v-3l-307 -135h-69zM637 -16q-324 0 -448 124q-90 90 -90 242t90 242q124 124 448 124q135 0 252 -25.5t191 -61.5v-61q-79 42 -198 68.5t-245 26.5q-295 0 -402 -107q-73 -73 -73 -206t73 -205q108 -108 402 -108q127 0 246 26t197 67v-59
q-74 -36 -191 -61.5t-252 -25.5z" />
    <glyph glyph-name="Cdotaccent" unicode="&#x10a;" horiz-adv-x="1187" 
d="M637 -16q-324 0 -448 124q-90 90 -90 242t90 242q124 124 448 124q135 0 252 -25.5t191 -61.5v-61q-79 42 -198 68.5t-245 26.5q-295 0 -402 -107q-73 -73 -73 -206t73 -205q108 -108 402 -108q127 0 246 26t197 67v-59q-74 -36 -191 -61.5t-252 -25.5zM679 890v-69h-94
v69h94z" />
    <glyph glyph-name="cdotaccent" unicode="&#x10b;" horiz-adv-x="1187" 
d="M637 -16q-324 0 -448 124q-90 90 -90 242t90 242q124 124 448 124q135 0 252 -25.5t191 -61.5v-61q-79 42 -198 68.5t-245 26.5q-295 0 -402 -107q-73 -73 -73 -206t73 -205q108 -108 402 -108q127 0 246 26t197 67v-59q-74 -36 -191 -61.5t-252 -25.5zM679 890v-69h-94
v69h94z" />
    <glyph glyph-name="Ccaron" unicode="&#x10c;" horiz-adv-x="1187" 
d="M904 943v-3l-227 -142h-85l-228 142v3h64l206 -113l206 113h64zM637 -16q-324 0 -448 124q-90 90 -90 242t90 242q124 124 448 124q135 0 252 -25.5t191 -61.5v-61q-79 42 -198 68.5t-245 26.5q-295 0 -402 -107q-73 -73 -73 -206t73 -205q108 -108 402 -108
q127 0 246 26t197 67v-59q-74 -36 -191 -61.5t-252 -25.5z" />
    <glyph glyph-name="ccaron" unicode="&#x10d;" horiz-adv-x="1187" 
d="M904 943v-3l-227 -142h-85l-228 142v3h64l206 -113l206 113h64zM637 -16q-324 0 -448 124q-90 90 -90 242t90 242q124 124 448 124q135 0 252 -25.5t191 -61.5v-61q-79 42 -198 68.5t-245 26.5q-295 0 -402 -107q-73 -73 -73 -206t73 -205q108 -108 402 -108
q127 0 246 26t197 67v-59q-74 -36 -191 -61.5t-252 -25.5z" />
    <glyph glyph-name="Dcaron" unicode="&#x10e;" horiz-adv-x="1241" 
d="M889 930v-3l-227 -142h-85l-228 142v3h64l206 -113l206 113h64zM1142 350q0 -146 -92 -238q-114 -112 -429 -112h-464v700h464q315 0 429 -112q92 -92 92 -238zM219 53h401q289 0 384 95q75 77 75 202t-75 202q-95 95 -384 95h-401v-594z" />
    <glyph glyph-name="dcaron" unicode="&#x10f;" horiz-adv-x="1241" 
d="M889 930v-3l-227 -142h-85l-228 142v3h64l206 -113l206 113h64zM1142 350q0 -146 -92 -238q-114 -112 -429 -112h-464v700h464q315 0 429 -112q92 -92 92 -238zM219 53h401q289 0 384 95q75 77 75 202t-75 202q-95 95 -384 95h-401v-594z" />
    <glyph glyph-name="Dcroat" unicode="&#x110;" horiz-adv-x="1300" 
d="M238 0v324h-170v48h170v328h465q295 0 406 -111q91 -93 91 -239t-91 -239q-111 -111 -406 -111h-465zM803 372v-48h-504v-271h402q266 0 362 96q74 74 74 201q0 129 -74 201q-96 96 -362 96h-402v-275h504z" />
    <glyph glyph-name="dcroat" unicode="&#x111;" horiz-adv-x="1300" 
d="M238 0v324h-170v48h170v328h465q295 0 406 -111q91 -93 91 -239t-91 -239q-111 -111 -406 -111h-465zM803 372v-48h-504v-271h402q266 0 362 96q74 74 74 201q0 129 -74 201q-96 96 -362 96h-402v-275h504z" />
    <glyph glyph-name="Emacron" unicode="&#x112;" horiz-adv-x="1150" 
d="M219 380h814v-52h-814v-275h828v-53h-890v700h890v-53h-828v-267zM890 828h-576v44h576v-44z" />
    <glyph glyph-name="emacron" unicode="&#x113;" horiz-adv-x="1150" 
d="M219 380h814v-52h-814v-275h828v-53h-890v700h890v-53h-828v-267zM890 828h-576v44h576v-44z" />
    <glyph glyph-name="Ebreve" unicode="&#x114;" horiz-adv-x="1150" 
d="M219 380h814v-52h-814v-275h828v-53h-890v700h890v-53h-828v-267zM602 798q-80 0 -149.5 28.5t-108.5 63.5v47h5q43 -39 109 -65t144 -26q79 0 145 26t109 65h4v-47q-37 -36 -107 -64t-151 -28z" />
    <glyph glyph-name="ebreve" unicode="&#x115;" horiz-adv-x="1150" 
d="M219 380h814v-52h-814v-275h828v-53h-890v700h890v-53h-828v-267zM602 798q-80 0 -149.5 28.5t-108.5 63.5v47h5q43 -39 109 -65t144 -26q79 0 145 26t109 65h4v-47q-37 -36 -107 -64t-151 -28z" />
    <glyph glyph-name="Edotaccent" unicode="&#x116;" horiz-adv-x="1150" 
d="M219 380h814v-52h-814v-275h828v-53h-890v700h890v-53h-828v-267zM648 877v-69h-94v69h94z" />
    <glyph glyph-name="edotaccent" unicode="&#x117;" horiz-adv-x="1150" 
d="M219 380h814v-52h-814v-275h828v-53h-890v700h890v-53h-828v-267zM648 877v-69h-94v69h94z" />
    <glyph glyph-name="Eogonek" unicode="&#x118;" horiz-adv-x="1150" 
d="M1049 -122v-46q-85 -20 -197 -20q-161 0 -196 36q-16 15 -16 40q0 26 17 42q26 26 147 70h-647v700h890v-53h-828v-267h814v-52h-814v-275h828v-53h-169l-57 -23q-101 -39 -123 -60q-7 -8 -7 -20t7 -18q22 -23 156 -23q110 0 195 22z" />
    <glyph glyph-name="eogonek" unicode="&#x119;" horiz-adv-x="1150" 
d="M1049 -122v-46q-85 -20 -197 -20q-161 0 -196 36q-16 15 -16 40q0 26 17 42q26 26 147 70h-647v700h890v-53h-828v-267h814v-52h-814v-275h828v-53h-169l-57 -23q-101 -39 -123 -60q-7 -8 -7 -20t7 -18q22 -23 156 -23q110 0 195 22z" />
    <glyph glyph-name="Ecaron" unicode="&#x11a;" horiz-adv-x="1150" 
d="M872 930v-3l-227 -142h-85l-228 142v3h64l206 -113l206 113h64zM219 380h814v-52h-814v-275h828v-53h-890v700h890v-53h-828v-267z" />
    <glyph glyph-name="ecaron" unicode="&#x11b;" horiz-adv-x="1150" 
d="M872 930v-3l-227 -142h-85l-228 142v3h64l206 -113l206 113h64zM219 380h814v-52h-814v-275h828v-53h-890v700h890v-53h-828v-267z" />
    <glyph glyph-name="Gbreve" unicode="&#x11e;" horiz-adv-x="1270" 
d="M568 356h588v-49q0 -141 -72 -213q-109 -110 -429 -110q-330 0 -454 124q-90 88 -90 242q0 153 90 243q123 123 434 123q147 0 269 -23.5t194 -56.5v-61q-77 40 -199.5 64t-263.5 24q-158 0 -246 -27t-137 -76q-79 -81 -79 -210q0 -132 76 -208q108 -106 406 -106
q290 0 382 93q25 25 38.5 59.5t15.5 57t2 57.5h-525v53zM638 811q-80 0 -149.5 28.5t-108.5 63.5v47h5q43 -39 109 -65t144 -26q79 0 145 26t109 65h4v-47q-37 -36 -107 -64t-151 -28z" />
    <glyph glyph-name="gbreve" unicode="&#x11f;" horiz-adv-x="1270" 
d="M568 356h588v-49q0 -141 -72 -213q-109 -110 -429 -110q-330 0 -454 124q-90 88 -90 242q0 153 90 243q123 123 434 123q147 0 269 -23.5t194 -56.5v-61q-77 40 -199.5 64t-263.5 24q-158 0 -246 -27t-137 -76q-79 -81 -79 -210q0 -132 76 -208q108 -106 406 -106
q290 0 382 93q25 25 38.5 59.5t15.5 57t2 57.5h-525v53zM638 811q-80 0 -149.5 28.5t-108.5 63.5v47h5q43 -39 109 -65t144 -26q79 0 145 26t109 65h4v-47q-37 -36 -107 -64t-151 -28z" />
    <glyph glyph-name="Gdotaccent" unicode="&#x120;" horiz-adv-x="1270" 
d="M568 356h588v-49q0 -141 -72 -213q-109 -110 -429 -110q-330 0 -454 124q-90 88 -90 242q0 153 90 243q123 123 434 123q147 0 269 -23.5t194 -56.5v-61q-77 40 -199.5 64t-263.5 24q-158 0 -246 -27t-137 -76q-79 -81 -79 -210q0 -132 76 -208q108 -106 406 -106
q290 0 382 93q25 25 38.5 59.5t15.5 57t2 57.5h-525v53zM684 890v-69h-94v69h94z" />
    <glyph glyph-name="gdotaccent" unicode="&#x121;" horiz-adv-x="1270" 
d="M568 356h588v-49q0 -141 -72 -213q-109 -110 -429 -110q-330 0 -454 124q-90 88 -90 242q0 153 90 243q123 123 434 123q147 0 269 -23.5t194 -56.5v-61q-77 40 -199.5 64t-263.5 24q-158 0 -246 -27t-137 -76q-79 -81 -79 -210q0 -132 76 -208q108 -106 406 -106
q290 0 382 93q25 25 38.5 59.5t15.5 57t2 57.5h-525v53zM684 890v-69h-94v69h94z" />
    <glyph glyph-name="Gcommaaccent" unicode="&#x122;" horiz-adv-x="1270" 
d="M483 -303l71 66q47 42 62 70.5t12 70.5h64q4 -44 -18.5 -79.5t-81.5 -81.5l-55 -46h-54zM568 356h588v-49q0 -141 -72 -213q-109 -110 -429 -110q-330 0 -454 124q-90 88 -90 242q0 153 90 243q123 123 434 123q147 0 269 -23.5t194 -56.5v-61q-77 40 -199.5 64
t-263.5 24q-158 0 -246 -27t-137 -76q-79 -81 -79 -210q0 -132 76 -208q108 -106 406 -106q290 0 382 93q25 25 38.5 59.5t15.5 57t2 57.5h-525v53z" />
    <glyph glyph-name="gcommaaccent" unicode="&#x123;" horiz-adv-x="1270" 
d="M483 -303l71 66q47 42 62 70.5t12 70.5h64q4 -44 -18.5 -79.5t-81.5 -81.5l-55 -46h-54zM568 356h588v-49q0 -141 -72 -213q-109 -110 -429 -110q-330 0 -454 124q-90 88 -90 242q0 153 90 243q123 123 434 123q147 0 269 -23.5t194 -56.5v-61q-77 40 -199.5 64
t-263.5 24q-158 0 -246 -27t-137 -76q-79 -81 -79 -210q0 -132 76 -208q108 -106 406 -106q290 0 382 93q25 25 38.5 59.5t15.5 57t2 57.5h-525v53z" />
    <glyph glyph-name="Hbar" unicode="&#x126;" horiz-adv-x="1428" 
d="M1346 570v-47h-153v-523h-61v324h-833v-324h-62v523h-155v47h155v130h62v-130h833v130h61v-130h153zM299 378h833v146h-833v-146z" />
    <glyph glyph-name="hbar" unicode="&#x127;" horiz-adv-x="1428" 
d="M1346 570v-47h-153v-523h-61v324h-833v-324h-62v523h-155v47h155v130h62v-130h833v130h61v-130h153zM299 378h833v146h-833v-146z" />
    <glyph glyph-name="Imacron" unicode="&#x12a;" horiz-adv-x="413" 
d="M237 0h-61v700h61v-700zM495 828h-576v44h576v-44z" />
    <glyph glyph-name="imacron" unicode="&#x12b;" horiz-adv-x="413" 
d="M237 0h-61v700h61v-700zM495 828h-576v44h576v-44z" />
    <glyph glyph-name="Ibreve" unicode="&#x12c;" horiz-adv-x="413" 
d="M237 0h-61v700h61v-700zM207 798q-80 0 -149.5 28.5t-108.5 63.5v47h5q43 -39 109 -65t144 -26q79 0 145 26t109 65h4v-47q-37 -36 -107 -64t-151 -28z" />
    <glyph glyph-name="ibreve" unicode="&#x12d;" horiz-adv-x="413" 
d="M237 0h-61v700h61v-700zM207 798q-80 0 -149.5 28.5t-108.5 63.5v47h5q43 -39 109 -65t144 -26q79 0 145 26t109 65h4v-47q-37 -36 -107 -64t-151 -28z" />
    <glyph glyph-name="Iogonek" unicode="&#x12e;" horiz-adv-x="413" 
d="M176 700h61v-700h-25l-49 -21q-101 -42 -120 -61q-8 -8 -8 -21q0 -12 7 -18q23 -22 146 -22q99 0 184 22v-47q-85 -20 -187 -20q-150 0 -186 36q-15 15 -15 39q0 25 17 42q28 28 152 76l23 8v687z" />
    <glyph glyph-name="iogonek" unicode="&#x12f;" horiz-adv-x="413" 
d="M176 700h61v-700h-25l-49 -21q-101 -42 -120 -61q-8 -8 -8 -21q0 -12 7 -18q23 -22 146 -22q99 0 184 22v-47q-85 -20 -187 -20q-150 0 -186 36q-15 15 -15 39q0 25 17 42q28 28 152 76l23 8v687z" />
    <glyph glyph-name="Idotaccent" unicode="&#x130;" horiz-adv-x="413" 
d="M237 0h-61v700h61v-700zM253 877v-69h-94v69h94z" />
    <glyph glyph-name="dotlessi" unicode="&#x131;" horiz-adv-x="413" 
d="M237 0h-61v700h61v-700z" />
    <glyph glyph-name="Kcommaaccent" unicode="&#x136;" horiz-adv-x="1151" 
d="M369 -275l71 66q47 42 62 70.5t12 70.5h64q4 -44 -18.5 -79.5t-81.5 -81.5l-55 -46h-54zM168 700h61v-319h226l532 319h97v-1l-576 -345l586 -353v-1h-102l-540 327h-223v-327h-61v700z" />
    <glyph glyph-name="kcommaaccent" unicode="&#x137;" horiz-adv-x="1151" 
d="M369 -275l71 66q47 42 62 70.5t12 70.5h64q4 -44 -18.5 -79.5t-81.5 -81.5l-55 -46h-54zM168 700h61v-319h226l532 319h97v-1l-576 -345l586 -353v-1h-102l-540 327h-223v-327h-61v700z" />
    <glyph glyph-name="Lacute" unicode="&#x139;" horiz-adv-x="1072" 
d="M167 794v2l265 136h111v-3l-307 -135h-69zM219 54h788v-54h-850v700h62v-646z" />
    <glyph glyph-name="lacute" unicode="&#x13a;" horiz-adv-x="1072" 
d="M167 794v2l265 136h111v-3l-307 -135h-69zM219 54h788v-54h-850v700h62v-646z" />
    <glyph glyph-name="Lcommaaccent" unicode="&#x13b;" horiz-adv-x="1072" 
d="M372 -301l71 66q47 42 62 70.5t12 70.5h64q4 -44 -18.5 -79.5t-81.5 -81.5l-55 -46h-54zM219 54h788v-54h-850v700h62v-646z" />
    <glyph glyph-name="lcommaaccent" unicode="&#x13c;" horiz-adv-x="1072" 
d="M372 -301l71 66q47 42 62 70.5t12 70.5h64q4 -44 -18.5 -79.5t-81.5 -81.5l-55 -46h-54zM219 54h788v-54h-850v700h62v-646z" />
    <glyph glyph-name="Lcaron" unicode="&#x13d;" horiz-adv-x="1072" 
d="M429 515h-33l6 278h57zM219 54h788v-54h-850v700h62v-646z" />
    <glyph glyph-name="lcaron" unicode="&#x13e;" horiz-adv-x="1072" 
d="M429 515h-33l6 278h57zM219 54h788v-54h-850v700h62v-646z" />
    <glyph glyph-name="Ldot" unicode="&#x13f;" horiz-adv-x="1072" 
d="M219 54h788v-54h-850v700h62v-646zM759 458v-69h-94v69h94z" />
    <glyph glyph-name="ldot" unicode="&#x140;" horiz-adv-x="1072" 
d="M219 54h788v-54h-850v700h62v-646zM759 458v-69h-94v69h94z" />
    <glyph glyph-name="Lslash" unicode="&#x141;" horiz-adv-x="1136" 
d="M291 54h788v-54h-850v275l-159 -50v51l159 50v374h62v-355l452 143v-50l-452 -143v-241z" />
    <glyph glyph-name="lslash" unicode="&#x142;" horiz-adv-x="1136" 
d="M291 54h788v-54h-850v275l-159 -50v51l159 50v374h62v-355l452 143v-50l-452 -143v-241z" />
    <glyph glyph-name="Nacute" unicode="&#x143;" 
d="M599 764v2l265 136h111v-3l-307 -135h-69zM247 700l829 -646v646h61v-700h-87l-831 649v-649h-62v700h90z" />
    <glyph glyph-name="nacute" unicode="&#x144;" 
d="M599 764v2l265 136h111v-3l-307 -135h-69zM247 700l829 -646v646h61v-700h-87l-831 649v-649h-62v700h90z" />
    <glyph glyph-name="Ncommaaccent" unicode="&#x145;" 
d="M445 -275l71 66q47 42 62 70.5t12 70.5h64q4 -44 -18.5 -79.5t-81.5 -81.5l-55 -46h-54zM247 700l829 -646v646h61v-700h-87l-831 649v-649h-62v700h90z" />
    <glyph glyph-name="ncommaaccent" unicode="&#x146;" horiz-adv-x="1295" 
d="M445 -275l71 66q47 42 62 70.5t12 70.5h64q4 -44 -18.5 -79.5t-81.5 -81.5l-55 -46h-54zM247 700l829 -646v646h61v-700h-87l-831 649v-649h-62v700h90z" />
    <glyph glyph-name="Ncaron" unicode="&#x147;" 
d="M950 900v-3l-227 -142h-85l-228 142v3h64l206 -113l206 113h64zM247 700l829 -646v646h61v-700h-87l-831 649v-649h-62v700h90z" />
    <glyph glyph-name="ncaron" unicode="&#x148;" 
d="M950 900v-3l-227 -142h-85l-228 142v3h64l206 -113l206 113h64zM247 700l829 -646v646h61v-700h-87l-831 649v-649h-62v700h90z" />
    <glyph glyph-name="Omacron" unicode="&#x14c;" 
d="M935 841h-576v44h576v-44zM647 720q335 0 458 -123q90 -90 90 -247q0 -155 -90 -246q-126 -124 -458 -124q-335 0 -458 123q-90 90 -90 247q0 156 90 246q124 124 458 124zM647 668q-301 0 -409 -106q-76 -76 -76 -212q0 -133 77 -212q106 -106 408 -106t408 106
q77 77 77 212q0 136 -76 212q-108 106 -409 106z" />
    <glyph glyph-name="omacron" unicode="&#x14d;" 
d="M935 841h-576v44h576v-44zM647 720q335 0 458 -123q90 -90 90 -247q0 -155 -90 -246q-126 -124 -458 -124q-335 0 -458 123q-90 90 -90 247q0 156 90 246q124 124 458 124zM647 668q-301 0 -409 -106q-76 -76 -76 -212q0 -133 77 -212q106 -106 408 -106t408 106
q77 77 77 212q0 136 -76 212q-108 106 -409 106z" />
    <glyph glyph-name="Obreve" unicode="&#x14e;" 
d="M647 720q335 0 458 -123q90 -90 90 -247q0 -155 -90 -246q-126 -124 -458 -124q-335 0 -458 123q-90 90 -90 247q0 156 90 246q124 124 458 124zM647 668q-301 0 -409 -106q-76 -76 -76 -212q0 -133 77 -212q106 -106 408 -106t408 106q77 77 77 212q0 136 -76 212
q-108 106 -409 106zM646 811q-80 0 -149.5 28.5t-108.5 63.5v47h5q43 -39 109 -65t144 -26q79 0 145 26t109 65h4v-47q-37 -36 -107 -64t-151 -28z" />
    <glyph glyph-name="obreve" unicode="&#x14f;" 
d="M647 720q335 0 458 -123q90 -90 90 -247q0 -155 -90 -246q-126 -124 -458 -124q-335 0 -458 123q-90 90 -90 247q0 156 90 246q124 124 458 124zM647 668q-301 0 -409 -106q-76 -76 -76 -212q0 -133 77 -212q106 -106 408 -106t408 106q77 77 77 212q0 136 -76 212
q-108 106 -409 106zM646 811q-80 0 -149.5 28.5t-108.5 63.5v47h5q43 -39 109 -65t144 -26q79 0 145 26t109 65h4v-47q-37 -36 -107 -64t-151 -28z" />
    <glyph glyph-name="Ohungarumlaut" unicode="&#x150;" 
d="M459 807v2l222 146h91v-2l-255 -146h-58zM730 807v2l222 146h92v-2l-255 -146h-59zM647 720q335 0 458 -123q90 -90 90 -247q0 -155 -90 -246q-126 -124 -458 -124q-335 0 -458 123q-90 90 -90 247q0 156 90 246q124 124 458 124zM647 668q-301 0 -409 -106
q-76 -76 -76 -212q0 -133 77 -212q106 -106 408 -106t408 106q77 77 77 212q0 136 -76 212q-108 106 -409 106z" />
    <glyph glyph-name="ohungarumlaut" unicode="&#x151;" 
d="M459 807v2l222 146h91v-2l-255 -146h-58zM730 807v2l222 146h92v-2l-255 -146h-59zM647 720q335 0 458 -123q90 -90 90 -247q0 -155 -90 -246q-126 -124 -458 -124q-335 0 -458 123q-90 90 -90 247q0 156 90 246q124 124 458 124zM647 668q-301 0 -409 -106
q-76 -76 -76 -212q0 -133 77 -212q106 -106 408 -106t408 106q77 77 77 212q0 136 -76 212q-108 106 -409 106z" />
    <glyph glyph-name="OE" unicode="&#x152;" horiz-adv-x="1838" 
d="M1737 700v-53h-748v-267h734v-52h-734v-275h748v-53h-1143q-295 0 -406 111q-91 91 -91 239q0 146 91 239q111 111 406 111h1143zM930 53v594h-335q-150 0 -232.5 -25t-128.5 -71q-74 -74 -74 -201q0 -129 74 -201q96 -96 361 -96h335z" />
    <glyph glyph-name="oe" unicode="&#x153;" horiz-adv-x="1838" 
d="M1737 700v-53h-748v-267h734v-52h-734v-275h748v-53h-1143q-295 0 -406 111q-91 91 -91 239q0 146 91 239q111 111 406 111h1143zM930 53v594h-335q-150 0 -232.5 -25t-128.5 -71q-74 -74 -74 -201q0 -129 74 -201q96 -96 361 -96h335z" />
    <glyph glyph-name="Racute" unicode="&#x154;" horiz-adv-x="1234" 
d="M157 700h565q148 0 216 -16.5t105 -52.5q54 -54 54 -146q0 -91 -54 -145q-36 -36 -104 -55.5t-203 -20.5l442 -261v-3h-97l-442 264h-420v-264h-62v700zM219 647v-331h502q122 0 184 15t92 45q38 38 38 108t-40 110q-29 29 -88.5 41t-184.5 12h-503zM511 794v2l265 136
h111v-3l-307 -135h-69z" />
    <glyph glyph-name="racute" unicode="&#x155;" horiz-adv-x="1234" 
d="M157 700h565q148 0 216 -16.5t105 -52.5q54 -54 54 -146q0 -91 -54 -145q-36 -36 -104 -55.5t-203 -20.5l442 -261v-3h-97l-442 264h-420v-264h-62v700zM219 647v-331h502q122 0 184 15t92 45q38 38 38 108t-40 110q-29 29 -88.5 41t-184.5 12h-503zM511 794v2l265 136
h111v-3l-307 -135h-69z" />
    <glyph glyph-name="Rcommaaccent" unicode="&#x156;" horiz-adv-x="1234" 
d="M157 700h565q148 0 216 -16.5t105 -52.5q54 -54 54 -146q0 -91 -54 -145q-36 -36 -104 -55.5t-203 -20.5l442 -261v-3h-97l-442 264h-420v-264h-62v700zM219 647v-331h502q122 0 184 15t92 45q38 38 38 108t-40 110q-29 29 -88.5 41t-184.5 12h-503zM414 -275l71 66
q47 42 62 70.5t12 70.5h64q4 -44 -18.5 -79.5t-81.5 -81.5l-55 -46h-54z" />
    <glyph glyph-name="rcommaaccent" unicode="&#x157;" horiz-adv-x="1234" 
d="M157 700h565q148 0 216 -16.5t105 -52.5q54 -54 54 -146q0 -91 -54 -145q-36 -36 -104 -55.5t-203 -20.5l442 -261v-3h-97l-442 264h-420v-264h-62v700zM219 647v-331h502q122 0 184 15t92 45q38 38 38 108t-40 110q-29 29 -88.5 41t-184.5 12h-503zM414 -275l71 66
q47 42 62 70.5t12 70.5h64q4 -44 -18.5 -79.5t-81.5 -81.5l-55 -46h-54z" />
    <glyph glyph-name="Rcaron" unicode="&#x158;" horiz-adv-x="1234" 
d="M157 700h565q148 0 216 -16.5t105 -52.5q54 -54 54 -146q0 -91 -54 -145q-36 -36 -104 -55.5t-203 -20.5l442 -261v-3h-97l-442 264h-420v-264h-62v700zM219 647v-331h502q122 0 184 15t92 45q38 38 38 108t-40 110q-29 29 -88.5 41t-184.5 12h-503zM863 930v-3
l-227 -142h-85l-228 142v3h64l206 -113l206 113h64z" />
    <glyph glyph-name="rcaron" unicode="&#x159;" horiz-adv-x="1234" 
d="M157 700h565q148 0 216 -16.5t105 -52.5q54 -54 54 -146q0 -91 -54 -145q-36 -36 -104 -55.5t-203 -20.5l442 -261v-3h-97l-442 264h-420v-264h-62v700zM219 647v-331h502q122 0 184 15t92 45q38 38 38 108t-40 110q-29 29 -88.5 41t-184.5 12h-503zM863 930v-3
l-227 -142h-85l-228 142v3h64l206 -113l206 113h64z" />
    <glyph glyph-name="Sacute" unicode="&#x15a;" horiz-adv-x="1158" 
d="M511 807v2l265 136h111v-3l-307 -135h-69zM605 37q289 0 357 68q32 32 32 84q0 51 -26 78q-24 24 -101.5 38.5t-279.5 23.5q-202 10 -292.5 28.5t-124.5 52.5q-38 39 -38 104q0 73 44 117q83 83 387 83q249 0 438 -65v-56q-195 69 -438 69q-275 0 -339 -64
q-29 -29 -29 -80q0 -46 26 -70q25 -25 106 -40t273 -24q217 -11 300.5 -29t117.5 -52q38 -38 38 -110q0 -76 -44 -120q-39 -39 -128.5 -63t-280.5 -24q-299 0 -496 80v56q87 -36 224 -60.5t274 -24.5z" />
    <glyph glyph-name="sacute" unicode="&#x15b;" horiz-adv-x="1158" 
d="M511 807v2l265 136h111v-3l-307 -135h-69zM605 37q289 0 357 68q32 32 32 84q0 51 -26 78q-24 24 -101.5 38.5t-279.5 23.5q-202 10 -292.5 28.5t-124.5 52.5q-38 39 -38 104q0 73 44 117q83 83 387 83q249 0 438 -65v-56q-195 69 -438 69q-275 0 -339 -64
q-29 -29 -29 -80q0 -46 26 -70q25 -25 106 -40t273 -24q217 -11 300.5 -29t117.5 -52q38 -38 38 -110q0 -76 -44 -120q-39 -39 -128.5 -63t-280.5 -24q-299 0 -496 80v56q87 -36 224 -60.5t274 -24.5z" />
    <glyph glyph-name="Scedilla" unicode="&#x15e;" horiz-adv-x="1158" 
d="M605 37q289 0 357 68q32 32 32 84q0 51 -26 78q-24 24 -101.5 38.5t-279.5 23.5q-202 10 -292.5 28.5t-124.5 52.5q-38 39 -38 104q0 73 44 117q83 83 387 83q249 0 438 -65v-56q-195 69 -438 69q-275 0 -339 -64q-29 -29 -29 -80q0 -46 26 -70q25 -25 106 -40t273 -24
q217 -11 300.5 -29t117.5 -52q38 -38 38 -110q0 -76 -44 -120q-85 -85 -392 -87l-206 -179h-84l231 180q-275 6 -454 79v56q87 -36 224 -60.5t274 -24.5z" />
    <glyph glyph-name="scedilla" unicode="&#x15f;" horiz-adv-x="1158" 
d="M605 37q289 0 357 68q32 32 32 84q0 51 -26 78q-24 24 -101.5 38.5t-279.5 23.5q-202 10 -292.5 28.5t-124.5 52.5q-38 39 -38 104q0 73 44 117q83 83 387 83q249 0 438 -65v-56q-195 69 -438 69q-275 0 -339 -64q-29 -29 -29 -80q0 -46 26 -70q25 -25 106 -40t273 -24
q217 -11 300.5 -29t117.5 -52q38 -38 38 -110q0 -76 -44 -120q-85 -85 -392 -87l-206 -179h-84l231 180q-275 6 -454 79v56q87 -36 224 -60.5t274 -24.5z" />
    <glyph glyph-name="Scaron" unicode="&#x160;" horiz-adv-x="1158" 
d="M862 943v-3l-227 -142h-85l-228 142v3h64l206 -113l206 113h64zM605 37q289 0 357 68q32 32 32 84q0 51 -26 78q-24 24 -101.5 38.5t-279.5 23.5q-202 10 -292.5 28.5t-124.5 52.5q-38 39 -38 104q0 73 44 117q83 83 387 83q249 0 438 -65v-56q-195 69 -438 69
q-275 0 -339 -64q-29 -29 -29 -80q0 -46 26 -70q25 -25 106 -40t273 -24q217 -11 300.5 -29t117.5 -52q38 -38 38 -110q0 -76 -44 -120q-39 -39 -128.5 -63t-280.5 -24q-299 0 -496 80v56q87 -36 224 -60.5t274 -24.5z" />
    <glyph glyph-name="scaron" unicode="&#x161;" horiz-adv-x="1158" 
d="M862 943v-3l-227 -142h-85l-228 142v3h64l206 -113l206 113h64zM605 37q289 0 357 68q32 32 32 84q0 51 -26 78q-24 24 -101.5 38.5t-279.5 23.5q-202 10 -292.5 28.5t-124.5 52.5q-38 39 -38 104q0 73 44 117q83 83 387 83q249 0 438 -65v-56q-195 69 -438 69
q-275 0 -339 -64q-29 -29 -29 -80q0 -46 26 -70q25 -25 106 -40t273 -24q217 -11 300.5 -29t117.5 -52q38 -38 38 -110q0 -76 -44 -120q-39 -39 -128.5 -63t-280.5 -24q-299 0 -496 80v56q87 -36 224 -60.5t274 -24.5z" />
    <glyph glyph-name="Tcommaaccent" unicode="&#x162;" horiz-adv-x="1155" 
d="M391 -299l71 66q47 42 62 70.5t12 70.5h64q4 -44 -18.5 -79.5t-81.5 -81.5l-55 -46h-54zM1098 700v-53h-490v-647h-62v647h-490v53h1042z" />
    <glyph glyph-name="Tcommaaccent" unicode="&#x21a;" horiz-adv-x="1155" 
d="M391 -299l71 66q47 42 62 70.5t12 70.5h64q4 -44 -18.5 -79.5t-81.5 -81.5l-55 -46h-54zM1098 700v-53h-490v-647h-62v647h-490v53h1042z" />
    <glyph glyph-name="tcommaaccent" unicode="&#x163;" horiz-adv-x="1155" 
d="M391 -299l71 66q47 42 62 70.5t12 70.5h64q4 -44 -18.5 -79.5t-81.5 -81.5l-55 -46h-54zM1098 700v-53h-490v-647h-62v647h-490v53h1042z" />
    <glyph glyph-name="tcommaaccent" unicode="&#x21b;" horiz-adv-x="1155" 
d="M391 -299l71 66q47 42 62 70.5t12 70.5h64q4 -44 -18.5 -79.5t-81.5 -81.5l-55 -46h-54zM1098 700v-53h-490v-647h-62v647h-490v53h1042z" />
    <glyph glyph-name="Tcaron" unicode="&#x164;" horiz-adv-x="1155" 
d="M846 930v-3l-227 -142h-85l-228 142v3h64l206 -113l206 113h64zM1098 700v-53h-490v-647h-62v647h-490v53h1042z" />
    <glyph glyph-name="tcaron" unicode="&#x165;" horiz-adv-x="1155" 
d="M846 930v-3l-227 -142h-85l-228 142v3h64l206 -113l206 113h64zM1098 700v-53h-490v-647h-62v647h-490v53h1042z" />
    <glyph glyph-name="Umacron" unicode="&#x16a;" horiz-adv-x="1238" 
d="M619 37q264 0 360 94q63 64 63 191v378h62v-390q0 -140 -77 -217q-111 -109 -408 -109q-299 0 -408 109q-77 77 -77 217v390h61v-378q0 -127 64 -191q96 -94 360 -94zM907 798h-576v44h576v-44z" />
    <glyph glyph-name="umacron" unicode="&#x16b;" horiz-adv-x="1238" 
d="M619 37q264 0 360 94q63 64 63 191v378h62v-390q0 -140 -77 -217q-111 -109 -408 -109q-299 0 -408 109q-77 77 -77 217v390h61v-378q0 -127 64 -191q96 -94 360 -94zM907 798h-576v44h576v-44z" />
    <glyph glyph-name="Ubreve" unicode="&#x16c;" horiz-adv-x="1238" 
d="M619 37q264 0 360 94q63 64 63 191v378h62v-390q0 -140 -77 -217q-111 -109 -408 -109q-299 0 -408 109q-77 77 -77 217v390h61v-378q0 -127 64 -191q96 -94 360 -94zM618 768q-80 0 -149.5 28.5t-108.5 63.5v47h5q43 -39 109 -65t144 -26q79 0 145 26t109 65h4v-47
q-37 -36 -107 -64t-151 -28z" />
    <glyph glyph-name="ubreve" unicode="&#x16d;" horiz-adv-x="1238" 
d="M619 37q264 0 360 94q63 64 63 191v378h62v-390q0 -140 -77 -217q-111 -109 -408 -109q-299 0 -408 109q-77 77 -77 217v390h61v-378q0 -127 64 -191q96 -94 360 -94zM618 768q-80 0 -149.5 28.5t-108.5 63.5v47h5q43 -39 109 -65t144 -26q79 0 145 26t109 65h4v-47
q-37 -36 -107 -64t-151 -28z" />
    <glyph glyph-name="Uring" unicode="&#x16e;" horiz-adv-x="1238" 
d="M618 692q-162 0 -214 52q-33 33 -33 88q0 52 33 87q53 52 214 52q163 0 215 -52q33 -33 33 -87q0 -56 -33 -88q-51 -52 -215 -52zM618 732q142 0 181 39q22 22 22 61q0 37 -22 60q-40 40 -181 40q-140 0 -179 -40q-24 -24 -24 -60q0 -38 24 -61q38 -39 179 -39zM619 37
q264 0 360 94q63 64 63 191v378h62v-390q0 -140 -77 -217q-111 -109 -408 -109q-299 0 -408 109q-77 77 -77 217v390h61v-378q0 -127 64 -191q96 -94 360 -94z" />
    <glyph glyph-name="uring" unicode="&#x16f;" horiz-adv-x="1238" 
d="M618 692q-162 0 -214 52q-33 33 -33 88q0 52 33 87q53 52 214 52q163 0 215 -52q33 -33 33 -87q0 -56 -33 -88q-51 -52 -215 -52zM618 732q142 0 181 39q22 22 22 61q0 37 -22 60q-40 40 -181 40q-140 0 -179 -40q-24 -24 -24 -60q0 -38 24 -61q38 -39 179 -39zM619 37
q264 0 360 94q63 64 63 191v378h62v-390q0 -140 -77 -217q-111 -109 -408 -109q-299 0 -408 109q-77 77 -77 217v390h61v-378q0 -127 64 -191q96 -94 360 -94z" />
    <glyph glyph-name="Uhungarumlaut" unicode="&#x170;" horiz-adv-x="1238" 
d="M619 37q264 0 360 94q63 64 63 191v378h62v-390q0 -140 -77 -217q-111 -109 -408 -109q-299 0 -408 109q-77 77 -77 217v390h61v-378q0 -127 64 -191q96 -94 360 -94zM425 764v2l222 146h91v-2l-255 -146h-58zM696 764v2l222 146h92v-2l-255 -146h-59z" />
    <glyph glyph-name="uhungarumlaut" unicode="&#x171;" horiz-adv-x="1238" 
d="M619 37q264 0 360 94q63 64 63 191v378h62v-390q0 -140 -77 -217q-111 -109 -408 -109q-299 0 -408 109q-77 77 -77 217v390h61v-378q0 -127 64 -191q96 -94 360 -94zM425 764v2l222 146h91v-2l-255 -146h-58zM696 764v2l222 146h92v-2l-255 -146h-59z" />
    <glyph glyph-name="Uogonek" unicode="&#x172;" horiz-adv-x="1238" 
d="M619 37q264 0 360 94q63 64 63 191v378h62v-390q0 -140 -77 -217q-110 -108 -401 -109l-19 -7q-108 -41 -128 -61q-8 -7 -8 -20q0 -11 7 -17q23 -23 157 -23q108 0 195 22v-46q-86 -20 -197 -20q-161 0 -197 36q-15 15 -15 40q0 26 17 42q22 23 110 56q-243 12 -337 107
q-77 77 -77 217v390h61v-378q0 -127 64 -191q96 -94 360 -94z" />
    <glyph glyph-name="uogonek" unicode="&#x173;" horiz-adv-x="1238" 
d="M619 37q264 0 360 94q63 64 63 191v378h62v-390q0 -140 -77 -217q-110 -108 -401 -109l-19 -7q-108 -41 -128 -61q-8 -7 -8 -20q0 -11 7 -17q23 -23 157 -23q108 0 195 22v-46q-86 -20 -197 -20q-161 0 -197 36q-15 15 -15 40q0 26 17 42q22 23 110 56q-243 12 -337 107
q-77 77 -77 217v390h61v-378q0 -127 64 -191q96 -94 360 -94z" />
    <glyph glyph-name="Wcircumflex" unicode="&#x174;" horiz-adv-x="1808" 
d="M1265 -4l-364 642l-343 -642h-84l-414 704h71l386 -665l352 660h66l373 -660l372 665h68l-399 -704h-84zM634 795v3l228 142h85l227 -142v-3h-64l-206 112l-206 -112h-64z" />
    <glyph glyph-name="wcircumflex" unicode="&#x175;" horiz-adv-x="1808" 
d="M1265 -4l-364 642l-343 -642h-84l-414 704h71l386 -665l352 660h66l373 -660l372 665h68l-399 -704h-84zM634 795v3l228 142h85l227 -142v-3h-64l-206 112l-206 -112h-64z" />
    <glyph glyph-name="Ycircumflex" unicode="&#x176;" horiz-adv-x="1115" 
d="M119 700l440 -362l439 362h85v-1l-495 -408v-291h-61v291l-495 408v1h87zM288 765v3l228 142h85l227 -142v-3h-64l-206 112l-206 -112h-64z" />
    <glyph glyph-name="ycircumflex" unicode="&#x177;" horiz-adv-x="1115" 
d="M119 700l440 -362l439 362h85v-1l-495 -408v-291h-61v291l-495 408v1h87zM288 765v3l228 142h85l227 -142v-3h-64l-206 112l-206 -112h-64z" />
    <glyph glyph-name="Ydieresis" unicode="&#x178;" horiz-adv-x="1115" 
d="M119 700l440 -362l439 362h85v-1l-495 -408v-291h-61v291l-495 408v1h87zM447 841v-64h-89v64h89zM758 841v-64h-89v64h89z" />
    <glyph glyph-name="Zacute" unicode="&#x179;" horiz-adv-x="1144" 
d="M501 794v2l265 136h111v-3l-307 -135h-69zM117 647v53h949v-21l-853 -626h843v-53h-974v21l854 626h-819z" />
    <glyph glyph-name="zacute" unicode="&#x17a;" horiz-adv-x="1144" 
d="M501 794v2l265 136h111v-3l-307 -135h-69zM117 647v53h949v-21l-853 -626h843v-53h-974v21l854 626h-819z" />
    <glyph glyph-name="Zdotaccent" unicode="&#x17b;" horiz-adv-x="1144" 
d="M117 647v53h949v-21l-853 -626h843v-53h-974v21l854 626h-819zM629 877v-69h-94v69h94z" />
    <glyph glyph-name="zdotaccent" unicode="&#x17c;" horiz-adv-x="1144" 
d="M117 647v53h949v-21l-853 -626h843v-53h-974v21l854 626h-819zM629 877v-69h-94v69h94z" />
    <glyph glyph-name="Zcaron" unicode="&#x17d;" horiz-adv-x="1144" 
d="M853 930v-3l-227 -142h-85l-228 142v3h64l206 -113l206 113h64zM117 647v53h949v-21l-853 -626h843v-53h-974v21l854 626h-819z" />
    <glyph glyph-name="zcaron" unicode="&#x17e;" horiz-adv-x="1144" 
d="M853 930v-3l-227 -142h-85l-228 142v3h64l206 -113l206 113h64zM117 647v53h949v-21l-853 -626h843v-53h-974v21l854 626h-819z" />
    <glyph glyph-name="Aringacute" unicode="&#x1fa;" horiz-adv-x="1222" 
d="M610 894q162 0 215 -52q33 -34 33 -87q0 -55 -33 -88q-35 -35 -120 -46l463 -621h-75l-127 172h-714l-126 -172h-72l462 621q-85 11 -120 46q-34 34 -34 88q0 53 34 87q52 52 214 52zM580 617l-289 -392h636l-289 392h-58zM610 655q142 0 180 38q23 23 23 62q0 37 -23 60
q-39 40 -180 40q-140 0 -180 -40q-23 -25 -23 -60q0 -38 23 -62q39 -38 180 -38zM536 947v2l265 136h111v-3l-307 -135h-69z" />
    <glyph glyph-name="aringacute" unicode="&#x1fb;" horiz-adv-x="1222" 
d="M610 894q162 0 215 -52q33 -34 33 -87q0 -55 -33 -88q-35 -35 -120 -46l463 -621h-75l-127 172h-714l-126 -172h-72l462 621q-85 11 -120 46q-34 34 -34 88q0 53 34 87q52 52 214 52zM580 617l-289 -392h636l-289 392h-58zM610 655q142 0 180 38q23 23 23 62q0 37 -23 60
q-39 40 -180 40q-140 0 -180 -40q-23 -25 -23 -60q0 -38 23 -62q39 -38 180 -38zM536 947v2l265 136h111v-3l-307 -135h-69z" />
    <glyph glyph-name="AEacute" unicode="&#x1fc;" horiz-adv-x="1816" 
d="M965 380h736v-52h-736v-275h750v-53h-807v177h-581l-213 -177h-84l845 700h840v-53h-750v-267zM390 230h518v430zM997 794v2l265 136h111v-3l-307 -135h-69z" />
    <glyph glyph-name="aeacute" unicode="&#x1fd;" horiz-adv-x="1816" 
d="M965 380h736v-52h-736v-275h750v-53h-807v177h-581l-213 -177h-84l845 700h840v-53h-750v-267zM390 230h518v430zM997 794v2l265 136h111v-3l-307 -135h-69z" />
    <glyph glyph-name="Oslashacute" unicode="&#x1fe;" horiz-adv-x="1264" 
d="M99 350q0 151 92 242q123 125 441 125t442 -124q91 -91 91 -243q0 -151 -91 -242q-127 -125 -442 -125q-318 0 -442 124q-91 91 -91 243zM1103 350q0 92 -39 156l-835 -353l15 -15q103 -103 388 -103q284 0 389 103q82 82 82 212zM162 350q0 -93 37 -155l836 351l-15 16
q-103 103 -388 103t-388 -103q-82 -82 -82 -212zM550 807v2l265 136h111v-3l-307 -135h-69z" />
    <glyph glyph-name="oslashacute" unicode="&#x1ff;" horiz-adv-x="1264" 
d="M99 350q0 151 92 242q123 125 441 125t442 -124q91 -91 91 -243q0 -151 -91 -242q-127 -125 -442 -125q-318 0 -442 124q-91 91 -91 243zM1103 350q0 92 -39 156l-835 -353l15 -15q103 -103 388 -103q284 0 389 103q82 82 82 212zM162 350q0 -93 37 -155l836 351l-15 16
q-103 103 -388 103t-388 -103q-82 -82 -82 -212zM550 807v2l265 136h111v-3l-307 -135h-69z" />
    <glyph glyph-name="Scommaaccent" unicode="&#x218;" horiz-adv-x="1158" 
d="M429 -303l71 66q47 42 62 70.5t12 70.5h64q4 -44 -18.5 -79.5t-81.5 -81.5l-55 -46h-54zM605 37q289 0 357 68q32 32 32 84q0 51 -26 78q-24 24 -101.5 38.5t-279.5 23.5q-202 10 -292.5 28.5t-124.5 52.5q-38 39 -38 104q0 73 44 117q83 83 387 83q249 0 438 -65v-56
q-195 69 -438 69q-275 0 -339 -64q-29 -29 -29 -80q0 -46 26 -70q25 -25 106 -40t273 -24q217 -11 300.5 -29t117.5 -52q38 -38 38 -110q0 -76 -44 -120q-39 -39 -128.5 -63t-280.5 -24q-299 0 -496 80v56q87 -36 224 -60.5t274 -24.5z" />
    <glyph glyph-name="scommaaccent" unicode="&#x219;" horiz-adv-x="1158" 
d="M429 -303l71 66q47 42 62 70.5t12 70.5h64q4 -44 -18.5 -79.5t-81.5 -81.5l-55 -46h-54zM605 37q289 0 357 68q32 32 32 84q0 51 -26 78q-24 24 -101.5 38.5t-279.5 23.5q-202 10 -292.5 28.5t-124.5 52.5q-38 39 -38 104q0 73 44 117q83 83 387 83q249 0 438 -65v-56
q-195 69 -438 69q-275 0 -339 -64q-29 -29 -29 -80q0 -46 26 -70q25 -25 106 -40t273 -24q217 -11 300.5 -29t117.5 -52q38 -38 38 -110q0 -76 -44 -120q-39 -39 -128.5 -63t-280.5 -24q-299 0 -496 80v56q87 -36 224 -60.5t274 -24.5z" />
    <glyph glyph-name="circumflex" unicode="&#x2c6;" horiz-adv-x="734" 
d="M97 795v3l228 142h85l227 -142v-3h-64l-206 112l-206 -112h-64z" />
    <glyph glyph-name="caron" unicode="&#x2c7;" horiz-adv-x="734" 
d="M637 930v-3l-227 -142h-85l-228 142v3h64l206 -113l206 113h64z" />
    <glyph glyph-name="breve" unicode="&#x2d8;" horiz-adv-x="711" 
d="M355 798q-80 0 -149.5 28.5t-108.5 63.5v47h5q43 -39 109 -65t144 -26q79 0 145 26t109 65h4v-47q-37 -36 -107 -64t-151 -28z" />
    <glyph glyph-name="dotaccent" unicode="&#x2d9;" horiz-adv-x="436" 
d="M264 877v-69h-94v69h94z" />
    <glyph glyph-name="ring" unicode="&#x2da;" horiz-adv-x="689" 
d="M344 722q-162 0 -214 52q-33 33 -33 88q0 52 33 87q53 52 214 52q163 0 215 -52q33 -33 33 -87q0 -56 -33 -88q-51 -52 -215 -52zM344 762q142 0 181 39q22 22 22 61q0 37 -22 60q-40 40 -181 40q-140 0 -179 -40q-24 -24 -24 -60q0 -38 24 -61q38 -39 179 -39z" />
    <glyph glyph-name="ogonek" unicode="&#x2db;" horiz-adv-x="588" 
d="M480 -122v-46q-86 -20 -197 -20q-161 0 -197 36q-15 15 -15 40q0 26 17 42q30 30 167 75l35 11l39 -13l-72 -26q-108 -41 -128 -61q-8 -7 -8 -20q0 -11 7 -17q23 -23 157 -23q108 0 195 22z" />
    <glyph glyph-name="tilde" unicode="&#x2dc;" horiz-adv-x="732" 
d="M97 870q62 71 135 71q28 0 97 -24l81 -35q52 -22 89 -22t65 17t67 59h4v-53q-62 -71 -135 -71q-34 0 -96 23l-82 36q-52 22 -89 22t-65 -17t-67 -59h-4v53z" />
    <glyph glyph-name="hungarumlaut" unicode="&#x2dd;" horiz-adv-x="752" 
d="M84 794v2l222 146h91v-2l-255 -146h-58zM355 794v2l222 146h92v-2l-255 -146h-59z" />
    <glyph glyph-name="commaaccent" unicode="&#x326;" horiz-adv-x="395" 
d="M75 -301l71 66q47 42 62 70.5t12 70.5h64q4 -44 -18.5 -79.5t-81.5 -81.5l-55 -46h-54z" />
    <glyph glyph-name="Wgrave" unicode="&#x1e80;" horiz-adv-x="1808" 
d="M1265 -4l-364 642l-343 -642h-84l-414 704h71l386 -665l352 660h66l373 -660l372 665h68l-399 -704h-84zM960 796v-2h-69l-307 135v3h111z" />
    <glyph glyph-name="wgrave" unicode="&#x1e81;" horiz-adv-x="1808" 
d="M1265 -4l-364 642l-343 -642h-84l-414 704h71l386 -665l352 660h66l373 -660l372 665h68l-399 -704h-84zM960 796v-2h-69l-307 135v3h111z" />
    <glyph glyph-name="Wacute" unicode="&#x1e82;" horiz-adv-x="1808" 
d="M1265 -4l-364 642l-343 -642h-84l-414 704h71l386 -665l352 660h66l373 -660l372 665h68l-399 -704h-84zM844 794v2l265 136h111v-3l-307 -135h-69z" />
    <glyph glyph-name="wacute" unicode="&#x1e83;" horiz-adv-x="1808" 
d="M1265 -4l-364 642l-343 -642h-84l-414 704h71l386 -665l352 660h66l373 -660l372 665h68l-399 -704h-84zM844 794v2l265 136h111v-3l-307 -135h-69z" />
    <glyph glyph-name="Wdieresis" unicode="&#x1e84;" horiz-adv-x="1808" 
d="M1265 -4l-364 642l-343 -642h-84l-414 704h71l386 -665l352 660h66l373 -660l372 665h68l-399 -704h-84zM1104 871v-64h-89v64h89zM793 871v-64h-89v64h89z" />
    <glyph glyph-name="wdieresis" unicode="&#x1e85;" horiz-adv-x="1808" 
d="M1265 -4l-364 642l-343 -642h-84l-414 704h71l386 -665l352 660h66l373 -660l372 665h68l-399 -704h-84zM1104 871v-64h-89v64h89zM793 871v-64h-89v64h89z" />
    <glyph glyph-name="Ygrave" unicode="&#x1ef2;" horiz-adv-x="1115" 
d="M119 700l440 -362l439 362h85v-1l-495 -408v-291h-61v291l-495 408v1h87zM646 766v-2h-69l-307 135v3h111z" />
    <glyph glyph-name="ygrave" unicode="&#x1ef3;" horiz-adv-x="1115" 
d="M119 700l440 -362l439 362h85v-1l-495 -408v-291h-61v291l-495 408v1h87zM646 766v-2h-69l-307 135v3h111z" />
    <glyph glyph-name="enspace" unicode="&#x2002;" horiz-adv-x="500" 
 />
    <glyph glyph-name="emspace" unicode="&#x2003;" horiz-adv-x="1000" 
 />
    <glyph glyph-name="threeperemspace" unicode="&#x2004;" horiz-adv-x="333" 
 />
    <glyph glyph-name="fourperemspace" unicode="&#x2005;" horiz-adv-x="250" 
 />
    <glyph glyph-name="thinspace" unicode="&#x2009;" horiz-adv-x="133" 
 />
    <glyph glyph-name="hairspace" unicode="&#x200a;" horiz-adv-x="75" 
 />
    <glyph glyph-name="endash" unicode="&#x2013;" horiz-adv-x="1058" 
d="M948 381v-55h-838v55h838z" />
    <glyph glyph-name="emdash" unicode="&#x2014;" horiz-adv-x="1612" 
d="M1502 381v-55h-1392v55h1392z" />
    <glyph glyph-name="quoteleft" unicode="&#x2018;" horiz-adv-x="402" 
d="M306 716h58l-235 -312h-76z" />
    <glyph glyph-name="quoteright" unicode="&#x2019;" horiz-adv-x="402" 
d="M92 404h-58l234 312h77z" />
    <glyph glyph-name="quotesinglbase" unicode="&#x201a;" horiz-adv-x="408" 
d="M52 -184h-58l235 312h76z" />
    <glyph glyph-name="quotedblleft" unicode="&#x201c;" horiz-adv-x="681" 
d="M306 716h57l-235 -314h-75zM586 716h57l-235 -314h-75z" />
    <glyph glyph-name="quotedblright" unicode="&#x201d;" horiz-adv-x="681" 
d="M90 402h-57l235 314h75zM370 402h-57l235 314h75z" />
    <glyph glyph-name="quotedblbase" unicode="&#x201e;" horiz-adv-x="687" 
d="M51 -186h-57l235 314h75zM331 -186h-57l235 314h75z" />
    <glyph glyph-name="dagger" unicode="&#x2020;" horiz-adv-x="645" 
d="M345 154h-45l2 342l-233 -2v43l233 -3l-2 166h45l-3 -166l233 3v-43l-233 2z" />
    <glyph glyph-name="daggerdbl" unicode="&#x2021;" horiz-adv-x="645" 
d="M69 537l233 -3l-2 166h45l-3 -166l233 3v-43l-232 2v-153l232 2v-42l-233 2l3 -166h-45l2 166l-233 -2v42l233 -2v153l-233 -2v43z" />
    <glyph glyph-name="bullet" unicode="&#x2022;" horiz-adv-x="578" 
d="M147 361q0 46 25 71q31 31 117 31t117 -31q25 -24 25 -71t-25 -72q-32 -30 -117 -30t-117 30q-25 26 -25 72z" />
    <glyph glyph-name="ellipsis" unicode="&#x2026;" horiz-adv-x="1088" 
d="M223 0h-86v83h86v-83zM584 0h-86v83h86v-83zM951 0h-86v83h86v-83z" />
    <glyph glyph-name="guilsinglleft" unicode="&#x2039;" horiz-adv-x="525" 
d="M142 358l303 -204h-76l-292 193v22l296 193h75z" />
    <glyph glyph-name="guilsinglright" unicode="&#x203a;" horiz-adv-x="525" 
d="M384 358l-303 204h76l291 -192v-22l-296 -194h-74z" />
    <glyph glyph-name="Euro" unicode="&#x20ac;" horiz-adv-x="1222" 
d="M79 450h145q18 101 75 158q54 54 143.5 81t256.5 27q221 0 428 -61v-58q-196 66 -428 66q-147 0 -227.5 -20.5t-127.5 -67.5q-43 -43 -61 -125h675v-39h-682q-3 -30 -3 -61q0 -34 3 -64h682v-39h-675q15 -78 59 -122q47 -46 128 -67t228 -21q252 0 431 65v-57
q-181 -61 -430 -61q-165 0 -255.5 25.5t-143.5 78.5q-57 57 -75 159h-145l-1 39h140q-3 32 -3 64q0 41 2 61h-138z" />
    <glyph glyph-name="published" unicode="&#x2117;" horiz-adv-x="1403" 
d="M701 -94q-364 0 -499 135q-103 103 -103 307q0 203 104 307q136 136 498 136q364 0 500 -136q103 -103 103 -307q0 -202 -104 -306q-136 -136 -499 -136zM701 -58q344 0 470 124q92 92 92 282t-92 282q-124 124 -470 124t-468 -124q-93 -92 -93 -282t93 -282
q124 -124 468 -124zM784 277h-278v-138h-50v412h328q81 0 127.5 -8.5t76.5 -38.5q33 -33 33 -89q0 -55 -33 -88q-31 -30 -79 -40t-125 -10zM506 322h279q40 0 64 1.5t53 9t44 22.5q22 20 22 60q0 36 -22 60q-15 15 -45 22t-51 8t-65 1h-279v-184z" />
    <glyph glyph-name="servicemark" unicode="&#x2120;" horiz-adv-x="1499" 
d="M1307 711h73v-380h-46v343l-242 -343h-56l-241 341v-341h-46l-1 380h74l242 -345zM580 689v-42q-97 35 -251 35q-139 0 -171 -32q-15 -14 -15 -36q0 -21 13 -33q25 -25 198 -31q191 -8 228 -43q25 -25 25 -67q0 -43 -27 -69q-43 -43 -211 -43q-180 0 -278 39v41
q45 -18 123.5 -30.5t155.5 -12.5q147 0 180 33q15 14 15 39q0 26 -13 39q-27 27 -206 34q-187 8 -222 41q-23 25 -23 61q0 38 24 62q23 23 68 34t136 11q165 0 251 -30z" />
    <glyph glyph-name="trademark" unicode="&#x2122;" horiz-adv-x="1429" 
d="M1310 711v-380h-46v343l-242 -343h-56l-242 343l1 -343h-46l-1 380h74l242 -345l243 345h73zM23 711h552v-43h-253v-337h-48v337h-251v43z" />
    <glyph glyph-name="minus" unicode="&#x2212;" horiz-adv-x="1002" 
d="M894 377v-54h-786v54h786z" />
    <glyph glyph-name="chevron.1_W" unicode="&#xe018;" horiz-adv-x="989" 
d="M181 350l711 -349v-1h-114l-692 344v12l690 344h110v-1z" />
    <glyph glyph-name="chevron.1_E" unicode="&#xe019;" horiz-adv-x="989" 
d="M808 350l-706 349v1h113l689 -344v-12l-693 -344h-113v1z" />
    <glyph glyph-name="arrowhead.1_W" unicode="&#xe034;" horiz-adv-x="1161" 
d="M1075 376v-52h-619l-245 4l729 -327v-1h-123l-751 344v12l747 344h120v-1l-721 -327l244 4h619z" />
    <glyph glyph-name="arrowhead.1_E" unicode="&#xe035;" horiz-adv-x="1161" 
d="M86 376h620l244 -4l-727 327v1h122l750 -344v-12l-749 -344h-118v1l722 327l-244 -4h-620v52z" />
    <glyph glyph-name="arrowshaft.1" unicode="&#xe044;" horiz-adv-x="880" 
d="M86 376h708v-52h-708v52z" />
    <glyph glyph-name="f_f" unicode="&#xfb00;" horiz-adv-x="2246" 
d="M219 369h793v-53h-793v-316h-62v700h869v-53h-807v-278zM1342 369h793v-53h-793v-316h-62v700h869v-53h-807v-278z" />
    <glyph glyph-name="fi" unicode="&#xfb01;" horiz-adv-x="1536" 
d="M1360 0h-61v700h61v-700zM219 369h793v-53h-793v-316h-62v700h869v-53h-807v-278z" />
    <glyph glyph-name="fl" unicode="&#xfb02;" horiz-adv-x="2196" 
d="M1342 54h788v-54h-850v700h62v-646zM219 369h793v-53h-793v-316h-62v700h869v-53h-807v-278z" />
    <glyph glyph-name="f_f_i" unicode="&#xfb03;" horiz-adv-x="2659" 
d="M2483 0h-61v700h61v-700zM219 369h793v-53h-793v-316h-62v700h869v-53h-807v-278zM1342 369h793v-53h-793v-316h-62v700h869v-53h-807v-278z" />
    <glyph glyph-name="f_f_l" unicode="&#xfb04;" horiz-adv-x="3319" 
d="M2465 54h788v-54h-850v700h62v-646zM219 369h793v-53h-793v-316h-62v700h869v-53h-807v-278zM1342 369h793v-53h-793v-316h-62v700h869v-53h-807v-278z" />
    <glyph glyph-name="G.alt" horiz-adv-x="1243" 
d="M640 663q-165 0 -256.5 -25.5t-143.5 -77.5q-78 -80 -78 -210q0 -134 76 -208q106 -106 405 -106q272 0 421 83v184h-509v53h570v-266q-184 -106 -484 -106q-187 0 -291 33.5t-161 90.5q-90 88 -90 242q0 153 90 243q61 60 164 91.5t286 31.5q146 0 268.5 -23.5
t194.5 -56.5v-61q-77 40 -200 64t-262 24z" />
    <glyph glyph-name="Q.alt" horiz-adv-x="1306" 
d="M647 720q335 0 458 -123q90 -90 90 -247q0 -155 -90 -246q-83 -81 -257 -109l309 -142v-3h-107l-292 134q-68 -4 -111 -4q-335 0 -458 123q-90 90 -90 247q0 156 90 246q124 124 458 124zM647 668q-301 0 -409 -106q-76 -76 -76 -212q0 -133 77 -212q106 -106 408 -106
t408 106q77 77 77 212q0 136 -76 212q-108 106 -409 106z" />
    <glyph glyph-name="Gbreve.alt" horiz-adv-x="1243" 
d="M640 663q-165 0 -256.5 -25.5t-143.5 -77.5q-78 -80 -78 -210q0 -134 76 -208q106 -106 405 -106q272 0 421 83v184h-509v53h570v-266q-184 -106 -484 -106q-187 0 -291 33.5t-161 90.5q-90 88 -90 242q0 153 90 243q61 60 164 91.5t286 31.5q146 0 268.5 -23.5
t194.5 -56.5v-61q-77 40 -200 64t-262 24zM638 811q-80 0 -149.5 28.5t-108.5 63.5v47h5q43 -39 109 -65t144 -26q79 0 145 26t109 65h4v-47q-37 -36 -107 -64t-151 -28z" />
    <glyph glyph-name="Gcommaaccent.alt" horiz-adv-x="1243" 
d="M476 -303l71 66q47 42 62 70.5t12 70.5h64q4 -44 -18.5 -79.5t-81.5 -81.5l-55 -46h-54zM640 663q-165 0 -256.5 -25.5t-143.5 -77.5q-78 -80 -78 -210q0 -134 76 -208q106 -106 405 -106q272 0 421 83v184h-509v53h570v-266q-184 -106 -484 -106q-187 0 -291 33.5
t-161 90.5q-90 88 -90 242q0 153 90 243q61 60 164 91.5t286 31.5q146 0 268.5 -23.5t194.5 -56.5v-61q-77 40 -200 64t-262 24z" />
    <glyph glyph-name="Gdotaccent.alt" horiz-adv-x="1243" 
d="M640 663q-165 0 -256.5 -25.5t-143.5 -77.5q-78 -80 -78 -210q0 -134 76 -208q106 -106 405 -106q272 0 421 83v184h-509v53h570v-266q-184 -106 -484 -106q-187 0 -291 33.5t-161 90.5q-90 88 -90 242q0 153 90 243q61 60 164 91.5t286 31.5q146 0 268.5 -23.5
t194.5 -56.5v-61q-77 40 -200 64t-262 24zM684 890v-69h-94v69h94z" />
    <glyph glyph-name="three.alt" horiz-adv-x="1100" 
d="M93 647v53h913v-26l-597 -311l64 7q149 19 253 19q175 0 236 -62q46 -44 46 -120q0 -80 -52 -132q-93 -91 -414 -91q-125 0 -256.5 19.5t-200.5 46.5v56q79 -30 209 -50t250 -20q290 0 365 75q36 36 36 95q0 53 -31 85q-26 25 -75 37t-145 12q-112 0 -279 -16l-150 -14
v23l593 314h-765z" />
    <glyph glyph-name="four.alt" horiz-adv-x="1243" 
d="M934 0h-61v183h-821v24l816 493h98v-1l-770 -465h677v229h61v-228h267v-52h-267v-183z" />
    <glyph glyph-name="colon.alt" horiz-adv-x="361" 
d="M223 114h-86v83h86v-83zM223 502h-86v83h86v-83z" />
    <glyph glyph-name="registered.alt" horiz-adv-x="1403" 
d="M701 -94q-364 0 -499 135q-103 103 -103 307q0 203 104 307q136 136 498 136q364 0 500 -136q103 -103 103 -307q0 -202 -104 -306q-136 -136 -499 -136zM701 -58q344 0 470 124q92 92 92 282t-92 282q-124 124 -470 124t-468 -124q-93 -92 -93 -282t93 -282
q124 -124 468 -124zM436 552h323q82 0 129.5 -9t77.5 -39q34 -33 34 -88q0 -53 -34 -87q-45 -45 -165 -50l219 -137v-3h-76l-217 139h-241v-139h-50v413zM486 323h273q41 0 66 1.5t55 9t45 22.5q22 24 22 60q0 37 -22 59q-21 21 -61 26.5t-105 5.5h-273v-184z" />
    <glyph glyph-name="slash.cap" horiz-adv-x="839" 
d="M107 0h-72l697 700h72z" />
    <glyph glyph-name="plus.cap" horiz-adv-x="1193" 
d="M566 700h61v-321h461v-54h-461v-325h-61v325h-461v54h461v321z" />
    <glyph glyph-name="asterisk.cap" horiz-adv-x="1306" 
d="M133 164l464 185l-464 187v56l492 -204l-2 312h59l-3 -312l494 204v-56l-464 -186l464 -186v-56l-494 204l3 -312h-59l2 312l-492 -204v56z" />
    <glyph glyph-name="NUL" horiz-adv-x="0" 
 />
    <glyph glyph-name="hfjslug" horiz-adv-x="694" 
d="M644 -200h-208l-8 14h-163l-8 -14h-207v303q14 0 23 9.5t9 22.5t-9.5 22.5t-22.5 9.5v554h100l30 79h334l29 -79h101v-921zM400 563v-172h15v78h38v14h-38v66h43v14h-58zM184 563v-172h15v79h47v-79h15v172h-15v-79h-47v79h-15zM460 394q10 -4 21 -4q31 0 31 36v137h-16
v-137q0 -22 -16 -22q-8 0 -20 5v-15zM371 465l-13 3q-4 -18 -8 -30h-1l-16 31q23 21 23 42q0 31 -27 31q-12 0 -20 -9t-8 -22t14 -39q-23 -18 -23 -47q0 -16 8 -26.5t21 -10.5q19 0 29 24h1l12 -24l12 6l-17 32q6 14 13 39zM523 323v-46h8v12l8 8l15 -20h10l-20 26l18 20
h-10l-20 -24h-1v24h-8zM488 292l10 -15h9l-12 17q10 4 10 14q0 15 -17 15h-20v-46h8v15h12zM426 276q10 0 17 7t7 17q0 9 -7 16.5t-17 7.5t-17 -7.5t-7 -16.5q0 -10 7 -17t17 -7zM370 301l-13 22h-9l18 -29v-17h8v17l18 29h-9zM193 323v-46h34v7h-26v13h23v7h-23v12h26v7
h-34zM132 323v-46h8v32l25 -32h7v46h-8v-32l-25 32h-7zM241 323l14 -47h8l11 34h1l11 -34h8l14 47h-8l-10 -35h-1l-11 35h-7l-11 -35h-1l-10 35h-8zM327 479q-12 22 -12 32q0 19 14 19q13 0 13 -19q0 -15 -15 -32zM342 423q-8 -21 -20 -21q-16 0 -16 25q0 19 16 35zM487 299
h-11v17h11q10 0 10 -8q0 -9 -10 -9zM426 283q-16 0 -16 17q0 6 4.5 11.5t11.5 5.5t11.5 -5.5t4.5 -11.5q0 -17 -16 -17z" />
    <glyph glyph-name="g.alt" horiz-adv-x="1243" 
d="M640 663q-165 0 -256.5 -25.5t-143.5 -77.5q-78 -80 -78 -210q0 -134 76 -208q106 -106 405 -106q272 0 421 83v184h-509v53h570v-266q-184 -106 -484 -106q-187 0 -291 33.5t-161 90.5q-90 88 -90 242q0 153 90 243q61 60 164 91.5t286 31.5q146 0 268.5 -23.5
t194.5 -56.5v-61q-77 40 -200 64t-262 24z" />
    <glyph glyph-name="q.alt" horiz-adv-x="1306" 
d="M647 720q335 0 458 -123q90 -90 90 -247q0 -155 -90 -246q-83 -81 -257 -109l309 -142v-3h-107l-292 134q-68 -4 -111 -4q-335 0 -458 123q-90 90 -90 247q0 156 90 246q124 124 458 124zM647 668q-301 0 -409 -106q-76 -76 -76 -212q0 -133 77 -212q106 -106 408 -106
t408 106q77 77 77 212q0 136 -76 212q-108 106 -409 106z" />
    <glyph glyph-name="gbreve.alt" horiz-adv-x="1243" 
d="M640 663q-165 0 -256.5 -25.5t-143.5 -77.5q-78 -80 -78 -210q0 -134 76 -208q106 -106 405 -106q272 0 421 83v184h-509v53h570v-266q-184 -106 -484 -106q-187 0 -291 33.5t-161 90.5q-90 88 -90 242q0 153 90 243q61 60 164 91.5t286 31.5q146 0 268.5 -23.5
t194.5 -56.5v-61q-77 40 -200 64t-262 24zM638 811q-80 0 -149.5 28.5t-108.5 63.5v47h5q43 -39 109 -65t144 -26q79 0 145 26t109 65h4v-47q-37 -36 -107 -64t-151 -28z" />
    <glyph glyph-name="gcommaaccent.alt" horiz-adv-x="1243" 
d="M476 -303l71 66q47 42 62 70.5t12 70.5h64q4 -44 -18.5 -79.5t-81.5 -81.5l-55 -46h-54zM640 663q-165 0 -256.5 -25.5t-143.5 -77.5q-78 -80 -78 -210q0 -134 76 -208q106 -106 405 -106q272 0 421 83v184h-509v53h570v-266q-184 -106 -484 -106q-187 0 -291 33.5
t-161 90.5q-90 88 -90 242q0 153 90 243q61 60 164 91.5t286 31.5q146 0 268.5 -23.5t194.5 -56.5v-61q-77 40 -200 64t-262 24z" />
    <glyph glyph-name="gdotaccent.alt" horiz-adv-x="1243" 
d="M640 663q-165 0 -256.5 -25.5t-143.5 -77.5q-78 -80 -78 -210q0 -134 76 -208q106 -106 405 -106q272 0 421 83v184h-509v53h570v-266q-184 -106 -484 -106q-187 0 -291 33.5t-161 90.5q-90 88 -90 242q0 153 90 243q61 60 164 91.5t286 31.5q146 0 268.5 -23.5
t194.5 -56.5v-61q-77 40 -200 64t-262 24zM684 890v-69h-94v69h94z" />
    <glyph glyph-name="i.dot" horiz-adv-x="423" 
d="M242 0h-61v700h61v-700zM258 877v-69h-94v69h94z" />
    <glyph glyph-name="caron.alt" horiz-adv-x="253" 
d="M130 421h-33l6 278h57z" />
    </font>
</defs>
</svg>
