<?xml version="1.0" standalone="no"?>
<!DOCTYPE svg PUBLIC "-//W3C//DTD SVG 1.1//EN" "http://www.w3.org/Graphics/SVG/1.1/DTD/svg11.dtd" >
<svg>
<metadata>
Created by FontForge 20110222 at Tue Apr 30 03:28:16 2013
 By Orthosie Webmaster
Copyright (C) 2002, 2011 Hoefler &#38; Frere-Jones. http://www.typography.com
</metadata>
<defs>
<font id="IdlewildThin" horiz-adv-x="1152" >
  <font-face 
    font-family="IdlewildThin"
    font-weight="250"
    font-stretch="normal"
    units-per-em="1000"
    panose-1="0 0 0 0 0 0 0 0 0 0"
    ascent="800"
    descent="-200"
    x-height="700"
    cap-height="700"
    bbox="-116 -317 3275 1076"
    underline-thickness="50"
    underline-position="-50"
    unicode-range="U+0020-FB04"
  />
<missing-glyph horiz-adv-x="500" 
d="M0 -200v1000h500v-1000h-500zM71 750l179 -390l179 390h-358zM50 -76l172 376l-172 376v-752zM450 676l-172 -376l172 -376v752zM250 240l-179 -390h358z" />
    <glyph glyph-name=".notdef" horiz-adv-x="500" 
d="M0 -200v1000h500v-1000h-500zM71 750l179 -390l179 390h-358zM50 -76l172 376l-172 376v-752zM450 676l-172 -376l172 -376v752zM250 240l-179 -390h358z" />
    <glyph glyph-name=".null" horiz-adv-x="0" 
 />
    <glyph glyph-name="nonmarkingreturn" horiz-adv-x="333" 
 />
    <glyph glyph-name="space" unicode=" " horiz-adv-x="450" 
 />
    <glyph glyph-name="exclam" unicode="!" horiz-adv-x="427" 
d="M206 208l-8 493h37l-8 -493h-21zM242 0h-57v55h57v-55z" />
    <glyph glyph-name="quotedbl" unicode="&#x22;" horiz-adv-x="533" 
d="M131 377h-22l49 339h34zM361 377h-22l49 339h34z" />
    <glyph glyph-name="numbersign" unicode="#" horiz-adv-x="1153" 
d="M1048 231v-26h-298l-69 -205h-26l67 205h-392l-69 -205h-26l67 205h-242v26h251l79 239h-290v26h298l68 203h29l-68 -203h391l68 203h29l-68 -203h241v-26h-250l-80 -239h290zM418 470l-80 -239h393l79 239h-392z" />
    <glyph glyph-name="dollar" unicode="$" horiz-adv-x="1169" 
d="M430 -158h-31l66 189q-215 15 -359 72v31q92 -35 223 -57.5t273 -22.5q321 0 398 77q31 31 31 78q0 44 -25 69q-29 29 -120 44t-307 24q-206 9 -294.5 27t-120.5 50q-31 31 -31 85q0 56 35 91q77 77 399 77q47 0 69 -1l60 171h30l-59 -173q201 -10 340 -59v-31
q-199 65 -440 65q-307 0 -375 -68q-27 -27 -27 -71q0 -43 23 -66q28 -28 112 -43.5t293 -25.5q225 -11 313 -25.5t124 -50.5q32 -32 32 -89q0 -59 -38 -97q-86 -86 -422 -86q-56 0 -108 3z" />
    <glyph glyph-name="percent" unicode="%" horiz-adv-x="1550" 
d="M100 537q0 74 44 118q60 60 234 60t234 -60q44 -44 44 -118t-44 -118q-60 -60 -234 -60t-234 60q-44 44 -44 118zM629 537q0 64 -39 103q-50 50 -212 50t-212 -50q-39 -39 -39 -103t39 -103q50 -50 212 -50t212 50q39 39 39 103zM1276 700l-959 -700h-43l959 700h43z
M1450 163q0 -74 -44 -118q-60 -60 -234 -60t-234 60q-44 44 -44 118t44 118q60 60 234 60t234 -60q44 -44 44 -118zM921 163q0 -64 39 -103q50 -50 212 -50t212 50q39 39 39 103t-39 103q-50 50 -212 50t-212 -50q-39 -39 -39 -103z" />
    <glyph glyph-name="ampersand" unicode="&#x26;" horiz-adv-x="1341" 
d="M103 185q0 89 52 141q65 65 227 65q58 0 116 -13q-70 36 -100 74.5t-30 88.5q0 66 40 106q69 69 290 69q144 0 267 -27v-29q-127 28 -267 28q-207 0 -268 -61q-32 -32 -32 -86q0 -48 36 -85t113 -75l319 -154q219 149 308 231v-33q-75 -70 -279 -212l436 -210v-3h-52
l-411 194q-44 -30 -66 -44q-121 -80 -221 -122t-210 -42q-153 0 -216 63q-52 52 -52 136zM757 154l82 54l-187 89q-87 41 -139.5 53.5t-141.5 12.5q-57 0 -111 -13.5t-82 -41.5q-44 -44 -44 -123q0 -74 44 -118q53 -53 193 -53q99 0 189 35t197 105z" />
    <glyph glyph-name="quotesingle" unicode="'" horiz-adv-x="303" 
d="M131 377h-22l49 339h34z" />
    <glyph glyph-name="parenleft" unicode="(" horiz-adv-x="582" 
d="M179 349q0 -267 313 -445v-4h-41q-301 171 -301 449t301 449h41v-4q-313 -178 -313 -445z" />
    <glyph glyph-name="parenright" unicode=")" horiz-adv-x="582" 
d="M403 349q0 267 -313 445v4h41q301 -171 301 -449t-301 -449h-41v4q313 178 313 445z" />
    <glyph glyph-name="asterisk" unicode="*" horiz-adv-x="876" 
d="M625 700h34l-198 -228l359 2v-26l-359 2l198 -228h-34l-187 222l-186 -222h-34l197 228l-359 -2v26l359 -2l-197 228h34l186 -223z" />
    <glyph glyph-name="plus" unicode="+" horiz-adv-x="958" 
d="M491 41h-27v294h-364v28h364v294h27v-294h367v-28h-367v-294z" />
    <glyph glyph-name="comma" unicode="," horiz-adv-x="383" 
d="M24 -282h-34l228 331h40z" />
    <glyph glyph-name="hyphen" unicode="-" horiz-adv-x="783" 
d="M673 368v-29h-563v29h563z" />
    <glyph glyph-name="period" unicode="." horiz-adv-x="356" 
d="M206 0h-56v53h56v-53z" />
    <glyph glyph-name="slash" unicode="/" horiz-adv-x="739" 
d="M39 -99h-39l703 898h36z" />
    <glyph glyph-name="zero" unicode="0" horiz-adv-x="1250" 
d="M1154 350q0 -156 -92 -248q-58 -58 -158 -90t-280 -32t-280 32t-158 90q-92 92 -92 248t92 248q58 58 158 90t280 32t280 -32t158 -90q92 -92 92 -248zM1124 350q0 78 -21 133t-69 103q-106 106 -410 106t-410 -106q-48 -48 -69 -103t-21 -133t21 -133t69 -103
q106 -106 410 -106t410 106q48 48 69 103t21 133z" />
    <glyph glyph-name="one" unicode="1" horiz-adv-x="609" 
d="M60 492v31l313 177h36v-700h-29v671z" />
    <glyph glyph-name="two" unicode="2" horiz-adv-x="1131" 
d="M145 631q112 41 226.5 63t281.5 22q262 0 339 -77q38 -38 38 -105q0 -63 -43 -106q-34 -34 -120.5 -56t-287.5 -53q-281 -44 -377 -140q-63 -63 -63 -151h902v-28h-932q0 126 70 196q50 50 141 87.5t264 64.5q189 30 271.5 51t111.5 50q33 33 33 85q0 54 -32 86
q-68 68 -314 68q-286 0 -509 -88v31z" />
    <glyph glyph-name="three" unicode="3" horiz-adv-x="1114" 
d="M112 646q72 27 201 48.5t250 21.5q169 0 257.5 -21t128.5 -61q37 -37 37 -100q0 -61 -45 -106q-25 -25 -75 -43.5t-104 -23.5q57 -3 111.5 -21t84.5 -48q41 -41 41 -107q0 -67 -47 -114t-138 -67t-250 -20q-122 0 -253 21.5t-203 49.5v31q82 -30 212 -52t246 -22
q285 0 365 80q38 38 38 93q0 56 -32 88q-73 73 -347 73h-350v29l350 1q260 0 330 70q36 36 36 88q0 51 -32 83q-71 71 -361 71q-117 0 -246 -21t-205 -52v31z" />
    <glyph glyph-name="four" unicode="4" horiz-adv-x="1226" 
d="M885 700h54v-483h252v-29h-252v-188h-31v188h-846v13zM141 217h767v466z" />
    <glyph glyph-name="five" unicode="5" horiz-adv-x="1151" 
d="M181 671v-301q247 25 395 25q173 0 275 -13.5t147 -58.5q44 -44 44 -119t-50 -125q-45 -45 -136 -70t-280 -25q-271 0 -443 54v31q74 -26 196.5 -41.5t246.5 -15.5q307 0 388 81q48 48 48 110q0 63 -37 100q-38 38 -136 51t-263 13q-133 0 -423 -28v360h859v-28h-831z
" />
    <glyph glyph-name="six" unicode="6" horiz-adv-x="1185" 
d="M606 -20q-177 0 -276.5 25t-147.5 73q-72 72 -72 260q0 169 87 256q62 62 160 92t274 30q216 0 397 -66v-31q-177 69 -397 69q-299 0 -408 -109q-83 -83 -83 -231q0 -73 3 -102q9 50 49 90q49 49 150.5 70t271.5 21q334 0 423 -89q49 -49 49 -133q0 -82 -53 -135
q-47 -47 -146 -68.5t-281 -21.5zM606 8q177 0 269 19t138 65q43 43 43 113q0 71 -43 114q-80 80 -399 80q-321 0 -406 -85q-49 -49 -49 -110q0 -62 43 -105q46 -46 140 -68.5t264 -22.5z" />
    <glyph glyph-name="seven" unicode="7" horiz-adv-x="1055" 
d="M35 672v28h1000v-13l-748 -687h-41l734 672h-945z" />
    <glyph glyph-name="eight" unicode="8" horiz-adv-x="1184" 
d="M592 -20q-166 0 -274.5 17t-160.5 69q-41 41 -41 104q0 60 43 103q56 56 191 74q-123 17 -179 73q-45 45 -45 105q0 64 43 107q49 49 148.5 66t274.5 17t274.5 -17t148.5 -66q43 -43 43 -107q0 -60 -45 -105q-56 -56 -179 -73q135 -18 191 -74q43 -43 43 -103
q0 -63 -41 -104q-52 -52 -160 -69t-275 -17zM156 525q0 -51 37 -88q35 -35 113 -55t162 -20h248q84 0 162 20t113 55q37 37 37 88q0 52 -36 88q-44 44 -139 59t-261 15t-261 -15t-139 -59q-36 -36 -36 -88zM146 170q0 -50 33 -83q47 -47 149.5 -63t263.5 -16t263.5 16
t149.5 63q33 33 33 83t-37 87q-36 36 -117 55.5t-168 19.5h-248q-87 0 -168 -19.5t-117 -55.5q-37 -37 -37 -87z" />
    <glyph glyph-name="nine" unicode="9" horiz-adv-x="1185" 
d="M580 716q177 0 276.5 -25t147.5 -73q72 -72 72 -260q0 -169 -87 -256q-62 -62 -160 -92t-274 -30q-240 0 -418 69v31q177 -72 418 -72q299 0 408 109q83 83 83 231q0 62 -4 102q-8 -50 -48 -90q-49 -49 -150.5 -70t-271.5 -21q-334 0 -423 89q-49 49 -49 133q0 82 53 135
q47 47 146 68.5t281 21.5zM580 688q-177 0 -269 -19t-138 -65q-43 -43 -43 -113q0 -71 43 -114q80 -80 399 -80q321 0 406 85q49 49 49 110q0 62 -43 105q-46 46 -140 68.5t-264 22.5z" />
    <glyph glyph-name="colon" unicode=":" horiz-adv-x="357" 
d="M207 0h-57v55h57v-55zM207 390h-57v55h57v-55z" />
    <glyph glyph-name="semicolon" unicode=";" horiz-adv-x="383" 
d="M258 390h-56v53h56v-53zM24 -282h-34l228 331h40z" />
    <glyph glyph-name="less" unicode="&#x3c;" horiz-adv-x="818" 
d="M718 76v-32l-618 290v29l618 290v-32l-587 -273z" />
    <glyph glyph-name="equal" unicode="=" horiz-adv-x="1008" 
d="M888 520v-28h-768v28h768zM888 232v-28h-768v28h768z" />
    <glyph glyph-name="greater" unicode="&#x3e;" horiz-adv-x="818" 
d="M100 44v32l587 272l-587 273v32l618 -290v-29z" />
    <glyph glyph-name="question" unicode="?" horiz-adv-x="1006" 
d="M412 207v165l103 4q172 4 251 20.5t112 49.5q31 31 31 82q0 56 -31 87q-71 71 -371 71q-243 0 -457 -45v30q195 43 457 43q314 0 393 -79q40 -40 40 -105t-38 -103q-37 -37 -125.5 -56.5t-261.5 -23.5l-76 -4v-136h-27zM453 0h-57v55h57v-55z" />
    <glyph glyph-name="at" unicode="@" horiz-adv-x="1583" 
d="M801 716q418 0 576 -158q106 -106 106 -295q0 -146 -73 -219q-54 -54 -143 -54q-69 0 -112.5 31.5t-53.5 90.5q-45 -55 -139 -88.5t-214 -33.5q-199 0 -258 59q-34 34 -34 87q0 48 28 76q29 29 88.5 44t179.5 15h346v58q0 43 -16.5 71t-52 42.5t-78.5 19.5t-108 5
q-160 0 -316 -37v27q171 36 315 36q112 0 174.5 -20t85.5 -56.5t23 -99.5v-167q0 -132 143 -132q76 0 123 47q62 62 62 198q0 179 -97 276q-149 149 -557 149q-191 0 -331.5 -43.5t-209.5 -112.5q-93 -93 -93 -265q0 -124 64 -267h-32q-62 145 -62 266q0 183 104 287
q78 78 221 120.5t341 42.5zM509 198q-24 -24 -24 -62q0 -41 26 -67q53 -53 241 -53q122 0 215 36.5t131 99.5v93h-344q-198 0 -245 -47z" />
    <glyph glyph-name="A" unicode="A" horiz-adv-x="1240" 
d="M640 704l535 -704h-35l-149 195h-744l-148 -195h-34l535 704h40zM619 683l-350 -460h701z" />
    <glyph glyph-name="B" unicode="B" horiz-adv-x="1233" 
d="M166 0v700h560q139 0 217 -15t121 -58q41 -41 41 -107q0 -133 -189 -165q204 -25 204 -171q0 -64 -45 -109t-129 -60t-218 -15h-562zM1056 276q-40 40 -119.5 52t-195.5 12h-546v-312h534q141 0 213 13.5t112 53.5q36 36 36 90q0 57 -34 91zM1043 607q-39 39 -109.5 52
t-211.5 13h-527v-304h545q133 0 199 15.5t102 51.5q34 34 34 84q0 56 -32 88z" />
    <glyph glyph-name="C" unicode="C" horiz-adv-x="1197" 
d="M641 -16q-324 0 -448 124q-90 90 -90 242t90 242q124 124 448 124q134 0 253 -26t195 -60v-32q-79 39 -199.5 64.5t-248.5 25.5q-313 0 -429 -116q-79 -79 -79 -222t79 -222q116 -116 429 -116q128 0 248.5 25.5t199.5 64.5v-32q-76 -34 -195 -60t-253 -26z" />
    <glyph glyph-name="D" unicode="D" horiz-adv-x="1246" 
d="M1143 350q0 -144 -93 -237q-113 -113 -437 -113h-447v700h447q324 0 437 -113q93 -93 93 -237zM195 28h418q313 0 417 104q83 83 83 218t-83 218q-104 104 -417 104h-418v-644z" />
    <glyph glyph-name="E" unicode="E" 
d="M195 368h840v-28h-840v-312h854v-28h-883v700h883v-28h-854v-304z" />
    <glyph glyph-name="F" unicode="F" horiz-adv-x="1131" 
d="M195 358h819v-28h-819v-330h-29v700h862v-28h-833v-314z" />
    <glyph glyph-name="G" unicode="G" horiz-adv-x="1282" 
d="M570 345h587v-38q0 -144 -70 -214q-109 -109 -428 -109q-327 0 -450 123q-90 90 -90 243t90 243q57 57 153.5 90t270.5 33q146 0 268 -23.5t195 -56.5v-32q-77 38 -199.5 61t-263.5 23q-166 0 -255 -28.5t-143 -82.5q-86 -86 -86 -227q0 -142 83 -225q113 -113 428 -113
q156 0 254.5 24t151.5 77q23 23 36.5 49t18.5 58t6 48.5t1 48.5h-558v28z" />
    <glyph glyph-name="H" unicode="H" horiz-adv-x="1286" 
d="M195 368h896v332h29v-700h-29v340h-896v-340h-29v700h29v-332z" />
    <glyph glyph-name="I" unicode="I" horiz-adv-x="405" 
d="M217 0h-29v700h29v-700z" />
    <glyph glyph-name="J" unicode="J" horiz-adv-x="929" 
d="M758 700h29v-353q0 -105 -12.5 -164t-56.5 -103q-45 -45 -111 -68.5t-172 -23.5q-181 0 -367 77v30q182 -79 369 -79q177 0 260 83q39 39 50 94t11 150v357z" />
    <glyph glyph-name="K" unicode="K" horiz-adv-x="1160" 
d="M180 700h28v-332h254l566 332h51l-589 -346l600 -354h-54l-573 340h-255v-340h-28v700z" />
    <glyph glyph-name="L" unicode="L" horiz-adv-x="1081" 
d="M195 28h818v-28h-847v700h29v-672z" />
    <glyph glyph-name="M" unicode="M" horiz-adv-x="1551" 
d="M1385 700v-700h-29v679l-563 -679h-36l-562 679v-679h-29v700h48l561 -679l563 679h47z" />
    <glyph glyph-name="N" unicode="N" horiz-adv-x="1301" 
d="M207 700l899 -675v675h29v-700h-41l-899 675v-675h-29v700h41z" />
    <glyph glyph-name="O" unicode="O" horiz-adv-x="1300" 
d="M650 720q336 0 458 -122q89 -89 89 -248q0 -156 -90 -246q-124 -124 -457 -124q-335 0 -458 123q-89 89 -89 247q0 157 90 247q123 123 457 123zM650 692q-321 0 -434 -113q-83 -83 -83 -229t83 -229q113 -113 434 -113q320 0 433 113q84 84 84 229q0 147 -82 229
q-113 113 -435 113z" />
    <glyph glyph-name="P" unicode="P" horiz-adv-x="1193" 
d="M719 275h-524v-275h-29v700h553q152 0 226 -17.5t114 -57.5q49 -49 49 -138q0 -88 -49 -137q-40 -40 -114 -57.5t-226 -17.5zM195 303h522q140 0 211.5 14.5t102.5 45.5q47 47 47 124q0 78 -47 125q-31 31 -102.5 45.5t-211.5 14.5h-522v-369z" />
    <glyph glyph-name="Q" unicode="Q" horiz-adv-x="1324" 
d="M650 720q336 0 458 -122q89 -89 89 -248q0 -156 -90 -246l-7 -7l158 -80v-31l-182 91q-131 -97 -426 -97q-335 0 -458 123q-89 89 -89 247q0 157 90 247q123 123 457 123zM650 692q-321 0 -434 -113q-83 -83 -83 -229t83 -229q113 -113 434 -113q274 0 398 84l-329 166
v32l353 -179q8 6 12 10q83 83 83 229q0 147 -82 229q-113 113 -435 113z" />
    <glyph glyph-name="R" unicode="R" horiz-adv-x="1247" 
d="M166 700h558q151 0 220.5 -15.5t104.5 -50.5q54 -54 54 -143t-52 -141q-37 -37 -108.5 -56t-218.5 -19h-10l468 -272v-3h-50l-468 275h-469v-275h-29v700zM195 672v-369h527q137 0 206.5 17t102.5 50q42 42 42 121t-44 123q-32 32 -98.5 45t-208.5 13h-527z" />
    <glyph glyph-name="S" unicode="S" horiz-adv-x="1163" 
d="M609 13q305 0 382 77q37 37 37 96q0 58 -30 88q-26 26 -109.5 42.5t-296.5 26.5q-201 9 -293.5 28t-124.5 51q-37 37 -37 99q0 69 42 111q82 82 386 82q241 0 439 -64v-30q-200 66 -440 66q-290 0 -363 -73q-34 -34 -34 -91q0 -50 30 -80q28 -28 116.5 -44.5t291.5 -26.5
q219 -11 301 -28.5t115 -50.5q37 -37 37 -106q0 -71 -43 -114q-24 -24 -57.5 -40.5t-124.5 -31.5t-226 -15q-291 0 -498 81v30q91 -36 225 -59.5t275 -23.5z" />
    <glyph glyph-name="T" unicode="T" horiz-adv-x="1153" 
d="M1096 700v-28h-505v-672h-29v672h-505v28h1039z" />
    <glyph glyph-name="U" unicode="U" horiz-adv-x="1244" 
d="M622 12q280 0 382 102q69 69 69 207v379h29v-389q0 -77 -18 -128t-58 -91q-108 -108 -404 -108t-404 108q-40 40 -58 91t-18 128v389h29v-379q0 -138 69 -207q102 -102 382 -102z" />
    <glyph glyph-name="V" unicode="V" horiz-adv-x="1210" 
d="M1145 700l-521 -704h-38l-521 704h38l502 -683l503 683h37z" />
    <glyph glyph-name="W" unicode="W" horiz-adv-x="1812" 
d="M1708 700h34l-405 -704h-41l-395 669l-365 -669h-41l-425 704h36l410 -684l368 679h36l397 -679z" />
    <glyph glyph-name="X" unicode="X" horiz-adv-x="1178" 
d="M98 700h45l446 -331l445 331h46l-470 -347l478 -353h-45l-455 337l-452 -337h-46l477 353z" />
    <glyph glyph-name="Y" unicode="Y" horiz-adv-x="1111" 
d="M556 319l471 381h44l-501 -406v-294h-29v294l-501 406h44z" />
    <glyph glyph-name="Z" unicode="Z" horiz-adv-x="1150" 
d="M125 673v27h943v-9l-904 -663h894v-28h-968v9l905 664h-870z" />
    <glyph glyph-name="bracketleft" unicode="[" horiz-adv-x="679" 
d="M190 -100v897h409v-27h-382v-842h382v-28h-409z" />
    <glyph glyph-name="backslash" unicode="\" horiz-adv-x="739" 
d="M739 -99h-39l-700 898h36z" />
    <glyph glyph-name="bracketright" unicode="]" horiz-adv-x="679" 
d="M489 797v-897h-409v27h382v842h-382v28h409z" />
    <glyph glyph-name="asciicircum" unicode="^" horiz-adv-x="791" 
d="M125 262v2l238 436h43l260 -436v-2h-35l-246 417l-225 -417h-35z" />
    <glyph glyph-name="underscore" unicode="_" horiz-adv-x="1182" 
d="M1187 -13v-29h-1192v29h1192z" />
    <glyph glyph-name="grave" unicode="`" horiz-adv-x="533" 
d="M433 802v-2h-39l-294 130v2h61z" />
    <glyph glyph-name="a" unicode="a" horiz-adv-x="1240" 
d="M640 704l535 -704h-35l-149 195h-744l-148 -195h-34l535 704h40zM619 683l-350 -460h701z" />
    <glyph glyph-name="b" unicode="b" horiz-adv-x="1233" 
d="M166 0v700h560q139 0 217 -15t121 -58q41 -41 41 -107q0 -133 -189 -165q204 -25 204 -171q0 -64 -45 -109t-129 -60t-218 -15h-562zM1056 276q-40 40 -119.5 52t-195.5 12h-546v-312h534q141 0 213 13.5t112 53.5q36 36 36 90q0 57 -34 91zM1043 607q-39 39 -109.5 52
t-211.5 13h-527v-304h545q133 0 199 15.5t102 51.5q34 34 34 84q0 56 -32 88z" />
    <glyph glyph-name="c" unicode="c" horiz-adv-x="1197" 
d="M641 -16q-324 0 -448 124q-90 90 -90 242t90 242q124 124 448 124q134 0 253 -26t195 -60v-32q-79 39 -199.5 64.5t-248.5 25.5q-313 0 -429 -116q-79 -79 -79 -222t79 -222q116 -116 429 -116q128 0 248.5 25.5t199.5 64.5v-32q-76 -34 -195 -60t-253 -26z" />
    <glyph glyph-name="d" unicode="d" horiz-adv-x="1246" 
d="M1143 350q0 -144 -93 -237q-113 -113 -437 -113h-447v700h447q324 0 437 -113q93 -93 93 -237zM195 28h418q313 0 417 104q83 83 83 218t-83 218q-104 104 -417 104h-418v-644z" />
    <glyph glyph-name="e" unicode="e" 
d="M195 368h840v-28h-840v-312h854v-28h-883v700h883v-28h-854v-304z" />
    <glyph glyph-name="f" unicode="f" horiz-adv-x="1131" 
d="M195 358h819v-28h-819v-330h-29v700h862v-28h-833v-314z" />
    <glyph glyph-name="g" unicode="g" horiz-adv-x="1282" 
d="M570 345h587v-38q0 -144 -70 -214q-109 -109 -428 -109q-327 0 -450 123q-90 90 -90 243t90 243q57 57 153.5 90t270.5 33q146 0 268 -23.5t195 -56.5v-32q-77 38 -199.5 61t-263.5 23q-166 0 -255 -28.5t-143 -82.5q-86 -86 -86 -227q0 -142 83 -225q113 -113 428 -113
q156 0 254.5 24t151.5 77q23 23 36.5 49t18.5 58t6 48.5t1 48.5h-558v28z" />
    <glyph glyph-name="h" unicode="h" horiz-adv-x="1286" 
d="M195 368h896v332h29v-700h-29v340h-896v-340h-29v700h29v-332z" />
    <glyph glyph-name="i" unicode="i" horiz-adv-x="405" 
d="M217 0h-29v700h29v-700z" />
    <glyph glyph-name="j" unicode="j" horiz-adv-x="929" 
d="M758 700h29v-353q0 -105 -12.5 -164t-56.5 -103q-45 -45 -111 -68.5t-172 -23.5q-181 0 -367 77v30q182 -79 369 -79q177 0 260 83q39 39 50 94t11 150v357z" />
    <glyph glyph-name="k" unicode="k" horiz-adv-x="1160" 
d="M180 700h28v-332h254l566 332h51l-589 -346l600 -354h-54l-573 340h-255v-340h-28v700z" />
    <glyph glyph-name="l" unicode="l" horiz-adv-x="1081" 
d="M195 28h818v-28h-847v700h29v-672z" />
    <glyph glyph-name="m" unicode="m" horiz-adv-x="1551" 
d="M1385 700v-700h-29v679l-563 -679h-36l-562 679v-679h-29v700h48l561 -679l563 679h47z" />
    <glyph glyph-name="n" unicode="n" horiz-adv-x="1301" 
d="M207 700l899 -675v675h29v-700h-41l-899 675v-675h-29v700h41z" />
    <glyph glyph-name="o" unicode="o" horiz-adv-x="1300" 
d="M650 720q336 0 458 -122q89 -89 89 -248q0 -156 -90 -246q-124 -124 -457 -124q-335 0 -458 123q-89 89 -89 247q0 157 90 247q123 123 457 123zM650 692q-321 0 -434 -113q-83 -83 -83 -229t83 -229q113 -113 434 -113q320 0 433 113q84 84 84 229q0 147 -82 229
q-113 113 -435 113z" />
    <glyph glyph-name="p" unicode="p" horiz-adv-x="1193" 
d="M719 275h-524v-275h-29v700h553q152 0 226 -17.5t114 -57.5q49 -49 49 -138q0 -88 -49 -137q-40 -40 -114 -57.5t-226 -17.5zM195 303h522q140 0 211.5 14.5t102.5 45.5q47 47 47 124q0 78 -47 125q-31 31 -102.5 45.5t-211.5 14.5h-522v-369z" />
    <glyph glyph-name="q" unicode="q" horiz-adv-x="1324" 
d="M650 720q336 0 458 -122q89 -89 89 -248q0 -156 -90 -246l-7 -7l158 -80v-31l-182 91q-131 -97 -426 -97q-335 0 -458 123q-89 89 -89 247q0 157 90 247q123 123 457 123zM650 692q-321 0 -434 -113q-83 -83 -83 -229t83 -229q113 -113 434 -113q274 0 398 84l-329 166
v32l353 -179q8 6 12 10q83 83 83 229q0 147 -82 229q-113 113 -435 113z" />
    <glyph glyph-name="r" unicode="r" horiz-adv-x="1247" 
d="M166 700h558q151 0 220.5 -15.5t104.5 -50.5q54 -54 54 -143t-52 -141q-37 -37 -108.5 -56t-218.5 -19h-10l468 -272v-3h-50l-468 275h-469v-275h-29v700zM195 672v-369h527q137 0 206.5 17t102.5 50q42 42 42 121t-44 123q-32 32 -98.5 45t-208.5 13h-527z" />
    <glyph glyph-name="s" unicode="s" horiz-adv-x="1163" 
d="M609 13q305 0 382 77q37 37 37 96q0 58 -30 88q-26 26 -109.5 42.5t-296.5 26.5q-201 9 -293.5 28t-124.5 51q-37 37 -37 99q0 69 42 111q82 82 386 82q241 0 439 -64v-30q-200 66 -440 66q-290 0 -363 -73q-34 -34 -34 -91q0 -50 30 -80q28 -28 116.5 -44.5t291.5 -26.5
q219 -11 301 -28.5t115 -50.5q37 -37 37 -106q0 -71 -43 -114q-24 -24 -57.5 -40.5t-124.5 -31.5t-226 -15q-291 0 -498 81v30q91 -36 225 -59.5t275 -23.5z" />
    <glyph glyph-name="t" unicode="t" horiz-adv-x="1153" 
d="M1096 700v-28h-505v-672h-29v672h-505v28h1039z" />
    <glyph glyph-name="u" unicode="u" horiz-adv-x="1244" 
d="M622 12q280 0 382 102q69 69 69 207v379h29v-389q0 -77 -18 -128t-58 -91q-108 -108 -404 -108t-404 108q-40 40 -58 91t-18 128v389h29v-379q0 -138 69 -207q102 -102 382 -102z" />
    <glyph glyph-name="v" unicode="v" horiz-adv-x="1210" 
d="M1145 700l-521 -704h-38l-521 704h38l502 -683l503 683h37z" />
    <glyph glyph-name="w" unicode="w" horiz-adv-x="1812" 
d="M1708 700h34l-405 -704h-41l-395 669l-365 -669h-41l-425 704h36l410 -684l368 679h36l397 -679z" />
    <glyph glyph-name="x" unicode="x" horiz-adv-x="1178" 
d="M98 700h45l446 -331l445 331h46l-470 -347l478 -353h-45l-455 337l-452 -337h-46l477 353z" />
    <glyph glyph-name="y" unicode="y" horiz-adv-x="1111" 
d="M556 319l471 381h44l-501 -406v-294h-29v294l-501 406h44z" />
    <glyph glyph-name="z" unicode="z" horiz-adv-x="1150" 
d="M125 673v27h943v-9l-904 -663h894v-28h-968v9l905 664h-870z" />
    <glyph glyph-name="braceleft" unicode="{" horiz-adv-x="869" 
d="M176 349q121 -13 161.5 -55t40.5 -127v-44q0 -70 6.5 -101.5t32.5 -57.5q49 -49 204 -49q114 0 198 13v-27q-86 -12 -192 -12q-102 0 -153 14t-82 45q-29 29 -35.5 65t-6.5 112v39q0 43 -8 70t-34.5 51.5t-81 36.5t-142.5 15l-34 1v22l34 1q88 3 142.5 15t81 36.5
t34.5 51.5t8 70v39q0 52 1.5 76t11 52.5t29.5 48.5q31 31 82 45t153 14q106 0 192 -12v-27q-84 13 -198 13q-155 0 -204 -49q-26 -26 -32.5 -57.5t-6.5 -101.5v-44q0 -85 -40.5 -127t-161.5 -55z" />
    <glyph glyph-name="bar" unicode="|" horiz-adv-x="611" 
d="M321 -125h-31v953h31v-953z" />
    <glyph glyph-name="braceright" unicode="}" horiz-adv-x="869" 
d="M693 349q-121 13 -161.5 55t-40.5 127v44q0 70 -6.5 101.5t-32.5 57.5q-49 49 -204 49q-114 0 -198 -13v27q86 12 192 12q102 0 153 -14t82 -45q29 -29 35.5 -65t6.5 -112v-39q0 -43 8 -70t34.5 -51.5t81 -36.5t142.5 -15l34 -1v-22l-34 -1q-88 -3 -142.5 -15t-81 -36.5
t-34.5 -51.5t-8 -70v-39q0 -52 -1.5 -76t-11 -52.5t-29.5 -48.5q-31 -31 -82 -45t-153 -14q-106 0 -192 12v27q84 -13 198 -13q155 0 204 49q26 26 32.5 57.5t6.5 101.5v44q0 85 40.5 127t161.5 55z" />
    <glyph glyph-name="asciitilde" unicode="~" horiz-adv-x="846" 
d="M98 372q70 87 157 87q55 0 120 -33l103 -53q66 -33 114 -33q44 0 79 21.5t75 69.5h3v-36q-70 -87 -157 -87q-59 0 -120 33l-103 53q-64 33 -114 33q-44 0 -79 -21.5t-75 -69.5h-3v36z" />
    <glyph glyph-name="uni00A0" unicode="&#xa0;" horiz-adv-x="450" 
 />
    <glyph glyph-name="exclamdown" unicode="&#xa1;" horiz-adv-x="427" 
d="M221 493l8 -493h-37l8 493h21zM185 701h57v-55h-57v55z" />
    <glyph glyph-name="cent" unicode="&#xa2;" horiz-adv-x="910" 
d="M363 -52h-31l53 165q-152 19 -209 77q-62 62 -62 159q0 98 64 162q79 79 311 79h13l51 161h30l-51 -162q133 -8 239 -40v-31q-131 45 -271 45q-229 0 -301 -72q-55 -55 -55 -142q0 -85 55 -140q39 -39 120.5 -56t158.5 -17q168 0 293 44v-31q-135 -41 -282 -41
q-36 0 -75 3z" />
    <glyph glyph-name="sterling" unicode="&#xa3;" horiz-adv-x="1233" 
d="M97 360h192q0 68 3 105t19 82t49 78q50 50 138.5 70.5t227.5 20.5q201 0 378 -50v-31q-74 23 -180 38t-200 15q-260 0 -343 -83q-41 -41 -52 -97.5t-11 -147.5h681v-28h-681v-303h816v-29h-1037v18l192 11v303h-192v28z" />
    <glyph glyph-name="yen" unicode="&#xa5;" horiz-adv-x="1162" 
d="M155 306v26h391l-471 368h44l465 -365l459 365h44l-466 -368h387v-26h-410v-132h410v-26h-410v-148h-29v148h-414v26h414v132h-414z" />
    <glyph glyph-name="section" unicode="&#xa7;" horiz-adv-x="1380" 
d="M24 84q142 -40 296 -61l114 399q23 80 44.5 126.5t55.5 80.5q52 52 131 70t206 18q232 0 484 -70v-30q-146 41 -296 60l-114 -398q-23 -80 -44.5 -126.5t-55.5 -80.5q-52 -52 -131 -70t-206 -18q-232 0 -484 70v30zM461 411l-112 -391q81 -10 159 -10q122 0 196 18
t118 62q54 54 96 200l112 391q-97 10 -159 10q-122 0 -196 -18t-118 -62q-54 -54 -96 -200z" />
    <glyph glyph-name="dieresis" unicode="&#xa8;" horiz-adv-x="563" 
d="M158 866v-47h-58v47h58zM463 866v-47h-58v47h58z" />
    <glyph glyph-name="copyright" unicode="&#xa9;" horiz-adv-x="1405" 
d="M702 -95q-362 0 -495 133q-104 104 -104 310q0 204 105 309q134 134 494 134q363 0 496 -133q104 -104 104 -310q0 -204 -105 -309q-134 -134 -495 -134zM702 -68q350 0 475 125q96 96 96 291t-96 291q-125 125 -475 125q-349 0 -474 -125q-96 -96 -96 -291t96 -291
q125 -125 474 -125zM404 348q0 89 51 140q70 70 257 70q142 0 255 -47v-30q-107 49 -255 49q-173 0 -234 -61q-44 -44 -44 -121t44 -121q61 -61 234 -61q148 0 255 49v-30q-113 -47 -255 -47q-187 0 -257 70q-51 51 -51 140z" />
    <glyph glyph-name="ordfeminine" unicode="&#xaa;" horiz-adv-x="952" 
d="M455 706h40l367 -487h-35l-103 136h-498l-102 -136h-34zM474 685l-227 -302h456zM70 0v26h812v-26h-812z" />
    <glyph glyph-name="guillemotleft" unicode="&#xab;" horiz-adv-x="850" 
d="M114 358l320 -204h-43l-311 197v13l311 198h41zM450 358l320 -204h-43l-311 197v13l311 198h41z" />
    <glyph glyph-name="registered" unicode="&#xae;" horiz-adv-x="808" 
d="M733 489q0 -114 -61 -175q-80 -80 -268 -80t-268 80q-61 61 -61 175t61 175q80 80 268 80t268 -80q61 -61 61 -175zM101 489q0 -106 53 -159q72 -72 250 -72t250 72q53 53 53 159t-53 159q-72 72 -250 72t-250 -72q-53 -53 -53 -159zM566 534q0 -28 -17 -45
q-26 -26 -90 -27l124 -78v-3h-38l-126 81h-131v-81h-25v222h179q84 0 109 -25q15 -15 15 -44zM539 534q0 19 -9 28q-16 16 -90 16h-152v-91h158q65 0 83 18q10 10 10 29z" />
    <glyph glyph-name="macron" unicode="&#xaf;" horiz-adv-x="749" 
d="M649 840h-549v26h549v-26z" />
    <glyph glyph-name="degree" unicode="&#xb0;" horiz-adv-x="786" 
d="M90 524q0 80 46 126q68 68 256 68t256 -68q46 -46 46 -126t-46 -126q-68 -68 -256 -68t-256 68q-46 46 -46 126zM665 524q0 71 -40 111q-57 57 -233 57t-233 -57q-40 -40 -40 -111t40 -111q57 -57 233 -57t233 57q40 40 40 111z" />
    <glyph glyph-name="plusminus" unicode="&#xb1;" horiz-adv-x="845" 
d="M100 471h304v219h27v-219h314v-28h-314v-229h-27v229h-304v28zM105 48h635v-28h-635v28z" />
    <glyph glyph-name="acute" unicode="&#xb4;" horiz-adv-x="533" 
d="M100 800v2l272 130h61v-2l-294 -130h-39z" />
    <glyph glyph-name="paragraph" unicode="&#xb6;" horiz-adv-x="1333" 
d="M1166 0h-29v672h-322v-672h-207q-297 0 -407 110q-91 91 -91 240t91 240q110 110 407 110h558v-700zM220 567q-80 -80 -80 -217t80 -217q50 -50 138 -77.5t250 -27.5h178v644h-178q-163 0 -250 -27t-138 -78z" />
    <glyph glyph-name="periodcentered" unicode="&#xb7;" horiz-adv-x="362" 
d="M212 334h-62v59h62v-59z" />
    <glyph glyph-name="cedilla" unicode="&#xb8;" horiz-adv-x="397" 
d="M272 6h30l-240 -202h-42z" />
    <glyph glyph-name="ordmasculine" unicode="&#xba;" horiz-adv-x="975" 
d="M108 0v26h759v-26h-759zM858 463q0 -103 -62 -165q-88 -88 -313 -88t-313 88q-62 62 -62 165t62 165q88 88 313 88t313 -88q62 -62 62 -165zM828 463q0 90 -56 146q-79 79 -289 79q-212 0 -290 -78q-55 -55 -55 -147t54 -146q79 -79 291 -79t290 78q55 55 55 147z" />
    <glyph glyph-name="guillemotright" unicode="&#xbb;" horiz-adv-x="850" 
d="M400 358l-320 204h43l311 -197v-13l-311 -198h-41zM736 358l-320 204h43l311 -197v-13l-311 -198h-41z" />
    <glyph glyph-name="questiondown" unicode="&#xbf;" horiz-adv-x="1006" 
d="M594 509v-165l-103 -4q-172 -4 -251 -20.5t-112 -49.5q-31 -31 -31 -82q0 -56 31 -87q71 -71 371 -71q243 0 457 45v-30q-195 -43 -457 -43q-314 0 -393 79q-40 40 -40 105t38 103q37 37 125.5 56.5t261.5 23.5l76 4v136h27zM553 716h57v-55h-57v55z" />
    <glyph glyph-name="Agrave" unicode="&#xc0;" horiz-adv-x="1240" 
d="M640 704l535 -704h-35l-149 195h-744l-148 -195h-34l535 704h40zM619 683l-350 -460h701zM629 817v-2h-39l-294 130v2h61z" />
    <glyph glyph-name="Aacute" unicode="&#xc1;" horiz-adv-x="1240" 
d="M600 704h40l535 -704h-35l-149 195h-744l-148 -195h-34zM619 683l-350 -460h701zM615 815v2l272 130h61v-2l-294 -130h-39z" />
    <glyph glyph-name="Acircumflex" unicode="&#xc2;" horiz-adv-x="1240" 
d="M600 704h40l535 -704h-35l-149 195h-744l-148 -195h-34zM619 683l-350 -460h701zM361 814v2l236 135h47l236 -135v-2h-37l-223 116l-222 -116h-37z" />
    <glyph glyph-name="Atilde" unicode="&#xc3;" horiz-adv-x="1240" 
d="M600 704h40l535 -704h-35l-149 195h-744l-148 -195h-34zM619 683l-350 -460h701zM357 884q31 38 59.5 55.5t69.5 17.5q34 0 94 -25l84 -39q51 -24 89 -24q37 0 63 17.5t63 60.5h4v-33q-30 -37 -59.5 -55t-69.5 -18q-34 0 -94 25l-84 39q-51 24 -89 24t-63.5 -17.5
t-62.5 -60.5h-4v33z" />
    <glyph glyph-name="Adieresis" unicode="&#xc4;" horiz-adv-x="1240" 
d="M640 704l535 -704h-35l-149 195h-744l-148 -195h-34l535 704h40zM619 683l-350 -460h701zM497 881v-47h-58v47h58zM802 881v-47h-58v47h58z" />
    <glyph glyph-name="Aring" unicode="&#xc5;" horiz-adv-x="1220" 
d="M610 889q165 0 216 -51q32 -32 32 -85q0 -54 -32 -86q-40 -40 -143 -48l472 -619h-38l-133 175h-750l-132 -175h-37l471 619q-103 8 -141 48q-33 33 -33 86q0 52 33 85q51 51 215 51zM610 617h-13h-14.5h-12.5l-314 -414h707l-314 414q0 -1 -19 -1zM610 645q152 0 194 42
q24 24 24 66q0 41 -24 65q-43 43 -194 43q-150 0 -193 -43q-25 -25 -25 -65q0 -41 25 -66q42 -42 193 -42z" />
    <glyph glyph-name="AE" unicode="&#xc6;" horiz-adv-x="1831" 
d="M958 368h756v-28h-756v-312h770v-28h-797v180h-618l-226 -180h-47l883 700h805v-28h-770v-304zM348 208h583v462z" />
    <glyph glyph-name="Ccedilla" unicode="&#xc7;" horiz-adv-x="1197" 
d="M1089 70q-74 -33 -187.5 -58.5t-242.5 -27.5l-214 -180h-42l224 180q-313 3 -434 124q-90 90 -90 242t90 242q124 124 448 124q134 0 253 -26t195 -60v-32q-79 39 -199.5 64.5t-248.5 25.5q-313 0 -429 -116q-79 -79 -79 -222t79 -222q116 -116 429 -116
q128 0 248.5 25.5t199.5 64.5v-32z" />
    <glyph glyph-name="Egrave" unicode="&#xc8;" 
d="M195 368h840v-28h-840v-312h854v-28h-883v700h883v-28h-854v-304zM663 802v-2h-39l-294 130v2h61z" />
    <glyph glyph-name="Eacute" unicode="&#xc9;" 
d="M195 368h840v-28h-840v-312h854v-28h-883v700h883v-28h-854v-304zM544 800v2l272 130h61v-2l-294 -130h-39z" />
    <glyph glyph-name="Ecircumflex" unicode="&#xca;" 
d="M195 368h840v-28h-840v-312h854v-28h-883v700h883v-28h-854v-304zM345 799v2l236 135h47l236 -135v-2h-37l-223 116l-222 -116h-37z" />
    <glyph glyph-name="Edieresis" unicode="&#xcb;" 
d="M195 368h840v-28h-840v-312h854v-28h-883v700h883v-28h-854v-304zM481 866v-47h-58v47h58zM786 866v-47h-58v47h58z" />
    <glyph glyph-name="Igrave" unicode="&#xcc;" horiz-adv-x="405" 
d="M217 0h-29v700h29v-700zM217 802v-2h-39l-294 130v2h61z" />
    <glyph glyph-name="Iacute" unicode="&#xcd;" horiz-adv-x="405" 
d="M217 0h-29v700h29v-700zM188 800v2l272 130h61v-2l-294 -130h-39z" />
    <glyph glyph-name="Icircumflex" unicode="&#xce;" horiz-adv-x="405" 
d="M217 0h-29v700h29v-700zM-56 799v2l236 135h47l236 -135v-2h-37l-223 116l-222 -116h-37z" />
    <glyph glyph-name="Idieresis" unicode="&#xcf;" horiz-adv-x="405" 
d="M217 0h-29v700h29v-700zM80 866v-47h-58v47h58zM385 866v-47h-58v47h58z" />
    <glyph glyph-name="Eth" unicode="&#xd0;" horiz-adv-x="1292" 
d="M241 0v332h-170v29h170v339h448q295 0 406 -111q92 -92 92 -239t-92 -239q-111 -111 -406 -111h-448zM794 361v-29h-524v-304h419q163 0 250 27t138 78q80 80 80 217t-80 217q-51 51 -138 78t-250 27h-419v-311h524z" />
    <glyph glyph-name="Ntilde" unicode="&#xd1;" horiz-adv-x="1301" 
d="M207 700l899 -675v675h29v-700h-41l-899 675v-675h-29v700h41zM420 839q31 38 59.5 55.5t69.5 17.5q34 0 94 -25l84 -39q51 -24 89 -24q37 0 63 17.5t63 60.5h4v-33q-30 -37 -59.5 -55t-69.5 -18q-34 0 -94 25l-84 39q-51 24 -89 24t-63.5 -17.5t-62.5 -60.5h-4v33z" />
    <glyph glyph-name="Ograve" unicode="&#xd2;" horiz-adv-x="1300" 
d="M709 817v-2h-39l-294 130v2h61zM650 720q336 0 458 -122q89 -89 89 -248q0 -156 -90 -246q-124 -124 -457 -124q-335 0 -458 123q-89 89 -89 247q0 157 90 247q123 123 457 123zM650 692q-321 0 -434 -113q-83 -83 -83 -229t83 -229q113 -113 434 -113q320 0 433 113
q84 84 84 229q0 147 -82 229q-113 113 -435 113z" />
    <glyph glyph-name="Oacute" unicode="&#xd3;" horiz-adv-x="1300" 
d="M590 815v2l272 130h61v-2l-294 -130h-39zM650 720q336 0 458 -122q89 -89 89 -248q0 -156 -90 -246q-124 -124 -457 -124q-335 0 -458 123q-89 89 -89 247q0 157 90 247q123 123 457 123zM650 692q-321 0 -434 -113q-83 -83 -83 -229t83 -229q113 -113 434 -113
q320 0 433 113q84 84 84 229q0 147 -82 229q-113 113 -435 113z" />
    <glyph glyph-name="Ocircumflex" unicode="&#xd4;" horiz-adv-x="1300" 
d="M391 814v2l236 135h47l236 -135v-2h-37l-223 116l-222 -116h-37zM650 720q336 0 458 -122q89 -89 89 -248q0 -156 -90 -246q-124 -124 -457 -124q-335 0 -458 123q-89 89 -89 247q0 157 90 247q123 123 457 123zM650 692q-321 0 -434 -113q-83 -83 -83 -229t83 -229
q113 -113 434 -113q320 0 433 113q84 84 84 229q0 147 -82 229q-113 113 -435 113z" />
    <glyph glyph-name="Otilde" unicode="&#xd5;" horiz-adv-x="1300" 
d="M387 884q31 38 59.5 55.5t69.5 17.5q34 0 94 -25l84 -39q51 -24 89 -24q37 0 63 17.5t63 60.5h4v-33q-30 -37 -59.5 -55t-69.5 -18q-34 0 -94 25l-84 39q-51 24 -89 24t-63.5 -17.5t-62.5 -60.5h-4v33zM650 720q336 0 458 -122q89 -89 89 -248q0 -156 -90 -246
q-124 -124 -457 -124q-335 0 -458 123q-89 89 -89 247q0 157 90 247q123 123 457 123zM650 692q-321 0 -434 -113q-83 -83 -83 -229t83 -229q113 -113 434 -113q320 0 433 113q84 84 84 229q0 147 -82 229q-113 113 -435 113z" />
    <glyph glyph-name="Odieresis" unicode="&#xd6;" horiz-adv-x="1300" 
d="M527 881v-47h-58v47h58zM832 881v-47h-58v47h58zM650 720q336 0 458 -122q89 -89 89 -248q0 -156 -90 -246q-124 -124 -457 -124q-335 0 -458 123q-89 89 -89 247q0 157 90 247q123 123 457 123zM650 692q-321 0 -434 -113q-83 -83 -83 -229t83 -229q113 -113 434 -113
q320 0 433 113q84 84 84 229q0 147 -82 229q-113 113 -435 113z" />
    <glyph glyph-name="multiply" unicode="&#xd7;" horiz-adv-x="882" 
d="M137 118l-17 21l298 227l-298 227l18 22l303 -231l304 231l17 -21l-298 -227l298 -227l-18 -22l-304 231z" />
    <glyph glyph-name="Oslash" unicode="&#xd8;" horiz-adv-x="1260" 
d="M103 350q0 149 92 241q125 125 435 125q312 0 436 -124q91 -91 91 -242q0 -149 -92 -241q-125 -125 -435 -125q-312 0 -436 124q-91 91 -91 242zM1127 350q0 102 -47 175l-885 -373q8 -11 28 -31q109 -109 407 -109t407 109q90 90 90 229zM133 350q0 -103 45 -175
l887 373q-14 16 -28 31q-109 109 -407 109t-407 -109q-90 -90 -90 -229z" />
    <glyph glyph-name="Ugrave" unicode="&#xd9;" horiz-adv-x="1244" 
d="M622 12q280 0 382 102q69 69 69 207v379h29v-389q0 -77 -18 -128t-58 -91q-108 -108 -404 -108t-404 108q-40 40 -58 91t-18 128v389h29v-379q0 -138 69 -207q102 -102 382 -102zM681 772v-2h-39l-294 130v2h61z" />
    <glyph glyph-name="Uacute" unicode="&#xda;" horiz-adv-x="1244" 
d="M622 12q280 0 382 102q69 69 69 207v379h29v-389q0 -77 -18 -128t-58 -91q-108 -108 -404 -108t-404 108q-40 40 -58 91t-18 128v389h29v-379q0 -138 69 -207q102 -102 382 -102zM562 770v2l272 130h61v-2l-294 -130h-39z" />
    <glyph glyph-name="Ucircumflex" unicode="&#xdb;" horiz-adv-x="1244" 
d="M622 12q280 0 382 102q69 69 69 207v379h29v-389q0 -77 -18 -128t-58 -91q-108 -108 -404 -108t-404 108q-40 40 -58 91t-18 128v389h29v-379q0 -138 69 -207q102 -102 382 -102zM363 769v2l236 135h47l236 -135v-2h-37l-223 116l-222 -116h-37z" />
    <glyph glyph-name="Udieresis" unicode="&#xdc;" horiz-adv-x="1244" 
d="M622 12q280 0 382 102q69 69 69 207v379h29v-389q0 -77 -18 -128t-58 -91q-108 -108 -404 -108t-404 108q-40 40 -58 91t-18 128v389h29v-379q0 -138 69 -207q102 -102 382 -102zM499 836v-47h-58v47h58zM804 836v-47h-58v47h58z" />
    <glyph glyph-name="Yacute" unicode="&#xdd;" horiz-adv-x="1111" 
d="M556 319l471 381h44l-501 -406v-294h-29v294l-501 406h44zM495 770v2l272 130h61v-2l-294 -130h-39z" />
    <glyph glyph-name="Thorn" unicode="&#xde;" horiz-adv-x="1151" 
d="M197 0h-31v716h31v-142h495q153 0 227 -16.5t113 -55.5q49 -49 49 -135q0 -88 -49 -137q-39 -39 -112.5 -55t-227.5 -16h-495v-159zM690 546h-493v-359h493q141 0 214.5 15t104.5 46q42 42 42 119q0 75 -42 117q-62 62 -319 62z" />
    <glyph glyph-name="germandbls" unicode="&#xdf;" horiz-adv-x="2321" 
d="M609 13q305 0 382 77q37 37 37 96q0 58 -30 88q-26 26 -109.5 42.5t-296.5 26.5q-201 9 -293.5 28t-124.5 51q-37 37 -37 99q0 69 42 111q82 82 386 82q241 0 439 -64v-30q-200 66 -440 66q-290 0 -363 -73q-34 -34 -34 -91q0 -50 30 -80q28 -28 116.5 -44.5t291.5 -26.5
q219 -11 301 -28.5t115 -50.5q37 -37 37 -106q0 -71 -43 -114q-24 -24 -57.5 -40.5t-124.5 -31.5t-226 -15q-291 0 -498 81v30q91 -36 225 -59.5t275 -23.5zM1767 13q305 0 382 77q37 37 37 96q0 58 -30 88q-26 26 -109.5 42.5t-296.5 26.5q-201 9 -293.5 28t-124.5 51
q-37 37 -37 99q0 69 42 111q82 82 386 82q241 0 439 -64v-30q-200 66 -440 66q-290 0 -363 -73q-34 -34 -34 -91q0 -50 30 -80q28 -28 116.5 -44.5t291.5 -26.5q219 -11 301 -28.5t115 -50.5q37 -37 37 -106q0 -71 -43 -114q-24 -24 -57.5 -40.5t-124.5 -31.5t-226 -15
q-291 0 -498 81v30q91 -36 225 -59.5t275 -23.5z" />
    <glyph glyph-name="agrave" unicode="&#xe0;" horiz-adv-x="1240" 
d="M640 704l535 -704h-35l-149 195h-744l-148 -195h-34l535 704h40zM619 683l-350 -460h701zM629 817v-2h-39l-294 130v2h61z" />
    <glyph glyph-name="aacute" unicode="&#xe1;" horiz-adv-x="1240" 
d="M600 704h40l535 -704h-35l-149 195h-744l-148 -195h-34zM619 683l-350 -460h701zM615 815v2l272 130h61v-2l-294 -130h-39z" />
    <glyph glyph-name="acircumflex" unicode="&#xe2;" horiz-adv-x="1240" 
d="M600 704h40l535 -704h-35l-149 195h-744l-148 -195h-34zM619 683l-350 -460h701zM361 814v2l236 135h47l236 -135v-2h-37l-223 116l-222 -116h-37z" />
    <glyph glyph-name="atilde" unicode="&#xe3;" horiz-adv-x="1240" 
d="M600 704h40l535 -704h-35l-149 195h-744l-148 -195h-34zM619 683l-350 -460h701zM357 884q31 38 59.5 55.5t69.5 17.5q34 0 94 -25l84 -39q51 -24 89 -24q37 0 63 17.5t63 60.5h4v-33q-30 -37 -59.5 -55t-69.5 -18q-34 0 -94 25l-84 39q-51 24 -89 24t-63.5 -17.5
t-62.5 -60.5h-4v33z" />
    <glyph glyph-name="adieresis" unicode="&#xe4;" horiz-adv-x="1240" 
d="M640 704l535 -704h-35l-149 195h-744l-148 -195h-34l535 704h40zM619 683l-350 -460h701zM497 881v-47h-58v47h58zM802 881v-47h-58v47h58z" />
    <glyph glyph-name="aring" unicode="&#xe5;" horiz-adv-x="1220" 
d="M610 889q165 0 216 -51q32 -32 32 -85q0 -54 -32 -86q-40 -40 -143 -48l472 -619h-38l-133 175h-750l-132 -175h-37l471 619q-103 8 -141 48q-33 33 -33 86q0 52 33 85q51 51 215 51zM610 617h-13h-14.5h-12.5l-314 -414h707l-314 414q0 -1 -19 -1zM610 645q152 0 194 42
q24 24 24 66q0 41 -24 65q-43 43 -194 43q-150 0 -193 -43q-25 -25 -25 -65q0 -41 25 -66q42 -42 193 -42z" />
    <glyph glyph-name="ae" unicode="&#xe6;" horiz-adv-x="1831" 
d="M958 368h756v-28h-756v-312h770v-28h-797v180h-618l-226 -180h-47l883 700h805v-28h-770v-304zM348 208h583v462z" />
    <glyph glyph-name="ccedilla" unicode="&#xe7;" horiz-adv-x="1197" 
d="M1089 70q-74 -33 -187.5 -58.5t-242.5 -27.5l-214 -180h-42l224 180q-313 3 -434 124q-90 90 -90 242t90 242q124 124 448 124q134 0 253 -26t195 -60v-32q-79 39 -199.5 64.5t-248.5 25.5q-313 0 -429 -116q-79 -79 -79 -222t79 -222q116 -116 429 -116
q128 0 248.5 25.5t199.5 64.5v-32z" />
    <glyph glyph-name="egrave" unicode="&#xe8;" 
d="M195 368h840v-28h-840v-312h854v-28h-883v700h883v-28h-854v-304zM663 802v-2h-39l-294 130v2h61z" />
    <glyph glyph-name="eacute" unicode="&#xe9;" 
d="M195 368h840v-28h-840v-312h854v-28h-883v700h883v-28h-854v-304zM544 800v2l272 130h61v-2l-294 -130h-39z" />
    <glyph glyph-name="ecircumflex" unicode="&#xea;" 
d="M195 368h840v-28h-840v-312h854v-28h-883v700h883v-28h-854v-304zM345 799v2l236 135h47l236 -135v-2h-37l-223 116l-222 -116h-37z" />
    <glyph glyph-name="edieresis" unicode="&#xeb;" 
d="M195 368h840v-28h-840v-312h854v-28h-883v700h883v-28h-854v-304zM481 866v-47h-58v47h58zM786 866v-47h-58v47h58z" />
    <glyph glyph-name="igrave" unicode="&#xec;" horiz-adv-x="405" 
d="M217 0h-29v700h29v-700zM217 802v-2h-39l-294 130v2h61z" />
    <glyph glyph-name="iacute" unicode="&#xed;" horiz-adv-x="405" 
d="M217 0h-29v700h29v-700zM188 800v2l272 130h61v-2l-294 -130h-39z" />
    <glyph glyph-name="icircumflex" unicode="&#xee;" horiz-adv-x="405" 
d="M217 0h-29v700h29v-700zM-56 799v2l236 135h47l236 -135v-2h-37l-223 116l-222 -116h-37z" />
    <glyph glyph-name="idieresis" unicode="&#xef;" horiz-adv-x="405" 
d="M217 0h-29v700h29v-700zM80 866v-47h-58v47h58zM385 866v-47h-58v47h58z" />
    <glyph glyph-name="eth" unicode="&#xf0;" horiz-adv-x="1292" 
d="M241 0v332h-170v29h170v339h448q295 0 406 -111q92 -92 92 -239t-92 -239q-111 -111 -406 -111h-448zM794 361v-29h-524v-304h419q163 0 250 27t138 78q80 80 80 217t-80 217q-51 51 -138 78t-250 27h-419v-311h524z" />
    <glyph glyph-name="ntilde" unicode="&#xf1;" horiz-adv-x="1301" 
d="M207 700l899 -675v675h29v-700h-41l-899 675v-675h-29v700h41zM420 839q31 38 59.5 55.5t69.5 17.5q34 0 94 -25l84 -39q51 -24 89 -24q37 0 63 17.5t63 60.5h4v-33q-30 -37 -59.5 -55t-69.5 -18q-34 0 -94 25l-84 39q-51 24 -89 24t-63.5 -17.5t-62.5 -60.5h-4v33z" />
    <glyph glyph-name="ograve" unicode="&#xf2;" horiz-adv-x="1300" 
d="M709 817v-2h-39l-294 130v2h61zM650 720q336 0 458 -122q89 -89 89 -248q0 -156 -90 -246q-124 -124 -457 -124q-335 0 -458 123q-89 89 -89 247q0 157 90 247q123 123 457 123zM650 692q-321 0 -434 -113q-83 -83 -83 -229t83 -229q113 -113 434 -113q320 0 433 113
q84 84 84 229q0 147 -82 229q-113 113 -435 113z" />
    <glyph glyph-name="oacute" unicode="&#xf3;" horiz-adv-x="1300" 
d="M590 815v2l272 130h61v-2l-294 -130h-39zM650 720q336 0 458 -122q89 -89 89 -248q0 -156 -90 -246q-124 -124 -457 -124q-335 0 -458 123q-89 89 -89 247q0 157 90 247q123 123 457 123zM650 692q-321 0 -434 -113q-83 -83 -83 -229t83 -229q113 -113 434 -113
q320 0 433 113q84 84 84 229q0 147 -82 229q-113 113 -435 113z" />
    <glyph glyph-name="ocircumflex" unicode="&#xf4;" horiz-adv-x="1300" 
d="M391 814v2l236 135h47l236 -135v-2h-37l-223 116l-222 -116h-37zM650 720q336 0 458 -122q89 -89 89 -248q0 -156 -90 -246q-124 -124 -457 -124q-335 0 -458 123q-89 89 -89 247q0 157 90 247q123 123 457 123zM650 692q-321 0 -434 -113q-83 -83 -83 -229t83 -229
q113 -113 434 -113q320 0 433 113q84 84 84 229q0 147 -82 229q-113 113 -435 113z" />
    <glyph glyph-name="otilde" unicode="&#xf5;" horiz-adv-x="1300" 
d="M387 884q31 38 59.5 55.5t69.5 17.5q34 0 94 -25l84 -39q51 -24 89 -24q37 0 63 17.5t63 60.5h4v-33q-30 -37 -59.5 -55t-69.5 -18q-34 0 -94 25l-84 39q-51 24 -89 24t-63.5 -17.5t-62.5 -60.5h-4v33zM650 720q336 0 458 -122q89 -89 89 -248q0 -156 -90 -246
q-124 -124 -457 -124q-335 0 -458 123q-89 89 -89 247q0 157 90 247q123 123 457 123zM650 692q-321 0 -434 -113q-83 -83 -83 -229t83 -229q113 -113 434 -113q320 0 433 113q84 84 84 229q0 147 -82 229q-113 113 -435 113z" />
    <glyph glyph-name="odieresis" unicode="&#xf6;" horiz-adv-x="1300" 
d="M527 881v-47h-58v47h58zM832 881v-47h-58v47h58zM650 720q336 0 458 -122q89 -89 89 -248q0 -156 -90 -246q-124 -124 -457 -124q-335 0 -458 123q-89 89 -89 247q0 157 90 247q123 123 457 123zM650 692q-321 0 -434 -113q-83 -83 -83 -229t83 -229q113 -113 434 -113
q320 0 433 113q84 84 84 229q0 147 -82 229q-113 113 -435 113z" />
    <glyph glyph-name="divide" unicode="&#xf7;" horiz-adv-x="998" 
d="M527 586h-56v53h56v-53zM898 364v-28h-798v28h798zM527 61h-56v53h56v-53z" />
    <glyph glyph-name="oslash" unicode="&#xf8;" horiz-adv-x="1260" 
d="M103 350q0 149 92 241q125 125 435 125q312 0 436 -124q91 -91 91 -242q0 -149 -92 -241q-125 -125 -435 -125q-312 0 -436 124q-91 91 -91 242zM1127 350q0 102 -47 175l-885 -373q8 -11 28 -31q109 -109 407 -109t407 109q90 90 90 229zM133 350q0 -103 45 -175
l887 373q-14 16 -28 31q-109 109 -407 109t-407 -109q-90 -90 -90 -229z" />
    <glyph glyph-name="ugrave" unicode="&#xf9;" horiz-adv-x="1244" 
d="M622 12q280 0 382 102q69 69 69 207v379h29v-389q0 -77 -18 -128t-58 -91q-108 -108 -404 -108t-404 108q-40 40 -58 91t-18 128v389h29v-379q0 -138 69 -207q102 -102 382 -102zM681 772v-2h-39l-294 130v2h61z" />
    <glyph glyph-name="uacute" unicode="&#xfa;" horiz-adv-x="1244" 
d="M622 12q280 0 382 102q69 69 69 207v379h29v-389q0 -77 -18 -128t-58 -91q-108 -108 -404 -108t-404 108q-40 40 -58 91t-18 128v389h29v-379q0 -138 69 -207q102 -102 382 -102zM562 770v2l272 130h61v-2l-294 -130h-39z" />
    <glyph glyph-name="ucircumflex" unicode="&#xfb;" horiz-adv-x="1244" 
d="M622 12q280 0 382 102q69 69 69 207v379h29v-389q0 -77 -18 -128t-58 -91q-108 -108 -404 -108t-404 108q-40 40 -58 91t-18 128v389h29v-379q0 -138 69 -207q102 -102 382 -102zM363 769v2l236 135h47l236 -135v-2h-37l-223 116l-222 -116h-37z" />
    <glyph glyph-name="udieresis" unicode="&#xfc;" horiz-adv-x="1244" 
d="M622 12q280 0 382 102q69 69 69 207v379h29v-389q0 -77 -18 -128t-58 -91q-108 -108 -404 -108t-404 108q-40 40 -58 91t-18 128v389h29v-379q0 -138 69 -207q102 -102 382 -102zM499 836v-47h-58v47h58zM804 836v-47h-58v47h58z" />
    <glyph glyph-name="yacute" unicode="&#xfd;" horiz-adv-x="1111" 
d="M556 319l471 381h44l-501 -406v-294h-29v294l-501 406h44zM495 770v2l272 130h61v-2l-294 -130h-39z" />
    <glyph glyph-name="thorn" unicode="&#xfe;" horiz-adv-x="1151" 
d="M197 0h-31v716h31v-142h495q153 0 227 -16.5t113 -55.5q49 -49 49 -135q0 -88 -49 -137q-39 -39 -112.5 -55t-227.5 -16h-495v-159zM690 546h-493v-359h493q141 0 214.5 15t104.5 46q42 42 42 119q0 75 -42 117q-62 62 -319 62z" />
    <glyph glyph-name="ydieresis" unicode="&#xff;" horiz-adv-x="1111" 
d="M556 319l471 381h44l-501 -406v-294h-29v294l-501 406h44zM432 836v-47h-58v47h58zM737 836v-47h-58v47h58z" />
    <glyph glyph-name="Amacron" unicode="&#x100;" horiz-adv-x="1240" 
d="M600 704h40l535 -704h-35l-149 195h-744l-148 -195h-34zM619 683l-350 -460h701zM895 855h-549v26h549v-26z" />
    <glyph glyph-name="amacron" unicode="&#x101;" horiz-adv-x="1240" 
d="M600 704h40l535 -704h-35l-149 195h-744l-148 -195h-34zM619 683l-350 -460h701zM895 855h-549v26h549v-26z" />
    <glyph glyph-name="Abreve" unicode="&#x102;" horiz-adv-x="1240" 
d="M640 704l535 -704h-35l-149 195h-744l-148 -195h-34l535 704h40zM619 683l-350 -460h701zM620 825q-82 0 -150.5 30t-100.5 63v30h4q39 -39 103 -67t144 -28q81 0 145 27.5t103 66.5h4v-30q-32 -33 -100.5 -62.5t-151.5 -29.5z" />
    <glyph glyph-name="abreve" unicode="&#x103;" horiz-adv-x="1240" 
d="M640 704l535 -704h-35l-149 195h-744l-148 -195h-34l535 704h40zM619 683l-350 -460h701zM620 825q-82 0 -150.5 30t-100.5 63v30h4q39 -39 103 -67t144 -28q81 0 145 27.5t103 66.5h4v-30q-32 -33 -100.5 -62.5t-151.5 -29.5z" />
    <glyph glyph-name="Aogonek" unicode="&#x104;" horiz-adv-x="1240" 
d="M640 704l535 -704l-72 -25q-110 -40 -134 -62q-8 -8 -8 -23q0 -14 8 -21q25 -25 160 -25q87 0 161 15v-26q-81 -14 -161 -14q-146 0 -180 34q-14 14 -14 36q0 23 14 36q29 29 161 72l25 8l-144 190h-744l-148 -195h-34l535 704h40zM619 683l-350 -460h701z" />
    <glyph glyph-name="aogonek" unicode="&#x105;" horiz-adv-x="1240" 
d="M640 704l535 -704l-72 -25q-110 -40 -134 -62q-8 -8 -8 -23q0 -14 8 -21q25 -25 160 -25q87 0 161 15v-26q-81 -14 -161 -14q-146 0 -180 34q-14 14 -14 36q0 23 14 36q29 29 161 72l25 8l-144 190h-744l-148 -195h-34l535 704h40zM619 683l-350 -460h701z" />
    <glyph glyph-name="Cacute" unicode="&#x106;" horiz-adv-x="1197" 
d="M641 -16q-324 0 -448 124q-90 90 -90 242t90 242q124 124 448 124q134 0 253 -26t195 -60v-32q-79 39 -199.5 64.5t-248.5 25.5q-313 0 -429 -116q-79 -79 -79 -222t79 -222q116 -116 429 -116q128 0 248.5 25.5t199.5 64.5v-32q-76 -34 -195 -60t-253 -26zM576 815v2
l272 130h61v-2l-294 -130h-39z" />
    <glyph glyph-name="cacute" unicode="&#x107;" horiz-adv-x="1197" 
d="M641 -16q-324 0 -448 124q-90 90 -90 242t90 242q124 124 448 124q134 0 253 -26t195 -60v-32q-79 39 -199.5 64.5t-248.5 25.5q-313 0 -429 -116q-79 -79 -79 -222t79 -222q116 -116 429 -116q128 0 248.5 25.5t199.5 64.5v-32q-76 -34 -195 -60t-253 -26zM576 815v2
l272 130h61v-2l-294 -130h-39z" />
    <glyph glyph-name="Cdotaccent" unicode="&#x10a;" horiz-adv-x="1197" 
d="M641 -16q-324 0 -448 124q-90 90 -90 242t90 242q124 124 448 124q134 0 253 -26t195 -60v-32q-79 39 -199.5 64.5t-248.5 25.5q-313 0 -429 -116q-79 -79 -79 -222t79 -222q116 -116 429 -116q128 0 248.5 25.5t199.5 64.5v-32q-76 -34 -195 -60t-253 -26zM665 886v-52
h-61v52h61z" />
    <glyph glyph-name="cdotaccent" unicode="&#x10b;" horiz-adv-x="1197" 
d="M641 -16q-324 0 -448 124q-90 90 -90 242t90 242q124 124 448 124q134 0 253 -26t195 -60v-32q-79 39 -199.5 64.5t-248.5 25.5q-313 0 -429 -116q-79 -79 -79 -222t79 -222q116 -116 429 -116q128 0 248.5 25.5t199.5 64.5v-32q-76 -34 -195 -60t-253 -26zM665 886v-52
h-61v52h61z" />
    <glyph glyph-name="Ccaron" unicode="&#x10c;" horiz-adv-x="1197" 
d="M641 -16q-324 0 -448 124q-90 90 -90 242t90 242q124 124 448 124q134 0 253 -26t195 -60v-32q-79 39 -199.5 64.5t-248.5 25.5q-313 0 -429 -116q-79 -79 -79 -222t79 -222q116 -116 429 -116q128 0 248.5 25.5t199.5 64.5v-32q-76 -34 -195 -60t-253 -26zM896 941v-2
l-236 -135h-47l-236 135v2h37l222 -117l223 117h37z" />
    <glyph glyph-name="ccaron" unicode="&#x10d;" horiz-adv-x="1197" 
d="M641 -16q-324 0 -448 124q-90 90 -90 242t90 242q124 124 448 124q134 0 253 -26t195 -60v-32q-79 39 -199.5 64.5t-248.5 25.5q-313 0 -429 -116q-79 -79 -79 -222t79 -222q116 -116 429 -116q128 0 248.5 25.5t199.5 64.5v-32q-76 -34 -195 -60t-253 -26zM896 941v-2
l-236 -135h-47l-236 135v2h37l222 -117l223 117h37z" />
    <glyph glyph-name="Dcaron" unicode="&#x10e;" horiz-adv-x="1246" 
d="M1143 350q0 -144 -93 -237q-113 -113 -437 -113h-447v700h447q324 0 437 -113q93 -93 93 -237zM195 28h418q313 0 417 104q83 83 83 218t-83 218q-104 104 -417 104h-418v-644zM879 926v-2l-236 -135h-47l-236 135v2h37l222 -117l223 117h37z" />
    <glyph glyph-name="dcaron" unicode="&#x10f;" horiz-adv-x="1246" 
d="M1143 350q0 -144 -93 -237q-113 -113 -437 -113h-447v700h447q324 0 437 -113q93 -93 93 -237zM195 28h418q313 0 417 104q83 83 83 218t-83 218q-104 104 -417 104h-418v-644zM879 926v-2l-236 -135h-47l-236 135v2h37l222 -117l223 117h37z" />
    <glyph glyph-name="Dcroat" unicode="&#x110;" horiz-adv-x="1291" 
d="M240 0v332h-170v29h170v339h448q295 0 406 -111q92 -92 92 -239t-92 -239q-111 -111 -406 -111h-448zM793 361v-29h-524v-304h419q163 0 250 27t138 78q80 80 80 217t-80 217q-51 51 -138 78t-250 27h-419v-311h524z" />
    <glyph glyph-name="dcroat" unicode="&#x111;" horiz-adv-x="1291" 
d="M240 0v332h-170v29h170v339h448q295 0 406 -111q92 -92 92 -239t-92 -239q-111 -111 -406 -111h-448zM793 361v-29h-524v-304h419q163 0 250 27t138 78q80 80 80 217t-80 217q-51 51 -138 78t-250 27h-419v-311h524z" />
    <glyph glyph-name="Emacron" unicode="&#x112;" 
d="M195 368h840v-28h-840v-312h854v-28h-883v700h883v-28h-854v-304zM879 840h-549v26h549v-26z" />
    <glyph glyph-name="emacron" unicode="&#x113;" 
d="M195 368h840v-28h-840v-312h854v-28h-883v700h883v-28h-854v-304zM879 840h-549v26h549v-26z" />
    <glyph glyph-name="Ebreve" unicode="&#x114;" 
d="M195 368h840v-28h-840v-312h854v-28h-883v700h883v-28h-854v-304zM604 810q-82 0 -150.5 30t-100.5 63v30h4q39 -39 103 -67t144 -28q81 0 145 27.5t103 66.5h4v-30q-32 -33 -100.5 -62.5t-151.5 -29.5z" />
    <glyph glyph-name="ebreve" unicode="&#x115;" 
d="M195 368h840v-28h-840v-312h854v-28h-883v700h883v-28h-854v-304zM604 810q-82 0 -150.5 30t-100.5 63v30h4q39 -39 103 -67t144 -28q81 0 145 27.5t103 66.5h4v-30q-32 -33 -100.5 -62.5t-151.5 -29.5z" />
    <glyph glyph-name="Edotaccent" unicode="&#x116;" 
d="M195 368h840v-28h-840v-312h854v-28h-883v700h883v-28h-854v-304zM633 871v-52h-61v52h61z" />
    <glyph glyph-name="edotaccent" unicode="&#x117;" 
d="M195 368h840v-28h-840v-312h854v-28h-883v700h883v-28h-854v-304zM633 871v-52h-61v52h61z" />
    <glyph glyph-name="Eogonek" unicode="&#x118;" 
d="M1052 -133v-27q-87 -21 -195 -21q-146 0 -180 34q-14 14 -14 36q0 23 14 36q29 29 161 72l9 3h-681v700h883v-28h-854v-304h840v-28h-840v-312h854v-28h-146l-72 -25q-110 -40 -134 -62q-8 -8 -8 -23q0 -14 8 -21q25 -25 160 -25q108 0 195 23z" />
    <glyph glyph-name="eogonek" unicode="&#x119;" 
d="M1052 -133v-27q-87 -21 -195 -21q-146 0 -180 34q-14 14 -14 36q0 23 14 36q29 29 161 72l9 3h-681v700h883v-28h-854v-304h840v-28h-840v-312h854v-28h-146l-72 -25q-110 -40 -134 -62q-8 -8 -8 -23q0 -14 8 -21q25 -25 160 -25q108 0 195 23z" />
    <glyph glyph-name="Ecaron" unicode="&#x11a;" 
d="M195 368h840v-28h-840v-312h854v-28h-883v700h883v-28h-854v-304zM864 926v-2l-236 -135h-47l-236 135v2h37l222 -117l223 117h37z" />
    <glyph glyph-name="ecaron" unicode="&#x11b;" 
d="M195 368h840v-28h-840v-312h854v-28h-883v700h883v-28h-854v-304zM864 926v-2l-236 -135h-47l-236 135v2h37l222 -117l223 117h37z" />
    <glyph glyph-name="Gbreve" unicode="&#x11e;" horiz-adv-x="1282" 
d="M570 345h587v-38q0 -144 -70 -214q-109 -109 -428 -109q-327 0 -450 123q-90 90 -90 243t90 243q57 57 153.5 90t270.5 33q146 0 268 -23.5t195 -56.5v-32q-77 38 -199.5 61t-263.5 23q-166 0 -255 -28.5t-143 -82.5q-86 -86 -86 -227q0 -142 83 -225q113 -113 428 -113
q156 0 254.5 24t151.5 77q23 23 36.5 49t18.5 58t6 48.5t1 48.5h-558v28zM638 825q-82 0 -150.5 30t-100.5 63v30h4q39 -39 103 -67t144 -28q81 0 145 27.5t103 66.5h4v-30q-32 -33 -100.5 -62.5t-151.5 -29.5z" />
    <glyph glyph-name="gbreve" unicode="&#x11f;" horiz-adv-x="1282" 
d="M570 345h587v-38q0 -144 -70 -214q-109 -109 -428 -109q-327 0 -450 123q-90 90 -90 243t90 243q57 57 153.5 90t270.5 33q146 0 268 -23.5t195 -56.5v-32q-77 38 -199.5 61t-263.5 23q-166 0 -255 -28.5t-143 -82.5q-86 -86 -86 -227q0 -142 83 -225q113 -113 428 -113
q156 0 254.5 24t151.5 77q23 23 36.5 49t18.5 58t6 48.5t1 48.5h-558v28zM638 825q-82 0 -150.5 30t-100.5 63v30h4q39 -39 103 -67t144 -28q81 0 145 27.5t103 66.5h4v-30q-32 -33 -100.5 -62.5t-151.5 -29.5z" />
    <glyph glyph-name="Gdotaccent" unicode="&#x120;" horiz-adv-x="1282" 
d="M570 345h587v-38q0 -144 -70 -214q-109 -109 -428 -109q-327 0 -450 123q-90 90 -90 243t90 243q57 57 153.5 90t270.5 33q146 0 268 -23.5t195 -56.5v-32q-77 38 -199.5 61t-263.5 23q-166 0 -255 -28.5t-143 -82.5q-86 -86 -86 -227q0 -142 83 -225q113 -113 428 -113
q156 0 254.5 24t151.5 77q23 23 36.5 49t18.5 58t6 48.5t1 48.5h-558v28zM667 886v-52h-61v52h61z" />
    <glyph glyph-name="gdotaccent" unicode="&#x121;" horiz-adv-x="1282" 
d="M570 345h587v-38q0 -144 -70 -214q-109 -109 -428 -109q-327 0 -450 123q-90 90 -90 243t90 243q57 57 153.5 90t270.5 33q146 0 268 -23.5t195 -56.5v-32q-77 38 -199.5 61t-263.5 23q-166 0 -255 -28.5t-143 -82.5q-86 -86 -86 -227q0 -142 83 -225q113 -113 428 -113
q156 0 254.5 24t151.5 77q23 23 36.5 49t18.5 58t6 48.5t1 48.5h-558v28zM667 886v-52h-61v52h61z" />
    <glyph glyph-name="Gcommaaccent" unicode="&#x122;" horiz-adv-x="1282" 
d="M570 345h587v-38q0 -144 -70 -214q-109 -109 -428 -109q-327 0 -450 123q-90 90 -90 243t90 243q57 57 153.5 90t270.5 33q146 0 268 -23.5t195 -56.5v-32q-77 38 -199.5 61t-263.5 23q-166 0 -255 -28.5t-143 -82.5q-86 -86 -86 -227q0 -142 83 -225q113 -113 428 -113
q156 0 254.5 24t151.5 77q23 23 36.5 49t18.5 58t6 48.5t1 48.5h-558v28zM502 -317l82 78q38 36 50 64.5t8 74.5h32q5 -47 -11.5 -81t-69.5 -81l-61 -55h-30z" />
    <glyph glyph-name="gcommaaccent" unicode="&#x123;" horiz-adv-x="1282" 
d="M570 345h587v-38q0 -144 -70 -214q-109 -109 -428 -109q-327 0 -450 123q-90 90 -90 243t90 243q57 57 153.5 90t270.5 33q146 0 268 -23.5t195 -56.5v-32q-77 38 -199.5 61t-263.5 23q-166 0 -255 -28.5t-143 -82.5q-86 -86 -86 -227q0 -142 83 -225q113 -113 428 -113
q156 0 254.5 24t151.5 77q23 23 36.5 49t18.5 58t6 48.5t1 48.5h-558v28zM502 -317l82 78q38 36 50 64.5t8 74.5h32q5 -47 -11.5 -81t-69.5 -81l-61 -55h-30z" />
    <glyph glyph-name="Hbar" unicode="&#x126;" horiz-adv-x="1434" 
d="M1349 558v-28h-155v-530h-29v340h-896v-340h-29v530h-155v28h155v142h29v-142h896v142h29v-142h155zM269 368h896v162h-896v-162z" />
    <glyph glyph-name="hbar" unicode="&#x127;" horiz-adv-x="1434" 
d="M1349 558v-28h-155v-530h-29v340h-896v-340h-29v530h-155v28h155v142h29v-142h896v142h29v-142h155zM269 368h896v162h-896v-162z" />
    <glyph glyph-name="Imacron" unicode="&#x12a;" horiz-adv-x="405" 
d="M217 0h-29v700h29v-700zM478 840h-549v26h549v-26z" />
    <glyph glyph-name="imacron" unicode="&#x12b;" horiz-adv-x="405" 
d="M217 0h-29v700h29v-700zM478 840h-549v26h549v-26z" />
    <glyph glyph-name="Ibreve" unicode="&#x12c;" horiz-adv-x="405" 
d="M217 0h-29v700h29v-700zM203 810q-82 0 -150.5 30t-100.5 63v30h4q39 -39 103 -67t144 -28q81 0 145 27.5t103 66.5h4v-30q-32 -33 -100.5 -62.5t-151.5 -29.5z" />
    <glyph glyph-name="ibreve" unicode="&#x12d;" horiz-adv-x="405" 
d="M217 0h-29v700h29v-700zM203 810q-82 0 -150.5 30t-100.5 63v30h4q39 -39 103 -67t144 -28q81 0 145 27.5t103 66.5h4v-30q-32 -33 -100.5 -62.5t-151.5 -29.5z" />
    <glyph glyph-name="Iogonek" unicode="&#x12e;" horiz-adv-x="405" 
d="M188 700h29v-700l-72 -25q-110 -40 -134 -62q-8 -8 -8 -23q0 -14 8 -21q25 -25 160 -25q108 0 195 23v-27q-87 -21 -195 -21q-146 0 -180 34q-14 14 -14 36q0 23 14 36q29 29 161 72l36 12v691z" />
    <glyph glyph-name="iogonek" unicode="&#x12f;" horiz-adv-x="405" 
d="M188 700h29v-700l-72 -25q-110 -40 -134 -62q-8 -8 -8 -23q0 -14 8 -21q25 -25 160 -25q108 0 195 23v-27q-87 -21 -195 -21q-146 0 -180 34q-14 14 -14 36q0 23 14 36q29 29 161 72l36 12v691z" />
    <glyph glyph-name="Idotaccent" unicode="&#x130;" horiz-adv-x="405" 
d="M217 0h-29v700h29v-700zM232 871v-52h-61v52h61z" />
    <glyph glyph-name="dotlessi" unicode="&#x131;" horiz-adv-x="405" 
d="M217 0h-29v700h29v-700z" />
    <glyph glyph-name="Kcommaaccent" unicode="&#x136;" horiz-adv-x="1160" 
d="M180 700h28v-332h254l566 332h51l-589 -346l600 -354h-54l-573 340h-255v-340h-28v700zM380 -292l82 78q38 36 50 64.5t8 74.5h32q5 -47 -12 -81t-69 -81l-61 -55h-30z" />
    <glyph glyph-name="kcommaaccent" unicode="&#x137;" horiz-adv-x="1160" 
d="M180 700h28v-332h254l566 332h51l-589 -346l600 -354h-54l-573 340h-255v-340h-28v700zM380 -292l82 78q38 36 50 64.5t8 74.5h32q5 -47 -12 -81t-69 -81l-61 -55h-30z" />
    <glyph glyph-name="Lacute" unicode="&#x139;" horiz-adv-x="1081" 
d="M195 28h818v-28h-847v700h29v-672zM179 800v2l272 130h61v-2l-294 -130h-39z" />
    <glyph glyph-name="lacute" unicode="&#x13a;" horiz-adv-x="1081" 
d="M195 28h818v-28h-847v700h29v-672zM179 800v2l272 130h61v-2l-294 -130h-39z" />
    <glyph glyph-name="Lcommaaccent" unicode="&#x13b;" horiz-adv-x="1081" 
d="M195 28h818v-28h-847v700h29v-672zM383 -317l82 78q38 36 50 64.5t8 74.5h32q5 -47 -12 -81t-69 -81l-61 -55h-30z" />
    <glyph glyph-name="lcommaaccent" unicode="&#x13c;" horiz-adv-x="1081" 
d="M195 28h818v-28h-847v700h29v-672zM383 -317l82 78q38 36 50 64.5t8 74.5h32q5 -47 -12 -81t-69 -81l-61 -55h-30z" />
    <glyph glyph-name="Lcaron" unicode="&#x13d;" horiz-adv-x="1081" 
d="M195 28h818v-28h-847v700h29v-672zM416 523h-18l1 278h30z" />
    <glyph glyph-name="lcaron" unicode="&#x13e;" horiz-adv-x="1081" 
d="M195 28h818v-28h-847v700h29v-672zM416 523h-18l1 278h30z" />
    <glyph glyph-name="Ldot" unicode="&#x13f;" horiz-adv-x="1081" 
d="M195 28h818v-28h-847v700h29v-672zM733 447v-52h-61v52h61z" />
    <glyph glyph-name="ldot" unicode="&#x140;" horiz-adv-x="1081" 
d="M195 28h818v-28h-847v700h29v-672zM733 447v-52h-61v52h61z" />
    <glyph glyph-name="Lslash" unicode="&#x141;" horiz-adv-x="1145" 
d="M259 28h818v-28h-847v283l-160 -50v28l160 50v389h29v-380l475 151v-28l-475 -151v-264z" />
    <glyph glyph-name="lslash" unicode="&#x142;" horiz-adv-x="1145" 
d="M259 28h818v-28h-847v283l-160 -50v28l160 50v389h29v-380l475 151v-28l-475 -151v-264z" />
    <glyph glyph-name="Nacute" unicode="&#x143;" horiz-adv-x="1301" 
d="M207 700l899 -675v675h29v-700h-41l-899 675v-675h-29v700h41zM623 770v2l272 130h61v-2l-294 -130h-39z" />
    <glyph glyph-name="nacute" unicode="&#x144;" horiz-adv-x="1301" 
d="M207 700l899 -675v675h29v-700h-41l-899 675v-675h-29v700h41zM623 770v2l272 130h61v-2l-294 -130h-39z" />
    <glyph glyph-name="Ncommaaccent" unicode="&#x145;" horiz-adv-x="1301" 
d="M207 700l899 -675v675h29v-700h-41l-899 675v-675h-29v700h41zM472 -292l82 78q38 36 50 64.5t8 74.5h32q5 -47 -11.5 -81t-69.5 -81l-61 -55h-30z" />
    <glyph glyph-name="ncommaaccent" unicode="&#x146;" horiz-adv-x="1301" 
d="M207 700l899 -675v675h29v-700h-41l-899 675v-675h-29v700h41zM472 -292l82 78q38 36 50 64.5t8 74.5h32q5 -47 -11.5 -81t-69.5 -81l-61 -55h-30z" />
    <glyph glyph-name="Ncaron" unicode="&#x147;" horiz-adv-x="1301" 
d="M207 700l899 -675v675h29v-700h-41l-899 675v-675h-29v700h41zM943 896v-2l-236 -135h-47l-236 135v2h37l222 -117l223 117h37z" />
    <glyph glyph-name="ncaron" unicode="&#x148;" horiz-adv-x="1301" 
d="M207 700l899 -675v675h29v-700h-41l-899 675v-675h-29v700h41zM943 896v-2l-236 -135h-47l-236 135v2h37l222 -117l223 117h37z" />
    <glyph glyph-name="Omacron" unicode="&#x14c;" horiz-adv-x="1300" 
d="M925 855h-549v26h549v-26zM650 720q336 0 458 -122q89 -89 89 -248q0 -156 -90 -246q-124 -124 -457 -124q-335 0 -458 123q-89 89 -89 247q0 157 90 247q123 123 457 123zM650 692q-321 0 -434 -113q-83 -83 -83 -229t83 -229q113 -113 434 -113q320 0 433 113
q84 84 84 229q0 147 -82 229q-113 113 -435 113z" />
    <glyph glyph-name="omacron" unicode="&#x14d;" horiz-adv-x="1300" 
d="M925 855h-549v26h549v-26zM650 720q336 0 458 -122q89 -89 89 -248q0 -156 -90 -246q-124 -124 -457 -124q-335 0 -458 123q-89 89 -89 247q0 157 90 247q123 123 457 123zM650 692q-321 0 -434 -113q-83 -83 -83 -229t83 -229q113 -113 434 -113q320 0 433 113
q84 84 84 229q0 147 -82 229q-113 113 -435 113z" />
    <glyph glyph-name="Obreve" unicode="&#x14e;" horiz-adv-x="1300" 
d="M650 825q-82 0 -150.5 30t-100.5 63v30h4q39 -39 103 -67t144 -28q81 0 145 27.5t103 66.5h4v-30q-32 -33 -100.5 -62.5t-151.5 -29.5zM650 720q336 0 458 -122q89 -89 89 -248q0 -156 -90 -246q-124 -124 -457 -124q-335 0 -458 123q-89 89 -89 247q0 157 90 247
q123 123 457 123zM650 692q-321 0 -434 -113q-83 -83 -83 -229t83 -229q113 -113 434 -113q320 0 433 113q84 84 84 229q0 147 -82 229q-113 113 -435 113z" />
    <glyph glyph-name="obreve" unicode="&#x14f;" horiz-adv-x="1300" 
d="M650 825q-82 0 -150.5 30t-100.5 63v30h4q39 -39 103 -67t144 -28q81 0 145 27.5t103 66.5h4v-30q-32 -33 -100.5 -62.5t-151.5 -29.5zM650 720q336 0 458 -122q89 -89 89 -248q0 -156 -90 -246q-124 -124 -457 -124q-335 0 -458 123q-89 89 -89 247q0 157 90 247
q123 123 457 123zM650 692q-321 0 -434 -113q-83 -83 -83 -229t83 -229q113 -113 434 -113q320 0 433 113q84 84 84 229q0 147 -82 229q-113 113 -435 113z" />
    <glyph glyph-name="Ohungarumlaut" unicode="&#x150;" horiz-adv-x="1300" 
d="M481 815v2l225 139h49v-2l-239 -139h-35zM726 815v2l225 139h49v-2l-239 -139h-35zM650 720q336 0 458 -122q89 -89 89 -248q0 -156 -90 -246q-124 -124 -457 -124q-335 0 -458 123q-89 89 -89 247q0 157 90 247q123 123 457 123zM650 692q-321 0 -434 -113
q-83 -83 -83 -229t83 -229q113 -113 434 -113q320 0 433 113q84 84 84 229q0 147 -82 229q-113 113 -435 113z" />
    <glyph glyph-name="ohungarumlaut" unicode="&#x151;" horiz-adv-x="1300" 
d="M481 815v2l225 139h49v-2l-239 -139h-35zM726 815v2l225 139h49v-2l-239 -139h-35zM650 720q336 0 458 -122q89 -89 89 -248q0 -156 -90 -246q-124 -124 -457 -124q-335 0 -458 123q-89 89 -89 247q0 157 90 247q123 123 457 123zM650 692q-321 0 -434 -113
q-83 -83 -83 -229t83 -229q113 -113 434 -113q320 0 433 113q84 84 84 229q0 147 -82 229q-113 113 -435 113z" />
    <glyph glyph-name="OE" unicode="&#x152;" horiz-adv-x="1841" 
d="M1741 700v-28h-770v-304h756v-28h-756v-312h770v-28h-1143q-295 0 -406 111q-92 92 -92 239t92 239q111 111 406 111h1143zM944 28v644h-346q-163 0 -250 -27t-138 -78q-80 -80 -80 -217t80 -217q51 -51 138 -78t250 -27h346z" />
    <glyph glyph-name="oe" unicode="&#x153;" horiz-adv-x="1841" 
d="M1741 700v-28h-770v-304h756v-28h-756v-312h770v-28h-1143q-295 0 -406 111q-92 92 -92 239t92 239q111 111 406 111h1143zM944 28v644h-346q-163 0 -250 -27t-138 -78q-80 -80 -80 -217t80 -217q51 -51 138 -78t250 -27h346z" />
    <glyph glyph-name="Racute" unicode="&#x154;" horiz-adv-x="1247" 
d="M166 700h558q151 0 220.5 -15.5t104.5 -50.5q54 -54 54 -143t-52 -141q-37 -37 -108.5 -56t-218.5 -19h-10l468 -272v-3h-50l-468 275h-469v-275h-29v700zM195 672v-369h527q137 0 206.5 17t102.5 50q42 42 42 121t-44 123q-32 32 -98.5 45t-208.5 13h-527zM534 800v2
l272 130h61v-2l-294 -130h-39z" />
    <glyph glyph-name="racute" unicode="&#x155;" horiz-adv-x="1247" 
d="M166 700h558q151 0 220.5 -15.5t104.5 -50.5q54 -54 54 -143t-52 -141q-37 -37 -108.5 -56t-218.5 -19h-10l468 -272v-3h-50l-468 275h-469v-275h-29v700zM195 672v-369h527q137 0 206.5 17t102.5 50q42 42 42 121t-44 123q-32 32 -98.5 45t-208.5 13h-527zM534 800v2
l272 130h61v-2l-294 -130h-39z" />
    <glyph glyph-name="Rcommaaccent" unicode="&#x156;" horiz-adv-x="1247" 
d="M166 700h558q151 0 220.5 -15.5t104.5 -50.5q54 -54 54 -143t-52 -141q-37 -37 -108.5 -56t-218.5 -19h-10l468 -272v-3h-50l-468 275h-469v-275h-29v700zM195 672v-369h527q137 0 206.5 17t102.5 50q42 42 42 121t-44 123q-32 32 -98.5 45t-208.5 13h-527zM428 -292
l82 78q38 36 50 64.5t8 74.5h32q5 -47 -11.5 -81t-69.5 -81l-61 -55h-30z" />
    <glyph glyph-name="rcommaaccent" unicode="&#x157;" horiz-adv-x="1247" 
d="M166 700h558q151 0 220.5 -15.5t104.5 -50.5q54 -54 54 -143t-52 -141q-37 -37 -108.5 -56t-218.5 -19h-10l468 -272v-3h-50l-468 275h-469v-275h-29v700zM195 672v-369h527q137 0 206.5 17t102.5 50q42 42 42 121t-44 123q-32 32 -98.5 45t-208.5 13h-527zM428 -292
l82 78q38 36 50 64.5t8 74.5h32q5 -47 -11.5 -81t-69.5 -81l-61 -55h-30z" />
    <glyph glyph-name="Rcaron" unicode="&#x158;" horiz-adv-x="1247" 
d="M166 700h558q151 0 220.5 -15.5t104.5 -50.5q54 -54 54 -143t-52 -141q-37 -37 -108.5 -56t-218.5 -19h-10l468 -272v-3h-50l-468 275h-469v-275h-29v700zM195 672v-369h527q137 0 206.5 17t102.5 50q42 42 42 121t-44 123q-32 32 -98.5 45t-208.5 13h-527zM854 926v-2
l-236 -135h-47l-236 135v2h37l222 -117l223 117h37z" />
    <glyph glyph-name="rcaron" unicode="&#x159;" horiz-adv-x="1247" 
d="M166 700h558q151 0 220.5 -15.5t104.5 -50.5q54 -54 54 -143t-52 -141q-37 -37 -108.5 -56t-218.5 -19h-10l468 -272v-3h-50l-468 275h-469v-275h-29v700zM195 672v-369h527q137 0 206.5 17t102.5 50q42 42 42 121t-44 123q-32 32 -98.5 45t-208.5 13h-527zM854 926v-2
l-236 -135h-47l-236 135v2h37l222 -117l223 117h37z" />
    <glyph glyph-name="Sacute" unicode="&#x15a;" horiz-adv-x="1163" 
d="M609 13q305 0 382 77q37 37 37 96q0 58 -30 88q-26 26 -109.5 42.5t-296.5 26.5q-201 9 -293.5 28t-124.5 51q-37 37 -37 99q0 69 42 111q82 82 386 82q241 0 439 -64v-30q-200 66 -440 66q-290 0 -363 -73q-34 -34 -34 -91q0 -50 30 -80q28 -28 116.5 -44.5t291.5 -26.5
q219 -11 301 -28.5t115 -50.5q37 -37 37 -106q0 -71 -43 -114q-24 -24 -57.5 -40.5t-124.5 -31.5t-226 -15q-291 0 -498 81v30q91 -36 225 -59.5t275 -23.5zM535 815v2l272 130h61v-2l-294 -130h-39z" />
    <glyph glyph-name="sacute" unicode="&#x15b;" horiz-adv-x="1163" 
d="M609 13q305 0 382 77q37 37 37 96q0 58 -30 88q-26 26 -109.5 42.5t-296.5 26.5q-201 9 -293.5 28t-124.5 51q-37 37 -37 99q0 69 42 111q82 82 386 82q241 0 439 -64v-30q-200 66 -440 66q-290 0 -363 -73q-34 -34 -34 -91q0 -50 30 -80q28 -28 116.5 -44.5t291.5 -26.5
q219 -11 301 -28.5t115 -50.5q37 -37 37 -106q0 -71 -43 -114q-24 -24 -57.5 -40.5t-124.5 -31.5t-226 -15q-291 0 -498 81v30q91 -36 225 -59.5t275 -23.5zM535 815v2l272 130h61v-2l-294 -130h-39z" />
    <glyph glyph-name="Scedilla" unicode="&#x15e;" horiz-adv-x="1163" 
d="M609 13q305 0 382 77q37 37 37 96q0 58 -30 88q-26 26 -109.5 42.5t-296.5 26.5q-201 9 -293.5 28t-124.5 51q-37 37 -37 99q0 69 42 111q82 82 386 82q241 0 439 -64v-30q-200 66 -440 66q-290 0 -363 -73q-34 -34 -34 -91q0 -50 30 -80q28 -28 116.5 -44.5t291.5 -26.5
q219 -11 301 -28.5t115 -50.5q37 -37 37 -106q0 -71 -43 -114q-17 -17 -40 -30t-66.5 -27t-118.5 -22t-176 -8l-215 -181h-42l226 181q-282 4 -474 81v30q91 -36 225 -59.5t275 -23.5z" />
    <glyph glyph-name="scedilla" unicode="&#x15f;" horiz-adv-x="1163" 
d="M609 13q305 0 382 77q37 37 37 96q0 58 -30 88q-26 26 -109.5 42.5t-296.5 26.5q-201 9 -293.5 28t-124.5 51q-37 37 -37 99q0 69 42 111q82 82 386 82q241 0 439 -64v-30q-200 66 -440 66q-290 0 -363 -73q-34 -34 -34 -91q0 -50 30 -80q28 -28 116.5 -44.5t291.5 -26.5
q219 -11 301 -28.5t115 -50.5q37 -37 37 -106q0 -71 -43 -114q-17 -17 -40 -30t-66.5 -27t-118.5 -22t-176 -8l-215 -181h-42l226 181q-282 4 -474 81v30q91 -36 225 -59.5t275 -23.5z" />
    <glyph glyph-name="Scaron" unicode="&#x160;" horiz-adv-x="1163" 
d="M609 13q305 0 382 77q37 37 37 96q0 58 -30 88q-26 26 -109.5 42.5t-296.5 26.5q-201 9 -293.5 28t-124.5 51q-37 37 -37 99q0 69 42 111q82 82 386 82q241 0 439 -64v-30q-200 66 -440 66q-290 0 -363 -73q-34 -34 -34 -91q0 -50 30 -80q28 -28 116.5 -44.5t291.5 -26.5
q219 -11 301 -28.5t115 -50.5q37 -37 37 -106q0 -71 -43 -114q-24 -24 -57.5 -40.5t-124.5 -31.5t-226 -15q-291 0 -498 81v30q91 -36 225 -59.5t275 -23.5zM855 941v-2l-236 -135h-47l-236 135v2h37l222 -117l223 117h37z" />
    <glyph glyph-name="scaron" unicode="&#x161;" horiz-adv-x="1163" 
d="M609 13q305 0 382 77q37 37 37 96q0 58 -30 88q-26 26 -109.5 42.5t-296.5 26.5q-201 9 -293.5 28t-124.5 51q-37 37 -37 99q0 69 42 111q82 82 386 82q241 0 439 -64v-30q-200 66 -440 66q-290 0 -363 -73q-34 -34 -34 -91q0 -50 30 -80q28 -28 116.5 -44.5t291.5 -26.5
q219 -11 301 -28.5t115 -50.5q37 -37 37 -106q0 -71 -43 -114q-24 -24 -57.5 -40.5t-124.5 -31.5t-226 -15q-291 0 -498 81v30q91 -36 225 -59.5t275 -23.5zM855 941v-2l-236 -135h-47l-236 135v2h37l222 -117l223 117h37z" />
    <glyph glyph-name="Tcommaaccent" unicode="&#x162;" horiz-adv-x="1153" 
d="M1096 700v-28h-505v-672h-29v672h-505v28h1039zM410 -317l82 78q38 36 50 64.5t8 74.5h32q5 -47 -12 -81t-69 -81l-61 -55h-30z" />
    <glyph glyph-name="Tcommaaccent" unicode="&#x21a;" horiz-adv-x="1153" 
d="M1096 700v-28h-505v-672h-29v672h-505v28h1039zM410 -317l82 78q38 36 50 64.5t8 74.5h32q5 -47 -12 -81t-69 -81l-61 -55h-30z" />
    <glyph glyph-name="tcommaaccent" unicode="&#x163;" horiz-adv-x="1153" 
d="M1096 700v-28h-505v-672h-29v672h-505v28h1039zM410 -317l82 78q38 36 50 64.5t8 74.5h32q5 -47 -12 -81t-69 -81l-61 -55h-30z" />
    <glyph glyph-name="tcommaaccent" unicode="&#x21b;" horiz-adv-x="1153" 
d="M1096 700v-28h-505v-672h-29v672h-505v28h1039zM410 -317l82 78q38 36 50 64.5t8 74.5h32q5 -47 -12 -81t-69 -81l-61 -55h-30z" />
    <glyph glyph-name="Tcaron" unicode="&#x164;" horiz-adv-x="1153" 
d="M1096 700v-28h-505v-672h-29v672h-505v28h1039zM836 926v-2l-236 -135h-47l-236 135v2h37l222 -117l223 117h37z" />
    <glyph glyph-name="tcaron" unicode="&#x165;" horiz-adv-x="1153" 
d="M1096 700v-28h-505v-672h-29v672h-505v28h1039zM836 926v-2l-236 -135h-47l-236 135v2h37l222 -117l223 117h37z" />
    <glyph glyph-name="Umacron" unicode="&#x16a;" horiz-adv-x="1244" 
d="M622 12q280 0 382 102q69 69 69 207v379h29v-389q0 -77 -18 -128t-58 -91q-108 -108 -404 -108t-404 108q-40 40 -58 91t-18 128v389h29v-379q0 -138 69 -207q102 -102 382 -102zM897 810h-549v26h549v-26z" />
    <glyph glyph-name="umacron" unicode="&#x16b;" horiz-adv-x="1244" 
d="M622 12q280 0 382 102q69 69 69 207v379h29v-389q0 -77 -18 -128t-58 -91q-108 -108 -404 -108t-404 108q-40 40 -58 91t-18 128v389h29v-379q0 -138 69 -207q102 -102 382 -102zM897 810h-549v26h549v-26z" />
    <glyph glyph-name="Ubreve" unicode="&#x16c;" horiz-adv-x="1244" 
d="M622 12q280 0 382 102q69 69 69 207v379h29v-389q0 -77 -18 -128t-58 -91q-108 -108 -404 -108t-404 108q-40 40 -58 91t-18 128v389h29v-379q0 -138 69 -207q102 -102 382 -102zM622 780q-82 0 -150.5 30t-100.5 63v30h4q39 -39 103 -67t144 -28q81 0 145 27.5t103 66.5
h4v-30q-32 -33 -100.5 -62.5t-151.5 -29.5z" />
    <glyph glyph-name="ubreve" unicode="&#x16d;" horiz-adv-x="1244" 
d="M622 12q280 0 382 102q69 69 69 207v379h29v-389q0 -77 -18 -128t-58 -91q-108 -108 -404 -108t-404 108q-40 40 -58 91t-18 128v389h29v-379q0 -138 69 -207q102 -102 382 -102zM622 780q-82 0 -150.5 30t-100.5 63v30h4q39 -39 103 -67t144 -28q81 0 145 27.5t103 66.5
h4v-30q-32 -33 -100.5 -62.5t-151.5 -29.5z" />
    <glyph glyph-name="Uring" unicode="&#x16e;" horiz-adv-x="1244" 
d="M622 12q280 0 382 102q69 69 69 207v379h29v-389q0 -77 -18 -128t-58 -91q-108 -108 -404 -108t-404 108q-40 40 -58 91t-18 128v389h29v-379q0 -138 69 -207q102 -102 382 -102zM622 700q-165 0 -215 50q-33 33 -33 86q0 52 33 85q51 51 215 51q165 0 216 -51
q32 -32 32 -85q0 -54 -32 -86q-50 -50 -216 -50zM622 728q152 0 194 42q24 24 24 66q0 41 -24 65q-43 43 -194 43q-150 0 -193 -43q-25 -25 -25 -65q0 -41 25 -66q42 -42 193 -42z" />
    <glyph glyph-name="uring" unicode="&#x16f;" horiz-adv-x="1244" 
d="M622 12q280 0 382 102q69 69 69 207v379h29v-389q0 -77 -18 -128t-58 -91q-108 -108 -404 -108t-404 108q-40 40 -58 91t-18 128v389h29v-379q0 -138 69 -207q102 -102 382 -102zM622 700q-165 0 -215 50q-33 33 -33 86q0 52 33 85q51 51 215 51q165 0 216 -51
q32 -32 32 -85q0 -54 -32 -86q-50 -50 -216 -50zM622 728q152 0 194 42q24 24 24 66q0 41 -24 65q-43 43 -194 43q-150 0 -193 -43q-25 -25 -25 -65q0 -41 25 -66q42 -42 193 -42z" />
    <glyph glyph-name="Uhungarumlaut" unicode="&#x170;" horiz-adv-x="1244" 
d="M622 12q280 0 382 102q69 69 69 207v379h29v-389q0 -77 -18 -128t-58 -91q-108 -108 -404 -108t-404 108q-40 40 -58 91t-18 128v389h29v-379q0 -138 69 -207q102 -102 382 -102zM453 770v2l225 139h49v-2l-239 -139h-35zM698 770v2l225 139h49v-2l-239 -139h-35z" />
    <glyph glyph-name="uhungarumlaut" unicode="&#x171;" horiz-adv-x="1244" 
d="M622 12q280 0 382 102q69 69 69 207v379h29v-389q0 -77 -18 -128t-58 -91q-108 -108 -404 -108t-404 108q-40 40 -58 91t-18 128v389h29v-379q0 -138 69 -207q102 -102 382 -102zM453 770v2l225 139h49v-2l-239 -139h-35zM698 770v2l225 139h49v-2l-239 -139h-35z" />
    <glyph glyph-name="Uogonek" unicode="&#x172;" horiz-adv-x="1244" 
d="M830 -133v-27q-87 -21 -195 -21q-146 0 -180 34q-14 14 -14 36q0 23 14 36q26 27 124 60q-263 8 -361 107q-40 40 -58 91t-18 128v389h29v-379q0 -138 69 -207q102 -102 382 -102t382 102q69 69 69 207v379h29v-389q0 -77 -18 -128t-58 -91q-106 -106 -391 -108l-26 -9
q-110 -40 -134 -62q-8 -8 -8 -23q0 -14 8 -21q25 -25 160 -25q108 0 195 23z" />
    <glyph glyph-name="uogonek" unicode="&#x173;" horiz-adv-x="1244" 
d="M830 -133v-27q-87 -21 -195 -21q-146 0 -180 34q-14 14 -14 36q0 23 14 36q26 27 124 60q-263 8 -361 107q-40 40 -58 91t-18 128v389h29v-379q0 -138 69 -207q102 -102 382 -102t382 102q69 69 69 207v379h29v-389q0 -77 -18 -128t-58 -91q-106 -106 -391 -108l-26 -9
q-110 -40 -134 -62q-8 -8 -8 -23q0 -14 8 -21q25 -25 160 -25q108 0 195 23z" />
    <glyph glyph-name="Wcircumflex" unicode="&#x174;" horiz-adv-x="1812" 
d="M1708 700h34l-405 -704h-41l-395 669l-365 -669h-41l-425 704h36l410 -684l368 679h36l397 -679zM647 799v2l236 135h47l236 -135v-2h-37l-223 116l-222 -116h-37z" />
    <glyph glyph-name="wcircumflex" unicode="&#x175;" horiz-adv-x="1812" 
d="M1708 700h34l-405 -704h-41l-395 669l-365 -669h-41l-425 704h36l410 -684l368 679h36l397 -679zM647 799v2l236 135h47l236 -135v-2h-37l-223 116l-222 -116h-37z" />
    <glyph glyph-name="Ycircumflex" unicode="&#x176;" horiz-adv-x="1111" 
d="M556 319l471 381h44l-501 -406v-294h-29v294l-501 406h44zM296 769v2l236 135h47l236 -135v-2h-37l-223 116l-222 -116h-37z" />
    <glyph glyph-name="ycircumflex" unicode="&#x177;" horiz-adv-x="1111" 
d="M556 319l471 381h44l-501 -406v-294h-29v294l-501 406h44zM296 769v2l236 135h47l236 -135v-2h-37l-223 116l-222 -116h-37z" />
    <glyph glyph-name="Ydieresis" unicode="&#x178;" horiz-adv-x="1111" 
d="M556 319l471 381h44l-501 -406v-294h-29v294l-501 406h44zM432 836v-47h-58v47h58zM737 836v-47h-58v47h58z" />
    <glyph glyph-name="Zacute" unicode="&#x179;" horiz-adv-x="1150" 
d="M125 673v27h943v-9l-904 -663h894v-28h-968v9l905 664h-870zM526 800v2l272 130h61v-2l-294 -130h-39z" />
    <glyph glyph-name="zacute" unicode="&#x17a;" horiz-adv-x="1150" 
d="M125 673v27h943v-9l-904 -663h894v-28h-968v9l905 664h-870zM526 800v2l272 130h61v-2l-294 -130h-39z" />
    <glyph glyph-name="Zdotaccent" unicode="&#x17b;" horiz-adv-x="1150" 
d="M125 673v27h943v-9l-904 -663h894v-28h-968v9l905 664h-870zM615 871v-52h-61v52h61z" />
    <glyph glyph-name="zdotaccent" unicode="&#x17c;" horiz-adv-x="1150" 
d="M125 673v27h943v-9l-904 -663h894v-28h-968v9l905 664h-870zM615 871v-52h-61v52h61z" />
    <glyph glyph-name="Zcaron" unicode="&#x17d;" horiz-adv-x="1150" 
d="M125 673v27h943v-9l-904 -663h894v-28h-968v9l905 664h-870zM846 926v-2l-236 -135h-47l-236 135v2h37l222 -117l223 117h37z" />
    <glyph glyph-name="zcaron" unicode="&#x17e;" horiz-adv-x="1150" 
d="M125 673v27h943v-9l-904 -663h894v-28h-968v9l905 664h-870zM846 926v-2l-236 -135h-47l-236 135v2h37l222 -117l223 117h37z" />
    <glyph glyph-name="Aringacute" unicode="&#x1fa;" horiz-adv-x="1220" 
d="M610 889q165 0 216 -51q32 -32 32 -85q0 -54 -32 -86q-40 -40 -143 -48l472 -619h-38l-133 175h-750l-132 -175h-37l471 619q-103 8 -141 48q-33 33 -33 86q0 52 33 85q51 51 215 51zM610 617h-13h-14.5h-12.5l-314 -414h707l-314 414q0 -1 -19 -1zM610 645q152 0 194 42
q24 24 24 66q0 41 -24 65q-43 43 -194 43q-150 0 -193 -43q-25 -25 -25 -65q0 -41 25 -66q42 -42 193 -42zM547 944v2l272 130h61v-2l-294 -130h-39z" />
    <glyph glyph-name="aringacute" unicode="&#x1fb;" horiz-adv-x="1220" 
d="M610 889q165 0 216 -51q32 -32 32 -85q0 -54 -32 -86q-40 -40 -143 -48l472 -619h-38l-133 175h-750l-132 -175h-37l471 619q-103 8 -141 48q-33 33 -33 86q0 52 33 85q51 51 215 51zM610 617h-13h-14.5h-12.5l-314 -414h707l-314 414q0 -1 -19 -1zM610 645q152 0 194 42
q24 24 24 66q0 41 -24 65q-43 43 -194 43q-150 0 -193 -43q-25 -25 -25 -65q0 -41 25 -66q42 -42 193 -42zM547 944v2l272 130h61v-2l-294 -130h-39z" />
    <glyph glyph-name="AEacute" unicode="&#x1fc;" horiz-adv-x="1831" 
d="M958 368h756v-28h-756v-312h770v-28h-797v180h-618l-226 -180h-47l883 700h805v-28h-770v-304zM348 208h583v462zM1034 800v2l272 130h61v-2l-294 -130h-39z" />
    <glyph glyph-name="aeacute" unicode="&#x1fd;" horiz-adv-x="1831" 
d="M958 368h756v-28h-756v-312h770v-28h-797v180h-618l-226 -180h-47l883 700h805v-28h-770v-304zM348 208h583v462zM1034 800v2l272 130h61v-2l-294 -130h-39z" />
    <glyph glyph-name="Oslashacute" unicode="&#x1fe;" horiz-adv-x="1260" 
d="M103 350q0 149 92 241q125 125 435 125q312 0 436 -124q91 -91 91 -242q0 -149 -92 -241q-125 -125 -435 -125q-312 0 -436 124q-91 91 -91 242zM1127 350q0 102 -47 175l-885 -373q8 -11 28 -31q109 -109 407 -109t407 109q90 90 90 229zM133 350q0 -103 45 -175
l887 373q-14 16 -28 31q-109 109 -407 109t-407 -109q-90 -90 -90 -229zM570 815v2l272 130h61v-2l-294 -130h-39z" />
    <glyph glyph-name="oslashacute" unicode="&#x1ff;" horiz-adv-x="1260" 
d="M103 350q0 149 92 241q125 125 435 125q312 0 436 -124q91 -91 91 -242q0 -149 -92 -241q-125 -125 -435 -125q-312 0 -436 124q-91 91 -91 242zM1127 350q0 102 -47 175l-885 -373q8 -11 28 -31q109 -109 407 -109t407 109q90 90 90 229zM133 350q0 -103 45 -175
l887 373q-14 16 -28 31q-109 109 -407 109t-407 -109q-90 -90 -90 -229zM570 815v2l272 130h61v-2l-294 -130h-39z" />
    <glyph glyph-name="Scommaaccent" unicode="&#x218;" horiz-adv-x="1163" 
d="M609 13q305 0 382 77q37 37 37 96q0 58 -30 88q-26 26 -109.5 42.5t-296.5 26.5q-201 9 -293.5 28t-124.5 51q-37 37 -37 99q0 69 42 111q82 82 386 82q241 0 439 -64v-30q-200 66 -440 66q-290 0 -363 -73q-34 -34 -34 -91q0 -50 30 -80q28 -28 116.5 -44.5t291.5 -26.5
q219 -11 301 -28.5t115 -50.5q37 -37 37 -106q0 -71 -43 -114q-24 -24 -57.5 -40.5t-124.5 -31.5t-226 -15q-291 0 -498 81v30q91 -36 225 -59.5t275 -23.5zM449 -317l82 78q38 36 50 64.5t8 74.5h32q5 -47 -12 -81t-69 -81l-61 -55h-30z" />
    <glyph glyph-name="scommaaccent" unicode="&#x219;" horiz-adv-x="1163" 
d="M609 13q305 0 382 77q37 37 37 96q0 58 -30 88q-26 26 -109.5 42.5t-296.5 26.5q-201 9 -293.5 28t-124.5 51q-37 37 -37 99q0 69 42 111q82 82 386 82q241 0 439 -64v-30q-200 66 -440 66q-290 0 -363 -73q-34 -34 -34 -91q0 -50 30 -80q28 -28 116.5 -44.5t291.5 -26.5
q219 -11 301 -28.5t115 -50.5q37 -37 37 -106q0 -71 -43 -114q-24 -24 -57.5 -40.5t-124.5 -31.5t-226 -15q-291 0 -498 81v30q91 -36 225 -59.5t275 -23.5zM449 -317l82 78q38 36 50 64.5t8 74.5h32q5 -47 -12 -81t-69 -81l-61 -55h-30z" />
    <glyph glyph-name="circumflex" unicode="&#x2c6;" horiz-adv-x="719" 
d="M100 799v2l236 135h47l236 -135v-2h-37l-223 116l-222 -116h-37z" />
    <glyph glyph-name="caron" unicode="&#x2c7;" horiz-adv-x="719" 
d="M619 926v-2l-236 -135h-47l-236 135v2h37l222 -117l223 117h37z" />
    <glyph glyph-name="breve" unicode="&#x2d8;" horiz-adv-x="703" 
d="M351 810q-82 0 -150.5 30t-100.5 63v30h4q39 -39 103 -67t144 -28q81 0 145 27.5t103 66.5h4v-30q-32 -33 -100.5 -62.5t-151.5 -29.5z" />
    <glyph glyph-name="dotaccent" unicode="&#x2d9;" horiz-adv-x="464" 
d="M261 871v-52h-61v52h61z" />
    <glyph glyph-name="ring" unicode="&#x2da;" horiz-adv-x="694" 
d="M347 730q-165 0 -215 50q-33 33 -33 86q0 52 33 85q51 51 215 51q165 0 216 -51q32 -32 32 -85q0 -54 -32 -86q-50 -50 -216 -50zM347 758q152 0 194 42q24 24 24 66q0 41 -24 65q-43 43 -194 43q-150 0 -193 -43q-25 -25 -25 -65q0 -41 25 -66q42 -42 193 -42z" />
    <glyph glyph-name="ogonek" unicode="&#x2db;" horiz-adv-x="567" 
d="M453 -133v-27q-87 -21 -195 -21q-146 0 -180 34q-14 14 -14 36q0 23 14 36q29 29 161 72l39 13l26 -10l-72 -25q-110 -40 -134 -62q-8 -8 -8 -23q0 -14 8 -21q25 -25 160 -25q108 0 195 23z" />
    <glyph glyph-name="tilde" unicode="&#x2dc;" horiz-adv-x="746" 
d="M110 869q31 38 59.5 55.5t69.5 17.5q34 0 94 -25l84 -39q51 -24 89 -24q37 0 63 17.5t63 60.5h4v-33q-30 -37 -59.5 -55t-69.5 -18q-34 0 -94 25l-84 39q-51 24 -89 24t-63.5 -17.5t-62.5 -60.5h-4v33z" />
    <glyph glyph-name="hungarumlaut" unicode="&#x2dd;" horiz-adv-x="719" 
d="M100 800v2l225 139h49v-2l-239 -139h-35zM345 800v2l225 139h49v-2l-239 -139h-35z" />
    <glyph glyph-name="commaaccent" unicode="&#x326;" horiz-adv-x="368" 
d="M85 -317l82 78q38 36 50 64.5t8 74.5h32q5 -47 -12 -81t-69 -81l-61 -55h-30z" />
    <glyph glyph-name="Wgrave" unicode="&#x1e80;" horiz-adv-x="1812" 
d="M1708 700h34l-405 -704h-41l-395 669l-365 -669h-41l-425 704h36l410 -684l368 679h36l397 -679zM965 802v-2h-39l-294 130v2h61z" />
    <glyph glyph-name="wgrave" unicode="&#x1e81;" horiz-adv-x="1812" 
d="M1708 700h34l-405 -704h-41l-395 669l-365 -669h-41l-425 704h36l410 -684l368 679h36l397 -679zM965 802v-2h-39l-294 130v2h61z" />
    <glyph glyph-name="Wacute" unicode="&#x1e82;" horiz-adv-x="1812" 
d="M1708 700h34l-405 -704h-41l-395 669l-365 -669h-41l-425 704h36l410 -684l368 679h36l397 -679zM846 800v2l272 130h61v-2l-294 -130h-39z" />
    <glyph glyph-name="wacute" unicode="&#x1e83;" horiz-adv-x="1812" 
d="M1708 700h34l-405 -704h-41l-395 669l-365 -669h-41l-425 704h36l410 -684l368 679h36l397 -679zM846 800v2l272 130h61v-2l-294 -130h-39z" />
    <glyph glyph-name="Wdieresis" unicode="&#x1e84;" horiz-adv-x="1812" 
d="M1708 700h34l-405 -704h-41l-395 669l-365 -669h-41l-425 704h36l410 -684l368 679h36l397 -679zM783 866v-47h-58v47h58zM1088 866v-47h-58v47h58z" />
    <glyph glyph-name="wdieresis" unicode="&#x1e85;" horiz-adv-x="1812" 
d="M1708 700h34l-405 -704h-41l-395 669l-365 -669h-41l-425 704h36l410 -684l368 679h36l397 -679zM783 866v-47h-58v47h58zM1088 866v-47h-58v47h58z" />
    <glyph glyph-name="Ygrave" unicode="&#x1ef2;" horiz-adv-x="1111" 
d="M556 319l471 381h44l-501 -406v-294h-29v294l-501 406h44zM614 772v-2h-39l-294 130v2h61z" />
    <glyph glyph-name="ygrave" unicode="&#x1ef3;" horiz-adv-x="1111" 
d="M556 319l471 381h44l-501 -406v-294h-29v294l-501 406h44zM614 772v-2h-39l-294 130v2h61z" />
    <glyph glyph-name="enspace" unicode="&#x2002;" horiz-adv-x="500" 
 />
    <glyph glyph-name="emspace" unicode="&#x2003;" horiz-adv-x="1000" 
 />
    <glyph glyph-name="threeperemspace" unicode="&#x2004;" horiz-adv-x="333" 
 />
    <glyph glyph-name="fourperemspace" unicode="&#x2005;" horiz-adv-x="250" 
 />
    <glyph glyph-name="thinspace" unicode="&#x2009;" horiz-adv-x="133" 
 />
    <glyph glyph-name="hairspace" unicode="&#x200a;" horiz-adv-x="75" 
 />
    <glyph glyph-name="endash" unicode="&#x2013;" horiz-adv-x="1058" 
d="M948 368v-29h-838v29h838z" />
    <glyph glyph-name="emdash" unicode="&#x2014;" horiz-adv-x="1612" 
d="M1502 368v-29h-1392v29h1392z" />
    <glyph glyph-name="quoteleft" unicode="&#x2018;" horiz-adv-x="394" 
d="M318 716h30l-242 -319h-41z" />
    <glyph glyph-name="quoteright" unicode="&#x2019;" horiz-adv-x="394" 
d="M70 397h-30l242 319h41z" />
    <glyph glyph-name="quotesinglbase" unicode="&#x201a;" horiz-adv-x="398" 
d="M20 -191h-30l242 319h41z" />
    <glyph glyph-name="quotedblleft" unicode="&#x201c;" horiz-adv-x="672" 
d="M318 716h30l-242 -319h-41zM596 716h30l-242 -319h-41z" />
    <glyph glyph-name="quotedblright" unicode="&#x201d;" horiz-adv-x="672" 
d="M70 397h-30l242 319h41zM348 397h-30l242 319h41z" />
    <glyph glyph-name="quotedblbase" unicode="&#x201e;" horiz-adv-x="676" 
d="M20 -191h-30l242 319h41zM298 -191h-30l242 319h41z" />
    <glyph glyph-name="dagger" unicode="&#x2020;" horiz-adv-x="656" 
d="M341 154h-26l2 347l-242 -2v27l242 -2l-2 176h26l-2 -176l242 2v-27l-242 2z" />
    <glyph glyph-name="daggerdbl" unicode="&#x2021;" horiz-adv-x="656" 
d="M75 526l242 -2l-2 176h26l-2 -176l242 2v-27l-241 2v-168l241 2v-27l-242 2l2 -176h-26l2 176l-242 -2v27l241 -2v168l-241 -2v27z" />
    <glyph glyph-name="bullet" unicode="&#x2022;" horiz-adv-x="531" 
d="M139 360q0 40 23 63q26 26 103 26t105 -26q22 -22 22 -63t-22 -63q-28 -26 -105 -26t-103 26q-23 23 -23 63z" />
    <glyph glyph-name="ellipsis" unicode="&#x2026;" horiz-adv-x="1083" 
d="M207 0h-57v55h57v-55zM566 0h-57v55h57v-55zM933 0h-57v55h57v-55z" />
    <glyph glyph-name="guilsinglleft" unicode="&#x2039;" horiz-adv-x="514" 
d="M114 358l320 -204h-43l-311 197v13l311 198h41z" />
    <glyph glyph-name="guilsinglright" unicode="&#x203a;" horiz-adv-x="514" 
d="M400 358l-320 204h43l311 -197v-13l-311 -198h-41z" />
    <glyph glyph-name="Euro" unicode="&#x20ac;" horiz-adv-x="1219" 
d="M81 418v26h144q17 104 76 163q54 54 142.5 81.5t255.5 27.5q101 0 194.5 -11.5t134.5 -21.5t104 -28v-31q-195 64 -433 64q-155 0 -239 -23t-135 -74t-70 -147h714v-26h-719q-4 -29 -4 -68q0 -44 5 -74h718v-26h-714q19 -94 68 -141q50 -50 135.5 -73.5t240.5 -23.5
q259 0 435 64v-31q-185 -61 -435 -61q-164 0 -253.5 25.5t-142.5 78.5q-57 56 -77 162h-145v26h141q-4 32 -4 74q0 34 3 68h-140z" />
    <glyph glyph-name="published" unicode="&#x2117;" horiz-adv-x="1405" 
d="M702 -95q-362 0 -495 133q-104 104 -104 310q0 204 105 309q134 134 494 134q363 0 496 -133q104 -104 104 -310q0 -204 -105 -309q-134 -134 -495 -134zM702 -68q350 0 475 125q96 96 96 291t-96 291q-125 125 -475 125q-349 0 -474 -125q-96 -96 -96 -291t96 -291
q125 -125 474 -125zM780 287h-289v-147h-29v407h318q53 0 79 -1.5t63.5 -12t59.5 -32.5q32 -32 32 -83t-32 -83q-22 -22 -58.5 -33t-65 -13t-78.5 -2zM491 315h287q45 0 68.5 1t59 9.5t53.5 26.5q25 25 25 66t-25 66q-16 16 -48.5 24.5t-55.5 9.5t-64 1h-13h-287v-204z" />
    <glyph glyph-name="servicemark" unicode="&#x2120;" horiz-adv-x="1514" 
d="M1343 710h46v-380h-28v358l-267 -358h-35l-266 358l1 -358h-28l-1 380h46l265 -358zM585 688v-26q-97 33 -257 33q-146 0 -183 -37q-17 -17 -17 -42q0 -24 14 -38q28 -28 215 -36q196 -8 231 -43q24 -24 24 -64t-26 -66q-42 -42 -210 -42q-183 0 -285 39v26
q46 -18 125.5 -30t159.5 -12q155 0 192 37q18 18 18 47q0 30 -16 46q-30 30 -222 38q-191 8 -224 41q-22 22 -22 57t23 58q44 44 203 44q169 0 257 -30z" />
    <glyph glyph-name="trademark" unicode="&#x2122;" horiz-adv-x="1433" 
d="M1262 710h46v-380h-28v358l-267 -358h-35l-266 358l1 -358h-28l-1 380h46l265 -358zM578 710v-28h-265v-352h-29v352h-264v28h558z" />
    <glyph glyph-name="minus" unicode="&#x2212;" horiz-adv-x="988" 
d="M888 363v-28h-788v28h788z" />
    <glyph glyph-name="chevron.1_W" unicode="&#xe018;" horiz-adv-x="975" 
d="M144 350l721 -350h-60l-707 345v10l703 345h57z" />
    <glyph glyph-name="chevron.1_E" unicode="&#xe019;" horiz-adv-x="975" 
d="M831 350l-714 350h57l703 -345v-10l-707 -345h-60z" />
    <glyph glyph-name="arrowhead.1_W" unicode="&#xe034;" horiz-adv-x="1123" 
d="M1037 364v-28h-649l-246 3l749 -339h-66l-759 345v10l755 345h63l-742 -339l246 3h649z" />
    <glyph glyph-name="arrowhead.1_E" unicode="&#xe035;" horiz-adv-x="1123" 
d="M735 364l246 -3l-749 339h66l759 -345v-10l-755 -345h-63l742 339l-246 -3h-649v28h649z" />
    <glyph glyph-name="arrowshaft.1" unicode="&#xe044;" horiz-adv-x="880" 
d="M86 364h708v-28h-708v28z" />
    <glyph glyph-name="f_f" unicode="&#xfb00;" horiz-adv-x="2262" 
d="M195 358h819v-28h-819v-330h-29v700h862v-28h-833v-314zM1326 358h819v-28h-819v-330h-29v700h862v-28h-833v-314z" />
    <glyph glyph-name="fi" unicode="&#xfb01;" horiz-adv-x="1536" 
d="M195 358h819v-28h-819v-330h-29v700h862v-28h-833v-314zM1348 0h-29v700h29v-700z" />
    <glyph glyph-name="fl" unicode="&#xfb02;" horiz-adv-x="2212" 
d="M195 358h819v-28h-819v-330h-29v700h862v-28h-833v-314zM1326 28h818v-28h-847v700h29v-672z" />
    <glyph glyph-name="f_f_i" unicode="&#xfb03;" horiz-adv-x="2667" 
d="M195 358h819v-28h-819v-330h-29v700h862v-28h-833v-314zM1326 358h819v-28h-819v-330h-29v700h862v-28h-833v-314zM2479 0h-29v700h29v-700z" />
    <glyph glyph-name="f_f_l" unicode="&#xfb04;" horiz-adv-x="3343" 
d="M195 358h819v-28h-819v-330h-29v700h862v-28h-833v-314zM1326 358h819v-28h-819v-330h-29v700h862v-28h-833v-314zM2457 28h818v-28h-847v700h29v-672z" />
    <glyph glyph-name="G.alt" horiz-adv-x="1247" 
d="M639 688q-174 0 -268 -26.5t-152 -84.5q-86 -86 -86 -227q0 -142 83 -225q113 -113 428 -113q286 0 452 93v212h-545v28h574v-256q-189 -105 -484 -105q-325 0 -448 123q-90 90 -90 243t90 243q62 62 162.5 92.5t283.5 30.5q146 0 268 -23.5t195 -56.5v-32
q-77 38 -199.5 61t-263.5 23z" />
    <glyph glyph-name="Q.alt" horiz-adv-x="1316" 
d="M650 720q336 0 458 -122q89 -89 89 -248q0 -156 -90 -246t-295 -115l339 -143v-3h-57l-335 141q-45 -4 -109 -4q-335 0 -458 123q-89 89 -89 247q0 157 90 247q123 123 457 123zM650 692q-321 0 -434 -113q-83 -83 -83 -229t83 -229q113 -113 434 -113q320 0 433 113
q84 84 84 229q0 147 -82 229q-113 113 -435 113z" />
    <glyph glyph-name="Gbreve.alt" horiz-adv-x="1247" 
d="M639 688q-174 0 -268 -26.5t-152 -84.5q-86 -86 -86 -227q0 -142 83 -225q113 -113 428 -113q286 0 452 93v212h-545v28h574v-256q-189 -105 -484 -105q-325 0 -448 123q-90 90 -90 243t90 243q62 62 162.5 92.5t283.5 30.5q146 0 268 -23.5t195 -56.5v-32
q-77 38 -199.5 61t-263.5 23zM638 825q-82 0 -150.5 30t-100.5 63v30h4q39 -39 103 -67t144 -28q81 0 145 27.5t103 66.5h4v-30q-32 -33 -100.5 -62.5t-151.5 -29.5z" />
    <glyph glyph-name="Gcommaaccent.alt" horiz-adv-x="1247" 
d="M639 688q-174 0 -268 -26.5t-152 -84.5q-86 -86 -86 -227q0 -142 83 -225q113 -113 428 -113q286 0 452 93v212h-545v28h574v-256q-189 -105 -484 -105q-325 0 -448 123q-90 90 -90 243t90 243q62 62 162.5 92.5t283.5 30.5q146 0 268 -23.5t195 -56.5v-32
q-77 38 -199.5 61t-263.5 23zM492 -317l82 78q38 36 50 64.5t8 74.5h32q5 -47 -11.5 -81t-69.5 -81l-61 -55h-30z" />
    <glyph glyph-name="Gdotaccent.alt" horiz-adv-x="1247" 
d="M639 688q-174 0 -268 -26.5t-152 -84.5q-86 -86 -86 -227q0 -142 83 -225q113 -113 428 -113q286 0 452 93v212h-545v28h574v-256q-189 -105 -484 -105q-325 0 -448 123q-90 90 -90 243t90 243q62 62 162.5 92.5t283.5 30.5q146 0 268 -23.5t195 -56.5v-32
q-77 38 -199.5 61t-263.5 23zM667 886v-52h-61v52h61z" />
    <glyph glyph-name="three.alt" horiz-adv-x="1102" 
d="M88 673v27h914v-13l-639 -332l79 9q171 20 283 20q173 0 235 -62q44 -44 44 -116q0 -79 -53 -132q-90 -90 -414 -90q-125 0 -256.5 19.5t-200.5 46.5v31q80 -29 210 -49t249 -20q310 0 393 83q42 42 42 111q0 60 -36 96q-28 28 -76 41.5t-140 13.5q-109 0 -282 -18
l-174 -18v11l653 341h-831z" />
    <glyph glyph-name="four.alt" horiz-adv-x="1252" 
d="M927 0h-30v188h-835v13l843 499h53l-813 -483h752v236h30v-236h276v-29h-276v-188z" />
    <glyph glyph-name="colon.alt" horiz-adv-x="357" 
d="M207 127h-57v55h57v-55zM207 517h-57v55h57v-55z" />
    <glyph glyph-name="registered.alt" horiz-adv-x="1405" 
d="M702 -95q-362 0 -495 133q-104 104 -104 310q0 204 105 309q134 134 494 134q363 0 496 -133q104 -104 104 -310q0 -204 -105 -309q-134 -134 -495 -134zM702 -68q350 0 475 125q96 96 96 291t-96 291q-125 125 -475 125q-349 0 -474 -125q-96 -96 -96 -291t96 -291
q125 -125 474 -125zM445 547h318q53 0 79 -1.5t63.5 -12t59.5 -32.5q32 -32 32 -83t-32 -83q-48 -48 -179 -48l231 -144v-3h-45l-232 147h-266v-147h-29v407zM474 315h287q45 0 68.5 1t59 9.5t53.5 26.5q25 25 25 66t-25 66q-16 16 -48.5 24.5t-55.5 9.5t-64 1h-13h-287
v-204z" />
    <glyph glyph-name="slash.cap" horiz-adv-x="816" 
d="M79 0h-39l697 700h39z" />
    <glyph glyph-name="plus.cap" horiz-adv-x="1193" 
d="M582 700h29v-334h472v-28h-472v-338h-29v338h-472v28h472v334z" />
    <glyph glyph-name="asterisk.cap" horiz-adv-x="1306" 
d="M133 553v29l506 -213l-1 331h29l-1 -331l507 213v-29l-489 -203l489 -203v-29l-507 213l1 -331h-29l1 330l-506 -212v29l488 202z" />
    <glyph glyph-name="NUL" horiz-adv-x="0" 
 />
    <glyph glyph-name="hfjslug" horiz-adv-x="694" 
d="M644 -200h-208l-8 14h-163l-8 -14h-207v303q14 0 23 9.5t9 22.5t-9.5 22.5t-22.5 9.5v554h100l30 79h334l29 -79h101v-921zM400 563v-172h15v78h38v14h-38v66h43v14h-58zM184 563v-172h15v79h47v-79h15v172h-15v-79h-47v79h-15zM460 394q10 -4 21 -4q31 0 31 36v137h-16
v-137q0 -22 -16 -22q-8 0 -20 5v-15zM371 465l-13 3q-4 -18 -8 -30h-1l-16 31q23 21 23 42q0 31 -27 31q-12 0 -20 -9t-8 -22t14 -39q-23 -18 -23 -47q0 -16 8 -26.5t21 -10.5q19 0 29 24h1l12 -24l12 6l-17 32q6 14 13 39zM523 323v-46h8v12l8 8l15 -20h10l-20 26l18 20
h-10l-20 -24h-1v24h-8zM488 292l10 -15h9l-12 17q10 4 10 14q0 15 -17 15h-20v-46h8v15h12zM426 276q10 0 17 7t7 17q0 9 -7 16.5t-17 7.5t-17 -7.5t-7 -16.5q0 -10 7 -17t17 -7zM370 301l-13 22h-9l18 -29v-17h8v17l18 29h-9zM193 323v-46h34v7h-26v13h23v7h-23v12h26v7
h-34zM132 323v-46h8v32l25 -32h7v46h-8v-32l-25 32h-7zM241 323l14 -47h8l11 34h1l11 -34h8l14 47h-8l-10 -35h-1l-11 35h-7l-11 -35h-1l-10 35h-8zM327 479q-12 22 -12 32q0 19 14 19q13 0 13 -19q0 -15 -15 -32zM342 423q-8 -21 -20 -21q-16 0 -16 25q0 19 16 35zM487 299
h-11v17h11q10 0 10 -8q0 -9 -10 -9zM426 283q-16 0 -16 17q0 6 4.5 11.5t11.5 5.5t11.5 -5.5t4.5 -11.5q0 -17 -16 -17z" />
    <glyph glyph-name="g.alt" horiz-adv-x="1247" 
d="M639 688q-174 0 -268 -26.5t-152 -84.5q-86 -86 -86 -227q0 -142 83 -225q113 -113 428 -113q286 0 452 93v212h-545v28h574v-256q-189 -105 -484 -105q-325 0 -448 123q-90 90 -90 243t90 243q62 62 162.5 92.5t283.5 30.5q146 0 268 -23.5t195 -56.5v-32
q-77 38 -199.5 61t-263.5 23z" />
    <glyph glyph-name="q.alt" horiz-adv-x="1316" 
d="M650 720q336 0 458 -122q89 -89 89 -248q0 -156 -90 -246t-295 -115l339 -143v-3h-57l-335 141q-45 -4 -109 -4q-335 0 -458 123q-89 89 -89 247q0 157 90 247q123 123 457 123zM650 692q-321 0 -434 -113q-83 -83 -83 -229t83 -229q113 -113 434 -113q320 0 433 113
q84 84 84 229q0 147 -82 229q-113 113 -435 113z" />
    <glyph glyph-name="gbreve.alt" horiz-adv-x="1247" 
d="M639 688q-174 0 -268 -26.5t-152 -84.5q-86 -86 -86 -227q0 -142 83 -225q113 -113 428 -113q286 0 452 93v212h-545v28h574v-256q-189 -105 -484 -105q-325 0 -448 123q-90 90 -90 243t90 243q62 62 162.5 92.5t283.5 30.5q146 0 268 -23.5t195 -56.5v-32
q-77 38 -199.5 61t-263.5 23zM638 825q-82 0 -150.5 30t-100.5 63v30h4q39 -39 103 -67t144 -28q81 0 145 27.5t103 66.5h4v-30q-32 -33 -100.5 -62.5t-151.5 -29.5z" />
    <glyph glyph-name="gcommaaccent.alt" horiz-adv-x="1247" 
d="M639 688q-174 0 -268 -26.5t-152 -84.5q-86 -86 -86 -227q0 -142 83 -225q113 -113 428 -113q286 0 452 93v212h-545v28h574v-256q-189 -105 -484 -105q-325 0 -448 123q-90 90 -90 243t90 243q62 62 162.5 92.5t283.5 30.5q146 0 268 -23.5t195 -56.5v-32
q-77 38 -199.5 61t-263.5 23zM492 -317l82 78q38 36 50 64.5t8 74.5h32q5 -47 -11.5 -81t-69.5 -81l-61 -55h-30z" />
    <glyph glyph-name="gdotaccent.alt" horiz-adv-x="1247" 
d="M639 688q-174 0 -268 -26.5t-152 -84.5q-86 -86 -86 -227q0 -142 83 -225q113 -113 428 -113q286 0 452 93v212h-545v28h574v-256q-189 -105 -484 -105q-325 0 -448 123q-90 90 -90 243t90 243q62 62 162.5 92.5t283.5 30.5q146 0 268 -23.5t195 -56.5v-32
q-77 38 -199.5 61t-263.5 23zM667 886v-52h-61v52h61z" />
    <glyph glyph-name="i.dot" horiz-adv-x="419" 
d="M224 0h-29v700h29v-700zM239 871v-52h-61v52h61z" />
    <glyph glyph-name="caron.alt" horiz-adv-x="229" 
d="M118 421h-18l1 278h30z" />
    </font>
</defs>
</svg>
