<?xml version="1.0" encoding="utf-8"?>
<!-- Generator: Adobe Illustrator 16.0.4, SVG Export Plug-In . SVG Version: 6.00 Build 0)  -->
<svg version="1.2" baseProfile="tiny" id="Layer_1" xmlns="http://www.w3.org/2000/svg" xmlns:xlink="http://www.w3.org/1999/xlink"
	 x="0px" y="0px" width="200px" height="50px" viewBox="0 0 200 50" xml:space="preserve">
<g>
	<path fill="#E10000" d="M19.312,23.781v-5.061h2.78v12.559h-2.78v-5.203H6.752v5.203H3.971V18.721h2.781v5.061H19.312z"/>
	<path fill="#E10000" d="M26.457,31.279V18.721h2.78v12.559H26.457z"/>
	<path fill="#E10000" d="M50.975,20.98h-8.021v10.299h-2.781V20.98h-8.021v-2.26h18.822V20.98z"/>
	<path fill="#E10000" d="M54.547,29.342c-1.095-1.094-1.633-2.619-1.633-4.342s0.538-3.248,1.633-4.342
		c1.184-1.184,3.588-2.225,8.002-2.225c3.535,0,6.172,0.736,7.698,1.578v2.584c-1.794-1.059-4.611-1.92-7.68-1.92
		c-3.086,0-5.024,0.629-5.849,1.453c-0.664,0.664-1.005,1.58-1.005,2.871s0.359,2.172,1.023,2.836
		c0.825,0.824,2.727,1.488,5.813,1.488c3.068,0,5.903-0.789,7.698-1.795v2.459c-1.525,0.844-4.163,1.578-7.698,1.578
		C58.135,31.566,55.731,30.527,54.547,29.342z"/>
	<path fill="#E10000" d="M91.326,20.604c1.096,1.096,1.633,2.494,1.633,4.396s-0.52,3.283-1.633,4.396
		c-1.201,1.201-3.553,2.242-8.253,2.242c-4.701,0-7.052-1.041-8.236-2.225c-1.13-1.131-1.651-2.512-1.651-4.414
		s0.521-3.283,1.633-4.396c1.22-1.219,3.571-2.242,8.254-2.242C87.773,18.361,90.125,19.402,91.326,20.604z M77.045,22.059
		c-0.701,0.699-1.059,1.523-1.059,2.941s0.376,2.207,1.094,2.924c0.789,0.791,2.584,1.525,5.993,1.525
		c3.391,0,5.203-0.68,6.046-1.525c0.664-0.662,1.041-1.506,1.041-2.924s-0.412-2.242-1.076-2.906
		c-0.844-0.844-2.62-1.543-6.011-1.543C79.682,20.551,77.869,21.232,77.045,22.059z"/>
	<path fill="#E10000" d="M111.879,28.857V18.721h2.764v12.559h-3.895L99.266,20.963v10.316h-2.764V18.721h4.092L111.879,28.857z"/>
	<path fill="#E10000" d="M136.086,18.361c3.641,0,5.543,0.646,6.404,1.508c0.664,0.664,0.897,1.381,0.897,2.422
		c0,0.879-0.306,1.508-0.789,1.992c-0.88,0.879-1.956,1.256-6.962,2.117c-2.996,0.52-4.611,1.039-5.419,1.848
		c-0.215,0.215-0.413,0.484-0.521,0.771h13.512v2.26h-16.867c0.09-1.705,0.593-3.121,1.634-4.162
		c1.31-1.311,3.499-2.207,7.033-2.816c3.643-0.629,4.898-0.916,5.365-1.383c0.196-0.197,0.269-0.412,0.269-0.752
		c0-0.342-0.107-0.611-0.287-0.789c-0.502-0.504-1.775-0.826-4.252-0.826c-3.445,0-6.227,0.699-8.774,1.812v-2.404
		C129.59,18.971,132.317,18.361,136.086,18.361z"/>
	<path fill="#E10000" d="M163.863,29.396c-1.184,1.184-3.445,2.242-8.057,2.242s-6.889-1.076-8.074-2.26
		c-1.094-1.096-1.65-2.512-1.65-4.379c0-1.865,0.557-3.301,1.65-4.396c1.203-1.201,3.463-2.242,8.074-2.242s6.873,1.059,8.057,2.242
		c1.094,1.096,1.65,2.531,1.65,4.396C165.514,26.867,164.957,28.301,163.863,29.396z M161.62,22.004
		c-0.843-0.844-2.53-1.471-5.813-1.471s-5.023,0.609-5.849,1.436c-0.7,0.699-1.06,1.633-1.06,3.031c0,1.4,0.413,2.314,1.077,2.979
		c0.808,0.809,2.548,1.488,5.831,1.488s4.988-0.592,5.832-1.434c0.699-0.701,1.058-1.633,1.058-3.033
		C162.696,23.602,162.32,22.703,161.62,22.004z"/>
	<path fill="#E10000" d="M167.946,20.783l4.288-2.1h3.319v12.596h-2.781V21.07l-4.826,2.352V20.783z"/>
	<path fill="#E10000" d="M187.686,18.434c4.27,0,6.334,0.537,7.338,1.543c0.557,0.557,0.826,1.131,0.826,2.045
		c0,0.664-0.197,1.328-0.7,1.83s-1.095,0.844-2.046,1.041c1.041,0.197,1.688,0.521,2.189,1.023c0.395,0.395,0.736,1.059,0.736,1.83
		c0,0.754-0.215,1.488-0.808,2.08c-1.31,1.311-3.589,1.74-7.536,1.74c-3.068,0-6.604-0.557-8.218-1.184v-2.279
		c1.866,0.754,5.312,1.275,8.218,1.275c3.051,0,4.574-0.18,5.186-0.791c0.232-0.232,0.341-0.52,0.341-0.896
		c0-0.359-0.108-0.664-0.358-0.914c-0.557-0.557-1.723-0.754-4.379-0.754h-6.908v-2.207h6.747c2.853,0,3.894-0.162,4.414-0.682
		c0.197-0.197,0.323-0.502,0.323-0.807c0-0.379-0.09-0.646-0.305-0.863c-0.557-0.555-1.957-0.842-5.061-0.842
		c-2.854,0-6.388,0.592-8.182,1.398v-2.404C181.082,19.008,184.617,18.434,187.686,18.434z"/>
</g>
</svg>
