<?xml version="1.0" encoding="utf-8"?>
<!-- Generator: Adobe Illustrator 16.0.4, SVG Export Plug-In . SVG Version: 6.00 Build 0)  -->
<svg version="1.2" baseProfile="tiny" id="Layer_1" xmlns="http://www.w3.org/2000/svg" xmlns:xlink="http://www.w3.org/1999/xlink"
	 x="0px" y="0px" width="300px" height="25px" viewBox="0 0 300 25" xml:space="preserve">
<g>
	<path fill="#85A5E9" d="M13.004,14.72c-0.602-0.603-0.888-1.441-0.888-2.39c0-0.947,0.286-1.786,0.888-2.39
		c0.652-0.651,1.916-1.224,4.423-1.224c1.935,0,3.535,0.454,4.374,0.858v0.603c-0.988-0.523-2.646-0.938-4.374-0.938
		c-1.471,0-3.12,0.207-3.969,1.057c-0.494,0.493-0.721,1.185-0.721,2.033c0,0.85,0.227,1.54,0.721,2.024
		c0.849,0.849,2.498,1.066,3.969,1.066c1.728,0,3.386-0.406,4.374-0.919v0.583c-0.839,0.404-2.439,0.859-4.374,0.859
		C14.92,15.944,13.657,15.371,13.004,14.72z"/>
	<path fill="#85A5E9" d="M28.473,12.448l4.334-3.573h0.839v0.01l-4.887,4.028v2.873h-0.602v-2.873l-4.887-4.028v-0.01h0.859
		L28.473,12.448z"/>
	<path fill="#85A5E9" d="M35.609,8.875h5.687c1.757,0,2.685,0.157,3.248,0.71c0.316,0.316,0.405,0.662,0.405,1.077
		c0,0.8-0.483,1.392-1.787,1.619c1.333,0.178,1.925,0.73,1.925,1.658c0,0.355-0.128,0.789-0.444,1.106
		c-0.583,0.581-1.708,0.74-3.347,0.74h-5.687V8.875z M41.247,9.398h-5.035v2.636h5.134c1.689,0,2.301-0.188,2.686-0.572
		c0.188-0.198,0.296-0.435,0.296-0.741c0-0.286-0.069-0.553-0.287-0.77C43.597,9.507,42.856,9.398,41.247,9.398z M41.355,12.548
		h-5.144v2.725h5.104c1.59,0,2.36-0.099,2.824-0.563c0.247-0.247,0.316-0.522,0.316-0.799c0-0.316-0.069-0.573-0.286-0.8
		C43.676,12.616,42.58,12.548,41.355,12.548z"/>
	<path fill="#85A5E9" d="M56.439,12.034v0.514h-8.037v2.714h8.175v0.524H47.79V8.875h8.787v0.523h-8.175v2.636H56.439z"/>
	<path fill="#85A5E9" d="M64.818,8.875c2.054,0,2.715,0.237,3.169,0.681c0.375,0.376,0.533,0.859,0.533,1.441
		c0,0.583-0.158,1.057-0.533,1.432c-0.424,0.425-1.115,0.741-3.031,0.751l4.364,2.576v0.03h-0.958l-4.364-2.606h-4.146v2.606H59.24
		V8.875H64.818z M59.853,12.666h4.957c1.698,0,2.359-0.228,2.725-0.593c0.257-0.257,0.375-0.611,0.375-1.065
		c0-0.444-0.119-0.81-0.395-1.087c-0.365-0.365-0.997-0.522-2.696-0.522h-4.966V12.666z"/>
	<path fill="#85A5E9" d="M78.866,9.486l-3.387,6.339h-0.83l-4.087-6.95h0.701l3.811,6.564l3.475-6.516h0.651l3.683,6.516
		l3.673-6.564h0.671l-3.939,6.95h-0.83L78.866,9.486z"/>
	<path fill="#85A5E9" d="M99.595,15.786h-0.711l-1.371-1.847h-7.021l-1.362,1.847h-0.681l5.154-6.951h0.839L99.595,15.786z
		 M90.878,13.416h6.249L94.007,9.2L90.878,13.416z"/>
	<path fill="#85A5E9" d="M107.354,8.875c2.053,0,2.714,0.237,3.168,0.681c0.376,0.376,0.534,0.859,0.534,1.441
		c0,0.583-0.158,1.057-0.534,1.432c-0.423,0.425-1.115,0.741-3.03,0.751l4.364,2.576v0.03h-0.958l-4.364-2.606h-4.146v2.606h-0.612
		V8.875H107.354z M102.387,12.666h4.957c1.697,0,2.358-0.228,2.724-0.593c0.258-0.257,0.376-0.611,0.376-1.065
		c0-0.444-0.118-0.81-0.396-1.087c-0.365-0.365-0.996-0.522-2.694-0.522h-4.967V12.666z"/>
	<path fill="#85A5E9" d="M112.298,18.283l2.31-3.269h0.739l-2.418,3.269H112.298z"/>
	<path fill="#85A5E9" d="M122.741,15.786V8.875h0.603v6.911H122.741z"/>
	<path fill="#85A5E9" d="M135.802,15.253V8.875h0.603v6.911h-0.859l-8.204-6.407v6.407h-0.612V8.875h0.889L135.802,15.253z"/>
	<path fill="#85A5E9" d="M153.097,12.023V8.875h0.612v6.911h-0.612v-3.229h-8.343v3.229h-0.612V8.875h0.612v3.148H153.097z"/>
	<path fill="#85A5E9" d="M167.033,15.786h-0.71l-1.372-1.847h-7.021l-1.362,1.847h-0.682l5.154-6.951h0.84L167.033,15.786z
		 M158.316,13.416h6.249L161.446,9.2L158.316,13.416z"/>
	<path fill="#85A5E9" d="M169.529,14.72c-0.604-0.603-0.889-1.441-0.889-2.39c0-0.947,0.285-1.786,0.889-2.39
		c0.651-0.651,1.916-1.224,4.424-1.224c1.935,0,3.533,0.454,4.373,0.858v0.603c-0.988-0.523-2.646-0.938-4.373-0.938
		c-1.472,0-3.121,0.207-3.97,1.057c-0.494,0.493-0.722,1.185-0.722,2.033c0,0.85,0.228,1.54,0.722,2.024
		c0.849,0.849,2.498,1.066,3.97,1.066c1.728,0,3.385-0.406,4.373-0.919v0.583c-0.84,0.404-2.438,0.859-4.373,0.859
		C171.445,15.944,170.181,15.371,169.529,14.72z"/>
	<path fill="#85A5E9" d="M181.739,8.875v3.148h2.231l5.252-3.148h0.959v0.01l-5.687,3.406l5.785,3.485v0.01h-1.007l-5.332-3.229
		h-2.202v3.229h-0.602V8.875H181.739z"/>
	<path fill="#85A5E9" d="M204.374,9.486l-3.385,6.339h-0.83l-4.088-6.95h0.701l3.812,6.564l3.476-6.516h0.652l3.683,6.516
		l3.672-6.564h0.671l-3.939,6.95h-0.828L204.374,9.486z"/>
	<path fill="#85A5E9" d="M223.624,12.034v0.514h-8.037v2.714h8.176v0.524h-8.788V8.875h8.788v0.523h-8.176v2.636H223.624z"/>
	<path fill="#85A5E9" d="M240.257,9.398h-4.838v6.388h-0.612V9.398h-4.837V8.875h10.287V9.398z"/>
	<path fill="#85A5E9" d="M248.045,8.875c2.053,0,2.714,0.237,3.168,0.681c0.375,0.376,0.533,0.859,0.533,1.441
		c0,0.583-0.158,1.057-0.533,1.432c-0.425,0.425-1.115,0.741-3.03,0.751l4.364,2.576v0.03h-0.959l-4.362-2.606h-4.147v2.606h-0.612
		V8.875H248.045z M243.078,12.666h4.956c1.698,0,2.359-0.228,2.725-0.593c0.257-0.257,0.375-0.611,0.375-1.065
		c0-0.444-0.118-0.81-0.395-1.087c-0.365-0.365-0.997-0.522-2.694-0.522h-4.967V12.666z"/>
	<path fill="#85A5E9" d="M262.86,14.492c0.505-0.513,0.623-1.165,0.623-1.886V8.875h0.612v3.851c0,1.007-0.247,1.629-0.761,2.142
		c-0.604,0.593-1.688,1.077-4.028,1.077c-2.351,0-3.436-0.484-4.029-1.077c-0.513-0.513-0.76-1.135-0.76-2.142V8.875h0.602v3.731
		c0,0.721,0.118,1.373,0.634,1.886c0.553,0.543,1.53,0.929,3.554,0.929C261.32,15.421,262.307,15.035,262.86,14.492z"/>
	<path fill="#85A5E9" d="M275.013,14.749c0.236-0.236,0.314-0.533,0.314-0.829c0-0.286-0.049-0.553-0.256-0.771
		c-0.276-0.276-0.878-0.483-3.762-0.611c-2.754-0.139-3.693-0.376-4.118-0.801c-0.256-0.267-0.374-0.632-0.374-1.026
		c0-0.425,0.118-0.839,0.434-1.155c0.475-0.474,1.512-0.819,3.821-0.819c1.867,0,3.406,0.326,4.325,0.643v0.553
		c-1.086-0.386-2.695-0.682-4.325-0.682c-2.162,0-2.981,0.267-3.347,0.632c-0.198,0.197-0.287,0.474-0.287,0.789
		c0,0.307,0.089,0.533,0.258,0.692c0.316,0.315,1.096,0.503,3.741,0.632c3.03,0.147,3.713,0.385,4.127,0.799
		c0.287,0.287,0.375,0.682,0.375,1.086c0,0.415-0.118,0.869-0.435,1.185c-0.403,0.404-1.233,0.859-4.037,0.859
		c-2.023,0-3.782-0.336-4.897-0.789v-0.554c1.097,0.454,3.041,0.84,4.916,0.84C274.006,15.421,274.715,15.046,275.013,14.749z"/>
	<path fill="#85A5E9" d="M287.884,9.398h-4.838v6.388h-0.612V9.398h-4.838V8.875h10.288V9.398z"/>
</g>
</svg>
